<svg width="69" height="69" viewBox="0 0 69 69" fill="none" xmlns="http://www.w3.org/2000/svg">
<path d="M45.4245 59.9258C35.2046 70.1458 18.6349 70.1458 8.41488 59.9258C-1.80496 49.706 -1.80496 33.1362 8.41488 22.9163C18.6349 12.6964 35.2046 12.6964 45.4245 22.9163C55.6444 33.1362 55.6444 49.706 45.4245 59.9258Z" stroke="white" stroke-width="1.5" stroke-miterlimit="10"/>
<path d="M38.6973 53.1987C32.1928 59.7033 21.6466 59.7033 15.1421 53.1987C8.63754 46.6942 8.63754 36.1481 15.1421 29.6435C21.6466 23.139 32.1928 23.139 38.6973 29.6435C45.2018 36.1481 45.2018 46.6942 38.6973 53.1987Z" stroke="white" stroke-width="1.5" stroke-miterlimit="10"/>
<path d="M31.8568 46.3451C29.1337 49.0682 24.7187 49.0682 21.9956 46.3451C19.2723 43.622 19.2723 39.207 21.9956 36.4839C24.7187 33.7607 29.1337 33.7607 31.8568 36.4839C34.5799 39.207 34.5799 43.622 31.8568 46.3451Z" stroke="white" stroke-width="1.5" stroke-miterlimit="10"/>
<path d="M27.291 41.0488L49.7955 18.5445" stroke="white" stroke-width="1.5" stroke-miterlimit="10" stroke-linecap="round"/>
<path d="M57.1078 19.3882L49.7955 18.5444L48.9517 11.2321C48.9388 11.1206 48.9775 11.0095 49.0568 10.9302L59.128 0.858992C59.3453 0.641693 59.7174 0.771351 59.7527 1.07657L60.5107 7.64518C60.5219 7.74183 60.598 7.81796 60.6947 7.82919L67.2631 8.58718C67.5685 8.6224 67.6982 8.99459 67.4809 9.21189L57.4097 19.2831C57.3304 19.3623 57.2191 19.4011 57.1078 19.3882Z" stroke="white" stroke-width="1.5" stroke-miterlimit="10" stroke-linecap="round"/>
</svg>
