<svg width="69" height="59" viewBox="0 0 69 59" fill="none" xmlns="http://www.w3.org/2000/svg">
<path d="M59.2695 58.1323V56.0522C59.2695 42.1901 48.0321 30.9526 34.1699 30.9526C20.3077 30.9526 9.07031 42.1901 9.07031 56.0522V58.1323" stroke="white" stroke-width="1.5" stroke-miterlimit="10"/>
<path d="M50.9492 58.1323V56.0522C50.9492 46.7854 43.4368 39.2729 34.1699 39.2729C24.903 39.2729 17.3906 46.7854 17.3906 56.0522V58.1323" stroke="white" stroke-width="1.5" stroke-miterlimit="10"/>
<path d="M34.1699 30.9527C34.1706 30.9523 50.9492 23.2635 50.9492 11.3628C50.9492 5.50159 46.1978 0.75 40.3364 0.75C38.0364 0.75 35.9079 1.48219 34.1699 2.72552C32.4319 1.48219 30.3035 0.75 28.0035 0.75C22.1421 0.75 17.3906 5.50159 17.3906 11.3628C17.3906 23.2635 34.1692 30.9523 34.1699 30.9527Z" stroke="white" stroke-width="1.5" stroke-miterlimit="10"/>
<path d="M24.1096 24.1746C10.5688 28.444 0.75 41.101 0.75 56.0523V58.1324H25.7109V56.0523C25.7109 51.3806 29.4982 47.5933 34.1699 47.5933C38.8416 47.5933 42.6289 51.3806 42.6289 56.0523V58.1324H67.5898V56.0523C67.5898 41.101 57.771 28.444 44.2303 24.1746" stroke="white" stroke-width="1.5" stroke-miterlimit="10"/>
</svg>
