<svg width="69" height="69" viewBox="0 0 69 69" fill="none" xmlns="http://www.w3.org/2000/svg">
<path d="M11.8223 67.5635L10.5371 57.8013L20.2993 56.5161" stroke="white" stroke-width="1.5" stroke-miterlimit="10" stroke-linecap="round" stroke-linejoin="round"/>
<path d="M56.5161 0.776123L57.8013 10.5383L48.0391 11.8236" stroke="white" stroke-width="1.5" stroke-miterlimit="10" stroke-linecap="round" stroke-linejoin="round"/>
<path d="M57.8014 10.5384C51.7536 4.49067 43.3987 0.75 34.1699 0.75C15.7127 0.75 0.75 15.7126 0.75 34.1699C0.75 39.3292 1.92081 44.2142 4.00851 48.577" stroke="white" stroke-width="1.5" stroke-miterlimit="10" stroke-linecap="round" stroke-linejoin="round"/>
<path d="M10.5371 57.8015C16.5849 63.8492 24.94 67.5899 34.1686 67.5899C52.6258 67.5899 67.5885 52.6272 67.5885 34.17C67.5885 29.0107 66.4177 24.1256 64.33 19.7629" stroke="white" stroke-width="1.5" stroke-miterlimit="10" stroke-linecap="round" stroke-linejoin="round"/>
<path d="M53.4095 28.6662L48.556 20.2596L47.5167 20.8596C43.7418 23.0391 39.0231 20.3148 39.0231 15.9558V14.7559H29.3161V15.9558C29.3161 20.3147 24.5973 23.039 20.8224 20.8596L19.7832 20.2596L14.9297 28.6662L15.9688 29.2661C19.7437 31.4456 19.7437 36.8943 15.9688 39.0738L14.9297 39.6737L19.7832 48.0802L20.8224 47.4802C24.5973 45.3007 29.3161 48.025 29.3161 52.3841V53.584H39.0231V52.3841C39.0231 48.0252 43.7418 45.3008 47.5167 47.4802L48.556 48.0802L53.4095 39.6737L52.3704 39.0738C48.5955 36.8943 48.5955 31.4456 52.3704 29.2661L53.4095 28.6662Z" stroke="white" stroke-width="1.5" stroke-miterlimit="10" stroke-linecap="round" stroke-linejoin="round"/>
<path d="M34.1699 41.1035C37.9992 41.1035 41.1035 37.9992 41.1035 34.1699C41.1035 30.3406 37.9992 27.2363 34.1699 27.2363C30.3406 27.2363 27.2363 30.3406 27.2363 34.1699C27.2363 37.9992 30.3406 41.1035 34.1699 41.1035Z" stroke="white" stroke-width="1.5" stroke-miterlimit="10" stroke-linecap="round" stroke-linejoin="round"/>
</svg>
