<?xml version="1.0" standalone="no"?>
<!DOCTYPE svg PUBLIC "-//W3C//DTD SVG 20010904//EN"
 "http://www.w3.org/TR/2001/REC-SVG-20010904/DTD/svg10.dtd">
<svg version="1.0" xmlns="http://www.w3.org/2000/svg"
 width="330.000000pt" height="71.000000pt" viewBox="0 0 330.000000 71.000000"
 preserveAspectRatio="xMidYMid meet">
<metadata>
Created by potrace 1.16, written by Peter Selinger 2001-2019
</metadata>
<g transform="translate(0.000000,71.000000) scale(0.100000,-0.100000)"
fill="#000000" stroke="none">
<path d="M2799 677 c-64 -18 -132 -60 -168 -104 l-31 -38 0 74 0 73 -114 -3
c-108 -4 -117 -6 -158 -34 -23 -17 -53 -49 -65 -70 -21 -37 -23 -52 -23 -212
l0 -173 -55 0 -55 0 0 245 0 245 -85 0 -85 0 0 -330 0 -330 145 0 145 0 0 63
0 62 20 -32 c10 -18 38 -45 61 -60 39 -26 52 -28 156 -32 l113 -3 0 76 0 76
42 -46 c23 -25 65 -58 93 -72 44 -24 61 -27 150 -27 86 0 107 3 149 24 111 55
177 157 184 286 5 98 -19 170 -79 239 -79 89 -228 135 -340 103z m154 -171
c70 -29 117 -122 98 -191 -23 -84 -106 -143 -184 -131 -93 15 -152 90 -145
181 10 117 123 187 231 141z m-384 -48 c-10 -29 -18 -78 -18 -108 0 -30 8 -79
18 -107 l18 -53 -77 0 c-46 0 -81 5 -88 12 -8 8 -12 56 -12 148 0 92 4 140 12
148 7 7 42 12 88 12 l77 0 -18 -52z"/>
<path d="M80 350 l0 -330 80 0 79 0 3 92 3 92 63 -92 63 -92 100 0 c77 0 99 3
93 13 -4 6 -54 81 -111 165 l-104 152 104 153 c57 83 107 158 111 165 6 9 -16
12 -93 12 l-100 0 -63 -92 -63 -92 -3 92 -3 92 -79 0 -80 0 0 -330z"/>
<path d="M680 671 c-212 -65 -304 -324 -180 -509 142 -211 462 -193 577 32 38
74 44 198 12 281 -30 80 -104 154 -182 183 -59 23 -174 29 -227 13z m165 -170
c48 -22 69 -44 90 -96 59 -139 -104 -278 -237 -203 -105 59 -117 200 -24 274
59 47 107 54 171 25z"/>
<path d="M1130 351 l0 -331 138 0 c129 0 142 2 191 26 76 38 106 87 106 175 0
54 -4 73 -23 98 l-23 31 23 31 c19 25 23 44 23 99 0 60 -4 74 -30 111 -51 71
-86 83 -257 87 l-148 3 0 -330z"/>
<path d="M1695 661 c-48 -22 -79 -54 -100 -103 -22 -54 -22 -362 0 -416 39
-92 98 -121 248 -122 l107 0 0 85 0 85 -99 0 c-106 0 -111 2 -111 56 0 24 1
24 105 24 l105 0 0 80 0 80 -105 0 c-104 0 -105 0 -105 24 0 54 5 56 111 56
l99 0 0 85 0 85 -107 0 c-84 0 -117 -5 -148 -19z"/>
</g>
</svg>
