<?xml version="1.0" standalone="no"?>
<!DOCTYPE svg PUBLIC "-//W3C//DTD SVG 20010904//EN"
 "http://www.w3.org/TR/2001/REC-SVG-20010904/DTD/svg10.dtd">
<svg version="1.0" xmlns="http://www.w3.org/2000/svg"
 width="328.000000pt" height="78.000000pt" viewBox="0 0 328.000000 78.000000"
 preserveAspectRatio="xMidYMid meet">

<g transform="translate(0.000000,78.000000) scale(0.100000,-0.100000)"
fill="#000000" stroke="none">
<path d="M387 719 c-104 -25 -187 -118 -187 -210 l0 -32 30 41 c78 108 218
109 313 2 53 -58 70 -103 70 -180 1 -78 -23 -138 -79 -201 l-39 -43 54 29
c110 60 166 159 166 295 0 62 -5 86 -28 132 -59 121 -190 194 -300 167z"/>
<path d="M226 699 c-121 -64 -194 -218 -166 -350 35 -163 187 -282 318 -249
105 26 169 87 192 182 16 63 8 79 -17 36 -52 -88 -164 -124 -249 -80 -90 47
-144 136 -144 242 0 80 25 138 83 198 45 46 42 51 -17 21z"/>
<path d="M920 598 c0 -18 7 -109 15 -203 8 -93 15 -178 15 -187 0 -16 10 -18
79 -18 51 0 82 4 88 13 5 6 27 56 49 109 21 54 40 94 42 89 2 -5 6 -53 10
-107 l7 -99 80 0 80 0 92 210 c51 116 92 214 92 218 1 4 -36 7 -81 5 l-83 -3
-40 -102 c-22 -57 -43 -103 -47 -103 -5 0 -8 24 -8 53 0 28 -3 76 -6 105 l-7
52 -51 0 c-28 0 -57 -4 -64 -8 -6 -5 -32 -56 -55 -115 -24 -59 -46 -104 -50
-101 -4 4 -7 56 -7 116 l0 108 -75 0 -75 0 0 -32z"/>
<path d="M1606 613 c-9 -31 -76 -389 -76 -407 0 -14 18 -16 155 -16 175 0 164
-5 178 82 l6 38 -80 0 c-43 0 -79 4 -79 9 0 34 13 41 80 41 l68 0 6 31 c15 76
13 79 -60 79 -56 0 -65 2 -60 16 3 9 6 18 6 20 0 2 31 4 69 4 39 0 72 4 75 8
3 5 8 32 12 60 l7 52 -151 0 c-135 0 -151 -2 -156 -17z"/>
<path d="M1965 608 c-9 -42 -75 -400 -75 -409 0 -5 34 -9 75 -9 87 0 87 0 104
110 7 41 15 82 18 90 2 8 20 -27 39 -79 19 -52 39 -101 46 -108 8 -10 32 -13
86 -11 l76 3 37 200 c21 110 38 208 39 218 0 16 -8 18 -77 15 l-78 -3 -21
-105 c-24 -117 -20 -117 -64 5 -39 110 -33 105 -121 105 -73 0 -79 -2 -84 -22z"/>
<path d="M2452 529 c-42 -206 -62 -321 -56 -330 14 -23 268 -2 327 27 134 68
176 240 83 338 -40 43 -83 55 -222 63 l-111 6 -21 -104z m221 -57 c21 -19 23
-80 2 -109 -14 -20 -83 -48 -93 -38 -7 6 20 149 30 162 11 13 34 7 61 -15z"/>
<path d="M2891 573 c-15 -76 -16 -73 28 -73 22 0 42 -4 45 -9 3 -4 -6 -66 -19
-137 -14 -70 -25 -134 -25 -141 0 -10 21 -13 79 -13 l79 0 28 148 29 147 46 3
46 3 12 56 c6 31 11 60 11 65 0 4 -78 8 -174 8 l-173 0 -12 -57z"/>
<path d="M336 550 c-57 -18 -106 -83 -106 -140 0 -83 67 -144 155 -144 120 0
191 112 136 214 -31 59 -117 91 -185 70z"/>
</g>
</svg>
