<?xml version="1.0" standalone="no"?>
<!DOCTYPE svg PUBLIC "-//W3C//DTD SVG 20010904//EN"
 "http://www.w3.org/TR/2001/REC-SVG-20010904/DTD/svg10.dtd">
<svg version="1.0" xmlns="http://www.w3.org/2000/svg"
 width="300.000000pt" height="64.000000pt" viewBox="0 0 300.000000 64.000000"
 preserveAspectRatio="xMidYMid meet">

<g transform="translate(0.000000,64.000000) scale(0.100000,-0.100000)"
fill="#000000" stroke="none">
<path d="M241 459 c-76 -152 -81 -164 -61 -167 13 -2 35 10 60 32 22 20 51 38
65 42 34 8 80 -12 110 -48 17 -20 32 -28 49 -26 23 3 22 7 -58 167 l-82 163
-83 -163z m172 -72 c-3 -5 -2 -7 4 -4 5 3 19 -14 31 -38 12 -25 18 -45 13 -45
-12 0 -32 25 -26 33 3 4 2 5 -1 2 -4 -2 -20 7 -36 20 -41 34 -105 34 -146 0
-16 -13 -33 -21 -37 -17 -5 4 -5 2 -2 -4 7 -12 -19 -41 -28 -32 -3 3 27 69 67
147 l72 143 48 -97 c26 -54 45 -102 41 -108z"/>
<path d="M812 373 c-36 -98 -43 -125 -37 -131 4 -4 14 3 22 16 9 12 26 22 38
22 12 0 29 -10 38 -22 28 -43 29 -9 2 67 -29 79 -46 92 -63 48z m38 -55 c0
-10 -7 -18 -15 -18 -16 0 -19 17 -9 45 5 13 8 14 15 3 5 -7 9 -21 9 -30z"/>
<path d="M920 394 c0 -4 9 -21 20 -40 l21 -32 -21 -34 c-23 -39 -25 -48 -7
-48 8 0 19 11 25 25 6 14 15 25 20 25 5 0 14 -11 20 -25 6 -14 18 -25 27 -25
20 0 19 4 -7 49 l-22 38 23 36 c19 31 20 37 7 37 -9 0 -22 -11 -28 -25 -6 -14
-15 -25 -20 -25 -5 0 -14 11 -20 25 -10 22 -38 36 -38 19z"/>
<path d="M1070 320 l0 -81 48 3 c48 3 59 23 12 23 -23 1 -25 4 -30 65 -3 38
-10 65 -17 68 -10 3 -13 -17 -13 -78z"/>
<path d="M1190 320 l0 -80 50 0 c38 0 50 4 50 15 0 10 -11 15 -35 15 -28 0
-35 4 -35 20 0 16 7 20 30 20 20 0 30 5 30 15 0 11 -8 15 -27 13 -22 -2 -29 2
-31 20 -3 19 1 22 32 22 20 0 36 5 36 10 0 6 -22 10 -50 10 l-50 0 0 -80z"/>
<path d="M1335 384 c-24 -24 -14 -47 30 -70 42 -21 47 -33 21 -49 -10 -6 -20
-4 -34 8 -23 21 -32 22 -32 2 0 -35 76 -47 104 -16 24 26 7 56 -40 76 -20 8
-34 20 -32 27 7 20 38 21 52 2 8 -10 18 -14 25 -10 20 12 -17 46 -50 46 -15 0
-35 -7 -44 -16z"/>
<path d="M1524 386 c-10 -26 1 -139 14 -144 9 -3 12 17 12 77 0 49 -4 81 -10
81 -6 0 -13 -6 -16 -14z"/>
<path d="M1590 319 c0 -60 3 -80 13 -77 6 3 14 27 17 54 l5 49 19 -35 c22 -41
46 -70 58 -70 4 0 8 36 8 81 0 60 -3 80 -12 77 -7 -3 -15 -26 -18 -51 l-5 -47
-28 50 c-42 75 -57 67 -57 -31z"/>
<path d="M1742 323 l3 -78 31 -3 c47 -5 84 30 84 79 0 52 -27 79 -80 79 l-41
0 3 -77z m76 45 c19 -19 15 -86 -5 -96 -31 -16 -43 -3 -43 47 0 26 3 51 7 54
10 11 28 8 41 -5z"/>
<path d="M1892 323 c4 -98 23 -100 23 -1 0 49 -4 73 -13 76 -10 3 -12 -14 -10
-75z"/>
<path d="M1993 388 c-5 -7 -17 -36 -26 -64 -9 -27 -19 -58 -23 -67 -4 -11 -1
-17 9 -17 9 0 19 9 22 20 4 14 15 20 35 20 20 0 31 -6 35 -20 8 -25 25 -26 24
-2 -1 28 -43 135 -55 139 -6 2 -15 -2 -21 -9z m32 -65 c5 -19 2 -23 -14 -23
-23 0 -24 3 -15 38 7 26 18 20 29 -15z"/>
<path d="M2152 323 l3 -78 49 -3 c36 -2 47 0 44 10 -3 7 -19 14 -36 16 l-32 3
0 65 c0 51 -3 64 -15 64 -13 0 -15 -13 -13 -77z"/>
<path d="M2280 320 c0 -47 4 -80 10 -80 6 0 10 33 10 80 0 47 -4 80 -10 80 -6
0 -10 -33 -10 -80z"/>
<path d="M2340 320 c0 -64 3 -80 15 -80 12 0 15 13 16 58 l1 57 16 -47 c26
-74 37 -77 58 -21 25 69 32 72 30 12 0 -34 3 -53 12 -56 9 -4 12 16 12 76 0
72 -2 81 -18 81 -14 0 -24 -15 -37 -55 -18 -52 -35 -72 -35 -40 0 34 -33 95
-51 95 -17 0 -19 -8 -19 -80z"/>
<path d="M2544 386 c-9 -23 0 -141 11 -141 6 0 11 34 13 78 2 50 -1 77 -8 77
-6 0 -13 -6 -16 -14z"/>
<path d="M2595 391 c-3 -5 5 -11 17 -13 21 -3 23 -9 26 -71 4 -91 26 -87 30 6
3 59 5 67 22 67 11 0 20 5 20 10 0 13 -107 13 -115 1z"/>
<path d="M2740 319 l0 -80 53 3 c60 3 70 21 15 26 -30 3 -38 7 -38 23 0 14 7
19 30 19 20 0 30 5 30 15 0 11 -8 15 -27 13 -22 -2 -29 2 -31 20 -3 20 1 22
38 22 25 0 39 4 35 10 -3 6 -28 10 -56 10 l-49 0 0 -81z"/>
<path d="M2870 320 l0 -80 34 0 c51 0 86 33 86 81 0 52 -27 79 -80 79 l-40 0
0 -80z m78 48 c19 -19 15 -86 -5 -96 -31 -16 -43 -3 -43 47 0 26 3 51 7 54 10
11 28 8 41 -5z"/>
<path d="M286 287 c-26 -19 -24 -67 4 -89 27 -22 39 -22 68 -2 42 29 18 104
-34 104 -11 0 -28 -6 -38 -13z"/>
<path d="M65 108 c-25 -51 -45 -93 -45 -95 0 -2 137 -3 304 -3 l304 0 -46 95
-47 95 -44 0 c-37 0 -49 -5 -78 -35 -19 -19 -45 -38 -59 -41 -40 -10 -100 13
-124 46 -19 26 -27 30 -71 30 l-49 0 -45 -92z m155 52 c5 -10 6 -21 2 -25 -4
-3 -2 -6 3 -5 22 5 36 -1 29 -12 -4 -6 -3 -8 3 -5 6 4 24 2 40 -4 37 -12 68
-1 116 41 30 26 43 31 78 28 42 -3 42 -4 75 -76 l33 -72 -275 0 c-151 0 -274
2 -274 6 0 3 9 25 20 50 11 24 25 55 30 69 9 23 15 25 60 24 37 -2 54 -7 60
-19z"/>
</g>
</svg>
