<?xml version="1.0" standalone="no"?>
<!DOCTYPE svg PUBLIC "-//W3C//DTD SVG 20010904//EN"
 "http://www.w3.org/TR/2001/REC-SVG-20010904/DTD/svg10.dtd">
<svg version="1.0" xmlns="http://www.w3.org/2000/svg"
 width="1200.000000pt" height="627.000000pt" viewBox="0 0 1200.000000 627.000000"
 preserveAspectRatio="xMidYMid meet">

<g transform="translate(0.000000,627.000000) scale(0.100000,-0.100000)"
fill="#000000" stroke="none">
<path d="M3490 5630 l0 -210 195 0 195 0 0 210 0 210 -195 0 -195 0 0 -210z"/>
<path d="M7310 4525 l0 -1315 190 0 190 0 0 1315 0 1315 -190 0 -190 0 0
-1315z"/>
<path d="M8260 5630 l0 -210 195 0 195 0 0 210 0 210 -195 0 -195 0 0 -210z"/>
<path d="M11545 5410 c-107 -70 -72 -231 55 -255 57 -10 120 28 144 87 17 42
18 52 6 88 -20 62 -69 100 -128 100 -30 0 -58 -7 -77 -20z m125 -5 c70 -36 84
-143 26 -201 -48 -48 -101 -48 -154 0 -33 31 -37 39 -37 84 0 100 84 159 165
117z"/>
<path d="M11570 5290 c0 -40 4 -70 10 -70 6 0 10 14 10 30 0 40 25 40 48 0 9
-16 20 -30 25 -30 12 0 8 17 -8 30 -19 16 -20 40 -1 40 17 0 28 27 21 51 -5
15 -16 19 -56 19 l-49 0 0 -70z m85 35 c0 -15 -8 -21 -32 -23 -30 -3 -33 -1
-33 23 0 24 3 26 33 23 24 -2 32 -8 32 -23z"/>
<path d="M5145 5104 c-272 -38 -334 -54 -460 -117 -143 -71 -244 -189 -302
-352 l-28 -80 0 -410 0 -410 28 -80 c89 -252 259 -380 592 -446 117 -23 133
-24 615 -24 473 0 500 1 613 23 138 26 217 52 308 99 176 91 288 259 318 477
14 101 14 622 0 723 -38 273 -192 451 -465 536 -169 53 -251 60 -739 63 -247
1 -463 0 -480 -2z m1054 -358 c73 -24 92 -36 141 -85 41 -41 62 -73 81 -121
24 -64 24 -69 24 -395 l0 -330 -29 -67 c-51 -121 -156 -194 -316 -219 -42 -6
-247 -9 -551 -7 -468 3 -486 4 -549 26 -122 40 -188 100 -236 212 -17 41 -19
77 -22 371 -3 311 -2 329 18 390 28 84 63 134 125 175 47 32 142 67 210 77 17
3 253 4 525 3 l495 -1 84 -29z"/>
<path d="M9912 5089 c-155 -29 -273 -85 -335 -159 -14 -16 -28 -30 -31 -30 -3
0 -6 41 -6 90 l0 90 -185 0 -185 0 0 -935 0 -935 195 0 195 0 0 583 c0 624 3
666 52 764 50 99 168 164 363 199 82 15 156 18 410 18 290 1 316 -1 400 -22
89 -22 172 -59 209 -91 10 -9 30 -38 45 -66 l26 -50 3 -667 3 -668 195 0 195
0 -3 708 -3 707 -27 74 c-35 93 -73 152 -140 217 -93 90 -196 140 -364 174
-87 18 -134 20 -503 19 -355 -1 -419 -3 -509 -20z"/>
<path d="M260 5073 c1 -5 41 -69 90 -143 49 -74 116 -178 150 -230 34 -52 97
-149 140 -215 43 -66 135 -208 205 -315 69 -107 186 -287 260 -400 74 -113
189 -289 256 -392 l122 -188 221 0 221 0 32 53 c32 51 108 169 256 397 41 63
100 154 131 203 151 234 266 414 341 530 22 34 85 132 140 217 54 85 136 212
181 281 45 69 93 144 108 167 l26 42 -198 0 -198 0 -108 -167 c-59 -93 -213
-330 -341 -528 -128 -198 -280 -432 -336 -520 -182 -282 -251 -385 -257 -385
-4 0 -79 111 -167 245 -88 135 -209 321 -270 413 -125 191 -268 409 -433 662
-63 96 -130 199 -149 228 l-35 52 -194 0 c-107 0 -194 -3 -194 -7z"/>
<path d="M3490 4145 l0 -935 195 0 195 0 0 935 0 935 -195 0 -195 0 0 -935z"/>
<path d="M8260 4145 l0 -935 195 0 195 0 0 935 0 935 -195 0 -195 0 0 -935z"/>
<path d="M1337 2490 c-110 -35 -132 -72 -132 -225 0 -135 13 -163 89 -196 47
-21 73 -23 320 -30 244 -6 270 -8 295 -26 35 -26 39 -68 10 -99 -22 -24 -24
-24 -234 -24 -199 0 -213 1 -233 20 -12 12 -22 32 -22 45 l0 25 -116 0 -117 0
5 -68 c7 -95 27 -128 96 -159 53 -25 65 -26 276 -31 273 -5 448 7 508 37 71
34 83 65 83 208 0 138 -9 159 -81 200 -51 29 -94 34 -383 41 -224 7 -244 8
-257 26 -25 35 -18 74 19 97 30 18 46 20 218 17 167 -3 189 -5 208 -22 12 -11
21 -27 21 -38 0 -16 10 -18 115 -18 l115 0 0 45 c0 58 -25 120 -59 144 -62 44
-119 51 -410 50 -241 0 -283 -2 -334 -19z"/>
<path d="M4436 2490 c-104 -33 -136 -87 -136 -227 0 -123 28 -175 107 -202 24
-8 135 -16 305 -21 222 -6 272 -10 293 -24 35 -23 42 -61 18 -94 l-20 -27
-216 -3 c-211 -2 -216 -2 -236 20 -12 12 -21 32 -21 45 0 23 -2 23 -115 23
l-115 0 0 -57 c0 -36 8 -75 20 -101 16 -36 29 -47 77 -70 l58 -27 310 0 c277
0 317 2 373 19 105 32 132 78 132 228 0 107 -24 162 -88 196 -50 28 -191 41
-442 42 -181 0 -203 7 -208 61 -2 26 3 40 19 55 19 17 37 19 219 19 181 0 200
-2 219 -19 12 -11 21 -27 21 -38 0 -16 10 -18 115 -18 l115 0 0 47 c0 54 -31
125 -64 146 -61 40 -120 47 -405 46 -241 0 -283 -2 -335 -19z"/>
<path d="M10700 2494 c-67 -18 -95 -36 -120 -76 -40 -66 -36 -263 7 -310 10
-12 38 -30 63 -41 40 -19 73 -21 310 -27 262 -7 301 -12 322 -44 15 -22 7 -63
-15 -84 -22 -21 -31 -22 -233 -22 -207 0 -211 0 -232 23 -12 13 -22 33 -22 45
0 21 -3 22 -116 22 l-117 0 6 -69 c7 -87 24 -120 75 -149 55 -31 152 -41 372
-41 373 0 464 20 503 108 23 52 27 176 8 247 -29 107 -129 133 -514 134 -190
0 -216 9 -217 73 0 20 8 32 33 47 28 18 50 20 197 20 197 0 238 -9 247 -51 l6
-29 113 0 114 0 0 50 c0 93 -37 142 -128 170 -58 18 -92 20 -336 19 -206 0
-284 -4 -326 -15z"/>
<path d="M2717 2477 c17 -21 85 -101 317 -372 l86 -100 0 -137 0 -138 115 0
115 0 0 135 0 135 113 133 c61 72 156 184 210 247 l99 115 -132 3 c-83 2 -137
-1 -145 -8 -7 -6 -66 -76 -131 -155 -65 -80 -123 -145 -129 -145 -5 1 -39 37
-75 81 -36 45 -75 93 -88 108 -12 14 -39 47 -60 73 l-37 47 -138 1 -138 0 18
-23z"/>
<path d="M5810 2410 l0 -90 165 0 165 0 0 -295 0 -295 115 0 115 0 0 295 0
295 169 0 170 0 -2 90 -2 90 -447 0 -448 0 0 -90z"/>
<path d="M7250 2115 l0 -385 430 0 430 0 0 90 0 90 -315 0 -315 0 0 65 0 65
290 0 290 0 0 80 0 80 -290 0 -290 0 0 65 0 65 310 0 310 0 0 85 0 85 -425 0
-425 0 0 -385z"/>
<path d="M8700 2115 l0 -385 110 0 110 0 0 283 c1 224 3 279 13 266 7 -9 79
-136 161 -283 l150 -266 85 0 86 0 103 185 c57 101 117 210 134 242 17 32 42
76 57 98 l26 40 3 -282 2 -283 110 0 110 0 0 385 0 385 -179 0 -179 0 -77
-142 c-163 -301 -190 -348 -199 -345 -9 3 -112 187 -217 390 l-51 97 -179 0
-179 0 0 -385z"/>
</g>
</svg>
