<svg version="1.1" id="Layer_1" xmlns="http://www.w3.org/2000/svg" xmlns:xlink="http://www.w3.org/1999/xlink" x="0px" y="0px"
	 width="100%" viewBox="0 0 1000 225" enable-background="new 0 0 1000 225" xml:space="preserve">
<path fill="#000000" opacity="1.000000" stroke="none" 
	d="
M618.000000,226.000000 
	C614.638733,226.000000 611.277405,226.000000 607.133484,225.652466 
	C606.718323,219.874191 606.699646,214.542465 603.321533,211.096130 
	C604.642151,208.333466 606.817322,205.824493 606.695374,203.432678 
	C606.585510,201.277893 604.306152,197.938309 602.373230,197.426361 
	C597.501770,196.136124 592.285950,196.145950 587.000000,195.613739 
	C587.000000,206.451355 587.000000,216.225677 587.000000,226.000000 
	C584.629456,226.000000 582.258850,226.000000 579.140869,225.635223 
	C579.132324,220.256134 579.871277,215.241852 580.601135,210.289124 
	C576.242004,210.289124 573.150513,210.289124 570.059082,210.289124 
	C569.924866,210.859421 569.790649,211.429718 569.656433,212.000015 
	C571.700012,212.522858 573.743591,213.045685 575.718750,213.551025 
	C575.718750,216.323639 575.718750,219.061035 575.718750,221.882919 
	C571.972351,221.882919 568.506287,221.882919 564.931641,221.589386 
	C563.920288,220.849792 563.017517,220.403748 562.057007,219.562332 
	C561.333923,215.385437 560.186584,211.610413 560.135376,207.820587 
	C560.081665,203.851288 562.396790,200.325363 566.287720,199.469315 
	C568.796814,198.917267 571.806580,200.271866 574.502869,201.072083 
	C576.225708,201.583405 577.785950,202.642426 579.419128,203.455887 
	C576.748779,195.363480 566.515930,193.588379 560.713379,198.728973 
	C555.604980,203.254669 555.586243,208.994324 556.090942,215.365753 
	C556.077698,216.039490 556.049194,216.413223 556.216492,216.646408 
	C558.461731,219.775711 560.734253,222.885422 563.000000,226.000000 
	C375.789978,226.000000 188.579941,226.000000 1.000000,226.000000 
	C1.000000,191.979996 1.000000,157.958664 1.408580,123.473785 
	C4.059961,129.031143 5.818316,135.289337 8.630958,141.031097 
	C19.726341,163.681305 38.312138,178.885101 59.773293,190.930740 
	C76.382881,200.253326 94.190956,206.812790 112.751709,210.797943 
	C126.041473,213.651382 139.613159,216.203247 153.138504,216.692245 
	C170.080338,217.304764 187.168533,216.358582 204.069519,214.767456 
	C216.043503,213.640152 228.026611,211.095108 239.630646,207.844284 
	C271.088287,199.031540 299.626556,184.935333 321.170959,159.315186 
	C331.002655,147.623596 338.050781,134.355820 339.839569,119.167175 
	C342.564453,96.030563 335.698425,75.417038 320.343170,57.912182 
	C302.235352,37.269436 279.282379,24.028477 253.637329,14.887875 
	C236.524414,8.788369 219.022812,4.736838 200.966049,2.921803 
	C200.253510,2.850179 199.652817,1.665865 199.000000,1.000001 
	C466.213257,1.000000 733.426514,1.000000 1001.000000,1.000000 
	C1001.000000,58.020390 1001.000000,115.041534 1000.704651,172.819046 
	C998.781738,171.392487 997.104187,169.244827 995.534851,167.020844 
	C986.788086,154.625336 978.173889,142.134186 969.267761,129.854568 
	C966.858276,126.532349 967.159790,124.111450 969.437622,120.959114 
	C978.658997,108.198082 987.673523,95.287582 997.069946,82.000000 
	C988.662781,82.000000 980.867737,82.214058 973.093567,81.904472 
	C969.516479,81.762039 967.702271,83.133942 965.914124,86.036903 
	C961.900085,92.553253 957.447815,98.799660 952.855835,105.629066 
	C951.689819,104.078972 950.788940,102.974968 949.988953,101.802177 
	C945.988647,95.937637 942.037842,90.039124 938.005920,84.196510 
	C937.419189,83.346268 936.498962,82.116547 935.716370,82.104080 
	C926.518982,81.957581 917.318359,82.010033 907.280334,82.010033 
	C917.104126,96.263359 926.398315,109.579659 935.412170,123.083138 
	C936.332092,124.461296 936.334351,127.434090 935.455200,128.862350 
	C931.491211,135.302231 927.051636,141.449097 922.792053,147.707397 
	C916.767395,156.559128 910.750305,165.416016 904.235840,174.997467 
	C913.878601,174.997467 922.491394,175.107513 931.095154,174.880142 
	C932.402039,174.845596 934.084595,173.521545 934.881409,172.321304 
	C938.789062,166.435028 942.393738,160.348679 946.234314,154.416458 
	C948.117554,151.507614 950.280884,148.780060 952.467773,145.762970 
	C958.198669,154.609024 963.645569,162.957306 969.021912,171.350800 
	C970.691345,173.957077 972.604065,175.251968 976.024292,175.111282 
	C984.337036,174.769318 992.673218,175.000000 1001.000000,175.000000 
	C1001.000000,183.020905 1001.000000,191.041809 1000.701660,199.819824 
	C995.947021,195.565826 990.355042,194.390274 984.556152,197.191879 
	C982.196106,198.332108 979.819763,201.402405 979.396667,203.921402 
	C979.097778,205.701309 981.649475,208.755844 983.685547,209.942535 
	C986.622925,211.654480 990.300842,212.043732 993.563538,213.262756 
	C997.577148,214.762253 998.066223,217.777466 994.935242,220.605377 
	C992.123657,223.144714 986.475037,222.402161 984.019104,219.471420 
	C982.940063,218.183685 981.195374,217.453796 979.752930,216.470627 
	C979.354431,216.906815 978.955933,217.343018 978.557495,217.779221 
	C980.038330,220.519485 981.519165,223.259735 983.000000,226.000000 
	C980.629456,226.000000 978.258850,226.000000 975.114502,225.637543 
	C975.690735,223.089645 975.333191,221.917557 972.512146,221.984756 
	C969.517090,222.056122 966.513306,221.883011 963.523621,222.028107 
	C959.520813,222.222366 960.005188,219.492767 959.993286,216.983276 
	C959.981201,214.446304 959.576660,211.758133 963.557068,211.971085 
	C966.379211,212.122070 969.221558,212.093262 972.042297,211.928665 
	C972.717102,211.889282 973.341614,210.989166 973.989258,210.484940 
	C973.331421,209.990738 972.702637,209.124084 972.010681,209.070328 
	C969.693848,208.890305 967.330078,208.786484 965.028931,209.047546 
	C961.048279,209.499176 959.830994,207.959320 959.877014,203.988754 
	C959.924561,199.898865 962.182678,200.147415 965.036804,199.909698 
	C968.369507,199.632172 972.240845,201.571762 976.013123,197.235428 
	C969.226379,194.974014 963.163086,196.485291 957.000000,195.942413 
	C957.000000,206.388229 957.000000,216.194107 957.000000,226.000000 
	C954.958313,226.000000 952.916687,226.000000 950.090576,225.616943 
	C949.306152,215.531662 949.306152,205.829468 949.306152,196.127258 
	C947.563110,196.606613 946.130005,197.789383 946.104126,199.002197 
	C945.912231,207.998108 946.000061,217.000000 946.000000,226.000000 
	C943.958313,226.000000 941.916687,226.000000 939.090576,225.616943 
	C938.306152,215.533127 938.306152,205.832382 938.306152,195.820984 
	C932.331299,197.285461 935.568054,202.212677 935.128723,205.444168 
	C934.589111,209.412888 935.000000,213.510834 935.000000,218.769913 
	C930.572083,211.565308 926.597778,205.600418 923.180176,199.332047 
	C921.402100,196.070923 919.270325,195.586853 916.000000,196.342056 
	C916.000000,206.400543 916.000000,216.200272 916.000000,226.000000 
	C914.933289,226.000000 913.866638,226.000000 912.098755,225.720947 
	C907.926331,216.249557 904.626587,206.986572 900.883850,197.906143 
	C899.695251,195.022308 897.098022,194.543640 895.634155,197.944702 
	C891.631836,207.242981 887.861938,216.641296 884.000000,226.000000 
	C879.310730,226.000000 874.621521,226.000000 869.120972,225.621887 
	C868.539673,224.151215 868.895569,223.067780 868.975464,221.964340 
	C869.190247,219.001801 868.217896,215.113449 869.745361,213.333038 
	C871.142029,211.704987 875.206116,212.440140 878.069519,211.977905 
	C882.292603,211.296158 884.808289,208.821335 884.964905,204.466888 
	C885.107910,200.492493 883.865295,197.390106 879.192810,196.972321 
	C874.887817,196.587418 870.591248,196.107330 866.000000,195.639511 
	C866.000000,206.380432 866.000000,216.190216 866.000000,226.000000 
	C863.958313,226.000000 861.916687,226.000000 859.090576,225.616943 
	C858.537476,216.989532 858.773743,208.745316 858.996643,200.500748 
	C859.056213,198.298355 859.271484,196.185013 855.980042,195.932556 
	C852.995544,195.703629 851.779236,196.764236 850.899475,199.622406 
	C848.989380,205.827484 846.570923,211.876053 843.869995,219.344467 
	C840.846619,210.850830 838.222351,203.478516 835.666931,196.299500 
	C833.320374,196.299500 831.253296,196.299500 829.000000,196.299500 
	C829.000000,206.398422 829.000000,216.199203 829.000000,226.000000 
	C824.975464,226.000000 820.950928,226.000000 816.175720,225.704285 
	C822.354431,221.203766 823.617920,214.635422 823.001099,207.274734 
	C822.484192,201.105667 818.487610,196.588913 813.004089,196.000854 
	C805.140381,195.157532 800.048279,197.992920 797.892944,204.415115 
	C795.166443,212.538849 797.146851,219.103943 803.872681,224.494278 
	C804.143433,224.711258 803.967651,225.485443 804.000000,226.000000 
	C798.977905,226.000000 793.955811,226.000000 788.178711,225.698853 
	C789.564819,223.044876 791.705872,220.692062 793.846924,218.339249 
	C793.305786,217.730698 792.764587,217.122162 792.223450,216.513611 
	C790.811096,217.505493 789.173401,218.288681 788.026978,219.526794 
	C783.932678,223.948456 777.461243,223.064209 776.180664,217.309952 
	C775.237244,213.070419 774.941467,208.086639 776.334167,204.130463 
	C777.324097,201.318466 781.606384,199.665512 784.371460,197.532135 
	C781.899109,194.972229 775.712646,196.375504 773.017334,200.819122 
	C768.783081,207.799728 770.437195,218.437317 776.560974,224.100861 
	C776.955505,224.465637 776.864929,225.354797 777.000000,226.000000 
	C765.979126,226.000000 754.958191,226.000000 743.122437,225.619522 
	C742.672058,220.880844 743.036499,216.522644 743.429260,211.825806 
	C747.365784,211.825806 751.135742,211.825806 754.905762,211.825806 
	C754.601196,210.195999 753.865845,209.212051 753.002747,209.083084 
	C751.209778,208.815216 749.332458,208.842514 747.519836,209.033661 
	C743.999390,209.404938 742.558533,207.958725 742.983398,204.467529 
	C743.155518,203.053360 743.142578,201.616669 743.231506,199.837997 
	C747.678711,199.837997 751.777954,199.837997 757.588806,199.837997 
	C755.761536,197.878830 754.928223,196.180069 754.004456,196.129395 
	C749.085510,195.859543 744.143982,196.002350 739.000000,196.002350 
	C739.000000,206.376724 739.000000,216.188370 739.000000,226.000000 
	C734.975464,226.000000 730.950928,226.000000 726.175781,225.704895 
	C732.099792,221.316849 733.695679,215.142822 733.067322,207.775879 
	C732.628845,202.634933 730.787354,198.147507 725.907349,196.676117 
	C721.214172,195.261017 715.972412,194.596359 711.668091,198.789276 
	C704.640686,205.634674 705.529419,218.238190 713.533752,224.144485 
	C713.929871,224.436798 713.855347,225.366898 714.000000,226.000000 
	C701.979126,226.000000 689.958191,226.000000 677.122498,225.619537 
	C676.672485,220.885040 677.037354,216.531021 677.417053,211.999908 
	C680.046631,211.999908 682.524841,212.055145 684.999634,211.987564 
	C689.179871,211.873413 692.929321,208.920975 692.844910,204.968262 
	C692.768311,201.376846 691.384399,197.732513 687.106934,197.046021 
	C682.530518,196.311554 677.871521,196.091095 673.000000,195.622360 
	C673.000000,206.404526 673.000000,216.202255 673.000000,226.000000 
	C669.307068,226.000000 665.614197,226.000000 661.175293,225.722366 
	C661.105896,222.896637 666.189392,222.226334 663.573975,218.059174 
	C662.273743,218.957535 661.186646,220.280243 659.933655,220.462463 
	C656.738464,220.927155 653.083191,221.824066 650.366150,220.709518 
	C648.569336,219.972458 647.356201,216.115005 647.146545,213.551147 
	C646.677795,207.818115 647.000000,202.020386 647.000000,195.913712 
	C645.340393,196.115677 644.168274,196.258316 643.000000,196.400497 
	C643.000000,201.476044 643.130554,206.129562 642.966858,210.772690 
	C642.763733,216.532944 643.193604,221.894073 649.189331,224.889511 
	C649.286804,224.938202 649.070068,225.615860 649.000000,226.000000 
	C643.311951,226.000000 637.623962,226.000000 631.179443,225.702347 
	C636.836975,220.539246 637.976074,214.033401 637.143616,206.404968 
	C636.582642,201.264450 633.869934,197.679016 629.721130,196.552765 
	C625.078857,195.292526 619.463440,194.312347 615.537842,199.018585 
	C609.556458,206.189529 610.198425,215.022461 614.781738,222.230240 
	C615.659546,223.610809 616.917419,224.749649 618.000000,226.000000 
M640.000000,154.499802 
	C640.000000,140.168640 640.218079,125.832695 639.904236,111.508408 
	C639.756409,104.761551 638.349670,98.217102 634.763123,92.135635 
	C626.922852,78.841629 603.309265,75.307030 590.397217,83.233704 
	C585.875305,86.009659 581.882996,89.648392 577.337280,93.131905 
	C571.220520,82.704437 561.386230,78.799843 549.856628,79.096924 
	C538.504456,79.389435 529.254150,84.442734 521.888794,94.265907 
	C521.888794,89.748093 521.888794,86.016083 521.888794,82.245247 
	C513.777710,82.245247 506.038574,82.245247 498.244629,82.245247 
	C498.244629,113.226311 498.244629,143.961517 498.244629,174.752319 
	C506.562561,174.752319 514.633545,174.752319 523.000000,174.752319 
	C523.000000,156.375015 522.851868,138.242004 523.079590,120.113708 
	C523.160217,113.695534 524.838379,107.670761 530.220703,103.212456 
	C537.419373,97.249641 551.692627,98.136246 554.431885,107.968674 
	C555.204895,110.743439 555.910339,113.650787 555.931641,116.502678 
	C556.066528,134.498886 555.994812,152.496597 556.009888,170.493805 
	C556.011047,171.930054 556.152100,173.366150 556.238647,175.000000 
	C563.215210,175.000000 569.873413,174.732376 576.497437,175.093414 
	C580.967285,175.337036 582.152466,173.813324 582.096008,169.445786 
	C581.865540,151.618179 581.968018,133.785782 582.012756,115.955315 
	C582.037048,106.262611 590.112793,98.432938 599.357849,99.002632 
	C608.063477,99.539078 613.965515,105.930458 613.989014,114.991646 
	C614.028870,130.322510 614.000000,145.653549 614.000000,160.984512 
	C614.000000,165.586929 614.000000,170.189346 614.000000,174.714249 
	C622.973999,174.714249 631.379517,174.714249 640.000000,174.714249 
	C640.000000,168.119919 640.000000,161.809738 640.000000,154.499802 
M474.000000,103.702225 
	C474.834778,98.950142 472.698181,97.831429 468.155273,97.897255 
	C450.669128,98.150642 433.177063,97.992737 415.687225,98.008408 
	C413.276398,98.010567 410.924072,98.263748 410.969299,94.638878 
	C411.070496,86.532158 411.000977,78.423302 411.000977,69.963135 
	C432.552155,69.963135 453.638489,69.963135 474.612762,69.963135 
	C476.133392,61.868366 477.585022,54.140873 479.052429,46.329609 
	C446.878632,46.329609 415.005432,46.329609 383.307678,46.329609 
	C383.307678,89.381187 383.307678,132.102661 383.307678,174.748886 
	C415.703033,174.748886 447.790131,174.748886 480.422028,174.748886 
	C478.886353,166.674789 477.415619,158.942078 475.888306,150.912079 
	C454.169983,150.912079 432.752716,150.912079 411.224609,150.912079 
	C411.224609,140.478134 411.224609,130.410416 411.224609,120.000000 
	C427.232147,120.000000 443.017761,120.047089 458.802826,119.971474 
	C463.577698,119.948608 470.360657,121.391861 472.596466,118.903870 
	C475.165588,116.044945 473.708344,109.567741 474.000000,103.702225 
M853.738525,177.960098 
	C856.817505,177.640060 859.891174,177.250534 862.976501,177.012314 
	C874.988525,176.084808 885.468689,171.342072 893.045105,162.194153 
	C904.658569,148.171829 906.337280,131.511459 902.588989,114.282829 
	C899.535339,100.246681 891.618591,89.537811 878.173767,83.710342 
	C865.375000,78.162910 852.280090,77.598557 838.868286,81.923019 
	C824.732300,86.480965 815.708191,95.684143 810.902222,109.685852 
	C807.278809,120.242355 806.843750,130.937134 809.160645,141.528656 
	C812.059204,154.779297 818.652344,166.151779 831.698669,171.759918 
	C838.376221,174.630356 845.859558,175.626236 853.738525,177.960098 
M779.512817,175.000000 
	C784.275635,175.000000 789.038452,175.000000 792.999023,175.000000 
	C792.999023,151.378708 793.433533,128.326202 792.762207,105.305923 
	C792.528748,97.299309 789.106689,89.716354 781.564819,84.921349 
	C771.629150,78.604454 761.014465,77.567337 749.933044,80.608177 
	C742.555359,82.632652 736.433289,86.851715 731.017456,94.389030 
	C731.017456,89.300255 731.017456,85.771912 731.017456,82.255066 
	C722.414612,82.255066 714.346924,82.255066 706.229919,82.255066 
	C706.229919,113.229378 706.229919,143.948090 706.229919,174.773926 
	C714.861084,174.773926 723.260925,174.773926 732.000000,174.773926 
	C732.000000,156.937851 731.613892,139.314316 732.133667,121.717545 
	C732.489319,109.680191 735.372925,101.958664 749.330017,99.227570 
	C755.138672,98.090958 764.160156,102.206085 765.806702,107.731026 
	C766.991699,111.707542 767.847595,115.937737 767.904175,120.067734 
	C768.134399,136.882614 767.994385,153.702484 768.010132,170.520508 
	C768.011475,171.953674 768.155701,173.386719 768.243347,175.000000 
	C771.898499,175.000000 775.209167,175.000000 779.512817,175.000000 
M686.000000,116.500000 
	C686.000000,105.070427 686.000000,93.640862 686.000000,82.288925 
	C677.351990,82.288925 669.279846,82.288925 661.286316,82.288925 
	C661.286316,113.312912 661.286316,144.047134 661.286316,174.711121 
	C669.647888,174.711121 677.720093,174.711121 686.000000,174.711121 
	C686.000000,155.448669 686.000000,136.474335 686.000000,116.500000 
M685.942200,66.268364 
	C685.942200,59.646355 685.942200,53.024342 685.942200,46.204391 
	C677.544434,46.204391 669.473633,46.204391 661.201294,46.204391 
	C661.201294,53.128452 661.201294,59.866093 661.201294,66.943787 
	C669.344971,66.943787 677.298279,66.943787 685.942200,66.268364 
M665.872314,213.621368 
	C665.872314,207.817139 665.872314,202.012924 665.872314,196.208694 
	C665.490906,195.962601 665.109558,195.716507 664.728149,195.470398 
	C663.819885,196.596878 662.200684,197.679337 662.127747,198.857544 
	C661.829651,203.670563 661.870728,208.517914 662.054016,213.342468 
	C662.166626,216.306808 663.536133,216.297745 665.872314,213.621368 
z"/>
<path fill="#FFFFFF" opacity="1.000000" stroke="none" 
	d="
M198.531342,1.000001 
	C199.652817,1.665865 200.253510,2.850179 200.966049,2.921803 
	C219.022812,4.736838 236.524414,8.788369 253.637329,14.887875 
	C279.282379,24.028477 302.235352,37.269436 320.343170,57.912182 
	C335.698425,75.417038 342.564453,96.030563 339.839569,119.167175 
	C338.050781,134.355820 331.002655,147.623596 321.170959,159.315186 
	C299.626556,184.935333 271.088287,199.031540 239.630646,207.844284 
	C228.026611,211.095108 216.043503,213.640152 204.069519,214.767456 
	C187.168533,216.358582 170.080338,217.304764 153.138504,216.692245 
	C139.613159,216.203247 126.041473,213.651382 112.751709,210.797943 
	C94.190956,206.812790 76.382881,200.253326 59.773293,190.930740 
	C38.312138,178.885101 19.726341,163.681305 8.630958,141.031097 
	C5.818316,135.289337 4.059961,129.031143 1.408580,123.005127 
	C1.000000,113.979103 1.000000,104.958214 1.405085,95.463898 
	C2.206312,94.415543 2.753092,93.893173 2.974930,93.257416 
	C4.869474,87.827873 5.990873,81.989021 8.700393,77.011147 
	C15.235518,65.004959 23.343500,54.270248 33.992550,45.242443 
	C49.088760,32.444515 65.982048,23.003960 84.282440,16.137506 
	C102.558006,9.280373 121.413292,4.315827 141.038940,2.919237 
	C141.734619,2.869730 142.348175,1.665860 143.000000,1.000001 
	C161.354233,1.000000 179.708450,1.000000 198.531342,1.000001 
M261.954865,185.556534 
	C272.989380,178.334671 283.700317,170.873398 292.217712,160.452515 
	C305.922272,143.685211 314.027802,125.402023 312.117218,103.156555 
	C310.598206,85.469971 303.452484,70.564209 291.953461,57.522278 
	C278.707947,42.499512 262.484253,31.695005 244.037582,23.940208 
	C225.709824,16.235405 206.614395,11.571789 186.920929,10.219726 
	C174.584991,9.372797 162.027527,9.940715 149.706772,11.208366 
	C138.022141,12.410568 126.205528,14.328864 114.995338,17.736361 
	C89.957901,25.346844 67.430855,37.387173 49.750359,57.557499 
	C37.802952,71.187370 30.598337,86.646500 29.120014,104.536354 
	C28.073822,117.196823 30.911268,129.443863 36.449574,140.869110 
	C47.097977,162.836243 64.886086,177.753143 85.939491,188.905273 
	C112.352531,202.896439 141.013977,208.204498 170.633835,208.934326 
	C175.874420,209.063461 181.160660,208.547806 186.382614,207.951431 
	C194.940582,206.974060 203.554245,206.137558 211.981552,204.435364 
	C229.371643,200.922775 245.761673,194.506622 261.954865,185.556534 
z"/>
<path fill="#FFFFFF" opacity="1.000000" stroke="none" 
	d="
M1001.000000,174.666672 
	C992.673218,175.000000 984.337036,174.769318 976.024292,175.111282 
	C972.604065,175.251968 970.691345,173.957077 969.021912,171.350800 
	C963.645569,162.957306 958.198669,154.609024 952.467773,145.762970 
	C950.280884,148.780060 948.117554,151.507614 946.234314,154.416458 
	C942.393738,160.348679 938.789062,166.435028 934.881409,172.321304 
	C934.084595,173.521545 932.402039,174.845596 931.095154,174.880142 
	C922.491394,175.107513 913.878601,174.997467 904.235840,174.997467 
	C910.750305,165.416016 916.767395,156.559128 922.792053,147.707397 
	C927.051636,141.449097 931.491211,135.302231 935.455200,128.862350 
	C936.334351,127.434090 936.332092,124.461296 935.412170,123.083138 
	C926.398315,109.579659 917.104126,96.263359 907.280334,82.010033 
	C917.318359,82.010033 926.518982,81.957581 935.716370,82.104080 
	C936.498962,82.116547 937.419189,83.346268 938.005920,84.196510 
	C942.037842,90.039124 945.988647,95.937637 949.988953,101.802177 
	C950.788940,102.974968 951.689819,104.078972 952.855835,105.629066 
	C957.447815,98.799660 961.900085,92.553253 965.914124,86.036903 
	C967.702271,83.133942 969.516479,81.762039 973.093567,81.904472 
	C980.867737,82.214058 988.662781,82.000000 997.069946,82.000000 
	C987.673523,95.287582 978.658997,108.198082 969.437622,120.959114 
	C967.159790,124.111450 966.858276,126.532349 969.267761,129.854568 
	C978.173889,142.134186 986.788086,154.625336 995.534851,167.020844 
	C997.104187,169.244827 998.781738,171.392487 1000.704651,173.287704 
	C1001.000000,173.444443 1001.000000,173.888901 1001.000000,174.666672 
z"/>
<path fill="#000000" opacity="1.000000" stroke="none" 
	d="
M142.531342,1.000001 
	C142.348175,1.665860 141.734619,2.869730 141.038940,2.919237 
	C121.413292,4.315827 102.558006,9.280373 84.282440,16.137506 
	C65.982048,23.003960 49.088760,32.444515 33.992550,45.242443 
	C23.343500,54.270248 15.235518,65.004959 8.700393,77.011147 
	C5.990873,81.989021 4.869474,87.827873 2.974930,93.257416 
	C2.753092,93.893173 2.206312,94.415543 1.405085,94.995239 
	C1.000000,63.724850 1.000000,32.449696 1.000000,1.000000 
	C48.020752,1.000000 95.041718,1.000000 142.531342,1.000001 
z"/>
<path fill="#FFFFFF" opacity="1.000000" stroke="none" 
	d="
M829.399963,226.000000 
	C829.000000,216.199203 829.000000,206.398422 829.000000,196.299500 
	C831.253296,196.299500 833.320374,196.299500 835.666931,196.299500 
	C838.222351,203.478516 840.846619,210.850830 843.869995,219.344467 
	C846.570923,211.876053 848.989380,205.827484 850.899475,199.622406 
	C851.779236,196.764236 852.995544,195.703629 855.980042,195.932556 
	C859.271484,196.185013 859.056213,198.298355 858.996643,200.500748 
	C858.773743,208.745316 858.537476,216.989532 858.653076,225.616943 
	C857.933289,226.000000 856.866638,226.000000 855.746887,225.616943 
	C855.344116,217.332321 854.994324,209.430725 854.605347,200.642654 
	C853.416992,203.525024 852.398254,205.607864 851.688721,207.791168 
	C849.723511,213.838379 847.887207,219.927460 846.000000,226.000000 
	C844.611084,226.000000 843.222229,226.000000 841.730347,225.673889 
	C839.216614,218.539093 836.805786,211.730423 834.394958,204.921738 
	C833.929993,204.971375 833.464966,205.020996 833.000000,205.070618 
	C833.000000,212.047089 833.000000,219.023544 833.000000,226.000000 
	C831.933289,226.000000 830.866638,226.000000 829.399963,226.000000 
z"/>
<path fill="#FFFFFF" opacity="1.000000" stroke="none" 
	d="
M916.399963,226.000000 
	C916.000000,216.200272 916.000000,206.400543 916.000000,196.342056 
	C919.270325,195.586853 921.402100,196.070923 923.180176,199.332047 
	C926.597778,205.600418 930.572083,211.565308 935.000000,218.769913 
	C935.000000,213.510834 934.589111,209.412888 935.128723,205.444168 
	C935.568054,202.212677 932.331299,197.285461 938.306152,195.820984 
	C938.306152,205.832382 938.306152,215.533127 938.653076,225.616943 
	C937.611084,226.000000 936.222229,226.000000 934.706299,225.703003 
	C929.845276,217.721405 925.111267,210.036835 920.000000,201.739761 
	C920.000000,206.527481 920.000000,210.516022 920.000000,214.504562 
	C920.000000,218.336380 920.000000,222.168182 920.000000,226.000000 
	C918.933289,226.000000 917.866638,226.000000 916.399963,226.000000 
z"/>
<path fill="#FFFFFF" opacity="1.000000" stroke="none" 
	d="
M618.463196,226.000000 
	C616.917419,224.749649 615.659546,223.610809 614.781738,222.230240 
	C610.198425,215.022461 609.556458,206.189529 615.537842,199.018585 
	C619.463440,194.312347 625.078857,195.292526 629.721130,196.552765 
	C633.869934,197.679016 636.582642,201.264450 637.143616,206.404968 
	C637.976074,214.033401 636.836975,220.539246 630.711548,225.702347 
	C626.975464,226.000000 622.950928,226.000000 618.463196,226.000000 
M625.361877,199.000107 
	C622.914612,199.937332 619.578735,200.179672 618.195312,201.948822 
	C614.754272,206.349152 615.240967,211.941025 616.720581,216.918808 
	C617.338440,218.997406 620.283142,221.408066 622.495972,221.792892 
	C628.615540,222.857101 631.782959,220.426453 632.939392,215.101196 
	C634.685425,207.061264 632.234375,201.212570 625.361877,199.000107 
z"/>
<path fill="#FFFFFF" opacity="1.000000" stroke="none" 
	d="
M983.469727,226.000000 
	C981.519165,223.259735 980.038330,220.519485 978.557495,217.779221 
	C978.955933,217.343018 979.354431,216.906815 979.752930,216.470627 
	C981.195374,217.453796 982.940063,218.183685 984.019104,219.471420 
	C986.475037,222.402161 992.123657,223.144714 994.935242,220.605377 
	C998.066223,217.777466 997.577148,214.762253 993.563538,213.262756 
	C990.300842,212.043732 986.622925,211.654480 983.685547,209.942535 
	C981.649475,208.755844 979.097778,205.701309 979.396667,203.921402 
	C979.819763,201.402405 982.196106,198.332108 984.556152,197.191879 
	C990.355042,194.390274 995.947021,195.565826 1000.701660,200.288452 
	C1001.000000,200.750000 1001.000000,201.500000 1000.668274,202.307587 
	C998.609131,202.086273 996.437683,202.364029 995.246033,201.413452 
	C992.704407,199.386124 990.349182,197.991226 987.330017,200.003372 
	C986.075745,200.839249 984.127747,202.194672 984.223022,203.139633 
	C984.376526,204.662003 985.653748,206.789566 986.998474,207.342377 
	C991.536865,209.208099 996.314087,210.493027 1001.000000,212.000000 
	C1001.000000,216.601578 1001.000000,221.203140 1001.000000,226.000000 
	C995.314148,226.000000 989.626770,226.000000 983.469727,226.000000 
z"/>
<path fill="#FFFFFF" opacity="1.000000" stroke="none" 
	d="
M714.460632,226.000000 
	C713.855347,225.366898 713.929871,224.436798 713.533752,224.144485 
	C705.529419,218.238190 704.640686,205.634674 711.668091,198.789276 
	C715.972412,194.596359 721.214172,195.261017 725.907349,196.676117 
	C730.787354,198.147507 732.628845,202.634933 733.067322,207.775879 
	C733.695679,215.142822 732.099792,221.316849 725.712585,225.704895 
	C722.307068,226.000000 718.614197,226.000000 714.460632,226.000000 
M728.791443,205.270630 
	C727.155701,201.172531 724.298950,198.259552 719.756592,199.179398 
	C717.280518,199.680801 714.319458,201.509872 713.082092,203.621887 
	C710.601501,207.855911 710.803833,212.703522 712.817261,217.318924 
	C714.076721,220.206039 715.822571,222.148087 719.409546,222.066788 
	C723.032715,221.984634 726.633850,221.802536 727.622131,217.667740 
	C728.517639,213.921204 728.564697,209.971893 728.791443,205.270630 
z"/>
<path fill="#FFFFFF" opacity="1.000000" stroke="none" 
	d="
M804.460632,226.000000 
	C803.967651,225.485443 804.143433,224.711258 803.872681,224.494278 
	C797.146851,219.103943 795.166443,212.538849 797.892944,204.415115 
	C800.048279,197.992920 805.140381,195.157532 813.004089,196.000854 
	C818.487610,196.588913 822.484192,201.105667 823.001099,207.274734 
	C823.617920,214.635422 822.354431,221.203766 815.712524,225.704285 
	C812.307068,226.000000 808.614197,226.000000 804.460632,226.000000 
M801.000000,209.641296 
	C801.003784,210.964844 800.658325,212.412186 801.075623,213.589111 
	C802.416626,217.371445 803.076477,221.620056 808.605164,222.108322 
	C812.811035,222.479767 815.757690,220.817154 817.688354,217.646271 
	C820.241333,213.453186 819.405518,204.152908 816.071045,201.813095 
	C813.776855,200.203293 810.285889,198.828033 807.750488,199.358490 
	C803.318298,200.285812 801.060730,204.043411 801.000000,209.641296 
z"/>
<path fill="#FFFFFF" opacity="1.000000" stroke="none" 
	d="
M587.399963,226.000000 
	C587.000000,216.225677 587.000000,206.451355 587.000000,195.613739 
	C592.285950,196.145950 597.501770,196.136124 602.373230,197.426361 
	C604.306152,197.938309 606.585510,201.277893 606.695374,203.432678 
	C606.817322,205.824493 604.642151,208.333466 603.321533,211.096130 
	C606.699646,214.542465 606.718323,219.874191 606.675415,225.652466 
	C605.933289,226.000000 604.866638,226.000000 603.720215,225.655090 
	C603.094482,223.631500 602.287537,221.989365 602.046631,220.267990 
	C600.861206,211.799408 599.828186,211.016266 591.000000,212.615601 
	C591.000000,217.047638 591.000000,221.523819 591.000000,226.000000 
	C589.933289,226.000000 588.866638,226.000000 587.399963,226.000000 
M599.419067,208.093582 
	C603.451843,207.153229 602.440247,202.231262 601.743225,201.915131 
	C598.586182,200.483414 594.938965,200.132431 591.235291,199.342697 
	C591.235291,203.249954 591.235291,205.993423 591.235291,209.073578 
	C593.924377,208.947464 596.367859,208.832855 599.419067,208.093582 
z"/>
<path fill="#FFFFFF" opacity="1.000000" stroke="none" 
	d="
M884.399902,226.000000 
	C887.861938,216.641296 891.631836,207.242981 895.634155,197.944702 
	C897.098022,194.543640 899.695251,195.022308 900.883850,197.906143 
	C904.626587,206.986572 907.926331,216.249557 911.698792,225.720947 
	C910.611084,226.000000 909.222229,226.000000 907.723877,225.678925 
	C906.480774,222.940536 905.792114,218.889954 904.123596,218.435303 
	C900.281128,217.388245 895.684998,217.229797 891.951294,218.435135 
	C890.021240,219.058167 889.278931,223.360168 888.000000,226.000000 
	C886.933289,226.000000 885.866638,226.000000 884.399902,226.000000 
M896.474426,204.018127 
	C895.297668,207.214523 894.120972,210.410919 892.845398,213.875854 
	C896.438049,213.875854 899.516235,213.875854 902.785645,213.875854 
	C901.474792,210.114761 900.235718,206.514816 898.889038,202.955582 
	C898.855591,202.867340 897.631653,203.229538 896.474426,204.018127 
z"/>
<path fill="#FFFFFF" opacity="1.000000" stroke="none" 
	d="
M957.467957,226.000000 
	C957.000000,216.194107 957.000000,206.388229 957.000000,195.942413 
	C963.163086,196.485291 969.226379,194.974014 976.013123,197.235428 
	C972.240845,201.571762 968.369507,199.632172 965.036804,199.909698 
	C962.182678,200.147415 959.924561,199.898865 959.877014,203.988754 
	C959.830994,207.959320 961.048279,209.499176 965.028931,209.047546 
	C967.330078,208.786484 969.693848,208.890305 972.010681,209.070328 
	C972.702637,209.124084 973.331421,209.990738 973.989258,210.484940 
	C973.341614,210.989166 972.717102,211.889282 972.042297,211.928665 
	C969.221558,212.093262 966.379211,212.122070 963.557068,211.971085 
	C959.576660,211.758133 959.981201,214.446304 959.993286,216.983276 
	C960.005188,219.492767 959.520813,222.222366 963.523621,222.028107 
	C966.513306,221.883011 969.517090,222.056122 972.512146,221.984756 
	C975.333191,221.917557 975.690735,223.089645 974.670349,225.637543 
	C969.311951,226.000000 963.623962,226.000000 957.467957,226.000000 
z"/>
<path fill="#FFFFFF" opacity="1.000000" stroke="none" 
	d="
M673.399963,226.000000 
	C673.000000,216.202255 673.000000,206.404526 673.000000,195.622360 
	C677.871521,196.091095 682.530518,196.311554 687.106934,197.046021 
	C691.384399,197.732513 692.768311,201.376846 692.844910,204.968262 
	C692.929321,208.920975 689.179871,211.873413 684.999634,211.987564 
	C682.524841,212.055145 680.046631,211.999908 677.417053,211.999908 
	C677.037354,216.531021 676.672485,220.885040 676.653809,225.619537 
	C675.933289,226.000000 674.866638,226.000000 673.399963,226.000000 
M677.000244,202.615143 
	C677.000244,204.705887 677.000244,206.796631 677.000244,208.855667 
	C684.774719,209.138168 687.608337,208.418625 687.867676,205.765320 
	C688.040771,203.993668 687.137268,200.537064 686.723206,200.538239 
	C683.482422,200.547379 680.243408,201.210907 677.000244,202.615143 
z"/>
<path fill="#FFFFFF" opacity="1.000000" stroke="none" 
	d="
M866.375000,226.000000 
	C866.000000,216.190216 866.000000,206.380432 866.000000,195.639511 
	C870.591248,196.107330 874.887817,196.587418 879.192810,196.972321 
	C883.865295,197.390106 885.107910,200.492493 884.964905,204.466888 
	C884.808289,208.821335 882.292603,211.296158 878.069519,211.977905 
	C875.206116,212.440140 871.142029,211.704987 869.745361,213.333038 
	C868.217896,215.113449 869.190247,219.001801 868.975464,221.964340 
	C868.895569,223.067780 868.539673,224.151215 868.654785,225.621887 
	C868.250000,226.000000 867.500000,226.000000 866.375000,226.000000 
M880.997437,204.424805 
	C879.545654,199.430527 877.901917,198.897629 868.146179,200.780212 
	C869.129639,203.586792 869.477600,208.034164 871.141785,208.598190 
	C874.442139,209.716827 879.031799,210.203186 880.997437,204.424805 
z"/>
<path fill="#FFFFFF" opacity="1.000000" stroke="none" 
	d="
M739.399963,226.000000 
	C739.000000,216.188370 739.000000,206.376724 739.000000,196.002350 
	C744.143982,196.002350 749.085510,195.859543 754.004456,196.129395 
	C754.928223,196.180069 755.761536,197.878830 757.588806,199.837997 
	C751.777954,199.837997 747.678711,199.837997 743.231506,199.837997 
	C743.142578,201.616669 743.155518,203.053360 742.983398,204.467529 
	C742.558533,207.958725 743.999390,209.404938 747.519836,209.033661 
	C749.332458,208.842514 751.209778,208.815216 753.002747,209.083084 
	C753.865845,209.212051 754.601196,210.195999 754.905762,211.825806 
	C751.135742,211.825806 747.365784,211.825806 743.429260,211.825806 
	C743.036499,216.522644 742.672058,220.880844 742.653809,225.619522 
	C741.933289,226.000000 740.866638,226.000000 739.399963,226.000000 
z"/>
<path fill="#FFFFFF" opacity="1.000000" stroke="none" 
	d="
M777.458069,226.000000 
	C776.864929,225.354797 776.955505,224.465637 776.560974,224.100861 
	C770.437195,218.437317 768.783081,207.799728 773.017334,200.819122 
	C775.712646,196.375504 781.899109,194.972229 784.371460,197.532135 
	C781.606384,199.665512 777.324097,201.318466 776.334167,204.130463 
	C774.941467,208.086639 775.237244,213.070419 776.180664,217.309952 
	C777.461243,223.064209 783.932678,223.948456 788.026978,219.526794 
	C789.173401,218.288681 790.811096,217.505493 792.223450,216.513611 
	C792.764587,217.122162 793.305786,217.730698 793.846924,218.339249 
	C791.705872,220.692062 789.564819,223.044876 787.711914,225.698853 
	C784.638733,226.000000 781.277405,226.000000 777.458069,226.000000 
z"/>
<path fill="#000000" opacity="1.000000" stroke="none" 
	d="
M920.464661,226.000000 
	C920.000000,222.168182 920.000000,218.336380 920.000000,214.504562 
	C920.000000,210.516022 920.000000,206.527481 920.000000,201.739761 
	C925.111267,210.036835 929.845276,217.721405 934.289612,225.703003 
	C929.643127,226.000000 925.286194,226.000000 920.464661,226.000000 
z"/>
<path fill="#FFFFFF" opacity="1.000000" stroke="none" 
	d="
M649.460632,226.000000 
	C649.070068,225.615860 649.286804,224.938202 649.189331,224.889511 
	C643.193604,221.894073 642.763733,216.532944 642.966858,210.772690 
	C643.130554,206.129562 643.000000,201.476044 643.000000,196.400497 
	C644.168274,196.258316 645.340393,196.115677 647.000000,195.913712 
	C647.000000,202.020386 646.677795,207.818115 647.146545,213.551147 
	C647.356201,216.115005 648.569336,219.972458 650.366150,220.709518 
	C653.083191,221.824066 656.738464,220.927155 659.933655,220.462463 
	C661.186646,220.280243 662.273743,218.957535 663.573975,218.059174 
	C666.189392,222.226334 661.105896,222.896637 660.714722,225.722366 
	C657.307068,226.000000 653.614197,226.000000 649.460632,226.000000 
z"/>
<path fill="#000000" opacity="1.000000" stroke="none" 
	d="
M591.460632,226.000000 
	C591.000000,221.523819 591.000000,217.047638 591.000000,212.615601 
	C599.828186,211.016266 600.861206,211.799408 602.046631,220.267990 
	C602.287537,221.989365 603.094482,223.631500 603.320251,225.655090 
	C599.307068,226.000000 595.614197,226.000000 591.460632,226.000000 
z"/>
<path fill="#000000" opacity="1.000000" stroke="none" 
	d="
M1001.000000,211.550018 
	C996.314087,210.493027 991.536865,209.208099 986.998474,207.342377 
	C985.653748,206.789566 984.376526,204.662003 984.223022,203.139633 
	C984.127747,202.194672 986.075745,200.839249 987.330017,200.003372 
	C990.349182,197.991226 992.704407,199.386124 995.246033,201.413452 
	C996.437683,202.364029 998.609131,202.086273 1000.668274,202.682587 
	C1001.000000,205.700012 1001.000000,208.400024 1001.000000,211.550018 
z"/>
<path fill="#000000" opacity="1.000000" stroke="none" 
	d="
M888.468262,226.000000 
	C889.278931,223.360168 890.021240,219.058167 891.951294,218.435135 
	C895.684998,217.229797 900.281128,217.388245 904.123596,218.435303 
	C905.792114,218.889954 906.480774,222.940536 907.307251,225.678925 
	C900.978821,226.000000 894.957703,226.000000 888.468262,226.000000 
z"/>
<path fill="#000000" opacity="1.000000" stroke="none" 
	d="
M846.449951,226.000000 
	C847.887207,219.927460 849.723511,213.838379 851.688721,207.791168 
	C852.398254,205.607864 853.416992,203.525024 854.605347,200.642654 
	C854.994324,209.430725 855.344116,217.332321 855.346924,225.616943 
	C852.299988,226.000000 849.599976,226.000000 846.449951,226.000000 
z"/>
<path fill="#FFFFFF" opacity="1.000000" stroke="none" 
	d="
M565.040161,221.882919 
	C568.506287,221.882919 571.972351,221.882919 575.718750,221.882919 
	C575.718750,219.061035 575.718750,216.323639 575.718750,213.551025 
	C573.743591,213.045685 571.700012,212.522858 569.656433,212.000015 
	C569.790649,211.429718 569.924866,210.859421 570.059082,210.289124 
	C573.150513,210.289124 576.242004,210.289124 580.601135,210.289124 
	C579.871277,215.241852 579.132324,220.256134 578.696655,225.635223 
	C574.643127,226.000000 570.286194,226.000000 565.465088,225.588257 
	C565.013977,224.078644 565.027100,222.980789 565.040161,221.882919 
z"/>
<path fill="#FFFFFF" opacity="1.000000" stroke="none" 
	d="
M946.399963,226.000000 
	C946.000061,217.000000 945.912231,207.998108 946.104126,199.002197 
	C946.130005,197.789383 947.563110,196.606613 949.306152,196.127258 
	C949.306152,205.829468 949.306152,215.531662 949.653076,225.616943 
	C948.933289,226.000000 947.866638,226.000000 946.399963,226.000000 
z"/>
<path fill="#000000" opacity="1.000000" stroke="none" 
	d="
M833.444153,226.000000 
	C833.000000,219.023544 833.000000,212.047089 833.000000,205.070618 
	C833.464966,205.020996 833.929993,204.971375 834.394958,204.921738 
	C836.805786,211.730423 839.216614,218.539093 841.313721,225.673889 
	C838.629456,226.000000 836.258850,226.000000 833.444153,226.000000 
z"/>
<path fill="#FFFFFF" opacity="1.000000" stroke="none" 
	d="
M564.931641,221.589386 
	C565.027100,222.980789 565.013977,224.078644 565.000427,225.588257 
	C564.555542,226.000000 564.111084,226.000000 563.333313,226.000000 
	C560.734253,222.885422 558.461731,219.775711 556.216492,216.646408 
	C556.049194,216.413223 556.077698,216.039490 556.437073,215.414429 
	C558.610901,216.717712 560.362793,218.337708 562.114685,219.957703 
	C563.017517,220.403748 563.920288,220.849792 564.931641,221.589386 
z"/>
<path fill="#FFFFFF" opacity="1.000000" stroke="none" 
	d="
M640.000000,154.999695 
	C640.000000,161.809738 640.000000,168.119919 640.000000,174.714249 
	C631.379517,174.714249 622.973999,174.714249 614.000000,174.714249 
	C614.000000,170.189346 614.000000,165.586929 614.000000,160.984512 
	C614.000000,145.653549 614.028870,130.322510 613.989014,114.991646 
	C613.965515,105.930458 608.063477,99.539078 599.357849,99.002632 
	C590.112793,98.432938 582.037048,106.262611 582.012756,115.955315 
	C581.968018,133.785782 581.865540,151.618179 582.096008,169.445786 
	C582.152466,173.813324 580.967285,175.337036 576.497437,175.093414 
	C569.873413,174.732376 563.215210,175.000000 556.238647,175.000000 
	C556.152100,173.366150 556.011047,171.930054 556.009888,170.493805 
	C555.994812,152.496597 556.066528,134.498886 555.931641,116.502678 
	C555.910339,113.650787 555.204895,110.743439 554.431885,107.968674 
	C551.692627,98.136246 537.419373,97.249641 530.220703,103.212456 
	C524.838379,107.670761 523.160217,113.695534 523.079590,120.113708 
	C522.851868,138.242004 523.000000,156.375015 523.000000,174.752319 
	C514.633545,174.752319 506.562561,174.752319 498.244629,174.752319 
	C498.244629,143.961517 498.244629,113.226311 498.244629,82.245247 
	C506.038574,82.245247 513.777710,82.245247 521.888794,82.245247 
	C521.888794,86.016083 521.888794,89.748093 521.888794,94.265907 
	C529.254150,84.442734 538.504456,79.389435 549.856628,79.096924 
	C561.386230,78.799843 571.220520,82.704437 577.337280,93.131905 
	C581.882996,89.648392 585.875305,86.009659 590.397217,83.233704 
	C603.309265,75.307030 626.922852,78.841629 634.763123,92.135635 
	C638.349670,98.217102 639.756409,104.761551 639.904236,111.508408 
	C640.218079,125.832695 640.000000,140.168640 640.000000,154.999695 
z"/>
<path fill="#FFFFFF" opacity="1.000000" stroke="none" 
	d="
M474.000000,104.182213 
	C473.708344,109.567741 475.165588,116.044945 472.596466,118.903870 
	C470.360657,121.391861 463.577698,119.948608 458.802826,119.971474 
	C443.017761,120.047089 427.232147,120.000000 411.224609,120.000000 
	C411.224609,130.410416 411.224609,140.478134 411.224609,150.912079 
	C432.752716,150.912079 454.169983,150.912079 475.888306,150.912079 
	C477.415619,158.942078 478.886353,166.674789 480.422028,174.748886 
	C447.790131,174.748886 415.703033,174.748886 383.307678,174.748886 
	C383.307678,132.102661 383.307678,89.381187 383.307678,46.329609 
	C415.005432,46.329609 446.878632,46.329609 479.052429,46.329609 
	C477.585022,54.140873 476.133392,61.868366 474.612762,69.963135 
	C453.638489,69.963135 432.552155,69.963135 411.000977,69.963135 
	C411.000977,78.423302 411.070496,86.532158 410.969299,94.638878 
	C410.924072,98.263748 413.276398,98.010567 415.687225,98.008408 
	C433.177063,97.992737 450.669128,98.150642 468.155273,97.897255 
	C472.698181,97.831429 474.834778,98.950142 474.000000,104.182213 
z"/>
<path fill="#FFFFFF" opacity="1.000000" stroke="none" 
	d="
M853.358643,177.714722 
	C845.859558,175.626236 838.376221,174.630356 831.698669,171.759918 
	C818.652344,166.151779 812.059204,154.779297 809.160645,141.528656 
	C806.843750,130.937134 807.278809,120.242355 810.902222,109.685852 
	C815.708191,95.684143 824.732300,86.480965 838.868286,81.923019 
	C852.280090,77.598557 865.375000,78.162910 878.173767,83.710342 
	C891.618591,89.537811 899.535339,100.246681 902.588989,114.282829 
	C906.337280,131.511459 904.658569,148.171829 893.045105,162.194153 
	C885.468689,171.342072 874.988525,176.084808 862.976501,177.012314 
	C859.891174,177.250534 856.817505,177.640060 853.358643,177.714722 
M876.975525,142.127838 
	C879.261597,133.171173 879.410767,124.256447 877.031128,115.243233 
	C874.655396,106.244774 867.530151,99.521233 859.946960,98.945267 
	C846.067017,97.891045 838.540344,102.469086 836.057251,113.670998 
	C834.310364,121.551743 833.726990,129.963440 834.368408,137.998795 
	C834.757324,142.869568 837.571533,148.253433 840.859131,152.055023 
	C851.158081,163.964081 871.359802,158.557327 876.975525,142.127838 
z"/>
<path fill="#FFFFFF" opacity="1.000000" stroke="none" 
	d="
M779.016296,175.000000 
	C775.209167,175.000000 771.898499,175.000000 768.243347,175.000000 
	C768.155701,173.386719 768.011475,171.953674 768.010132,170.520508 
	C767.994385,153.702484 768.134399,136.882614 767.904175,120.067734 
	C767.847595,115.937737 766.991699,111.707542 765.806702,107.731026 
	C764.160156,102.206085 755.138672,98.090958 749.330017,99.227570 
	C735.372925,101.958664 732.489319,109.680191 732.133667,121.717545 
	C731.613892,139.314316 732.000000,156.937851 732.000000,174.773926 
	C723.260925,174.773926 714.861084,174.773926 706.229919,174.773926 
	C706.229919,143.948090 706.229919,113.229378 706.229919,82.255066 
	C714.346924,82.255066 722.414612,82.255066 731.017456,82.255066 
	C731.017456,85.771912 731.017456,89.300255 731.017456,94.389030 
	C736.433289,86.851715 742.555359,82.632652 749.933044,80.608177 
	C761.014465,77.567337 771.629150,78.604454 781.564819,84.921349 
	C789.106689,89.716354 792.528748,97.299309 792.762207,105.305923 
	C793.433533,128.326202 792.999023,151.378708 792.999023,175.000000 
	C789.038452,175.000000 784.275635,175.000000 779.016296,175.000000 
z"/>
<path fill="#FFFFFF" opacity="1.000000" stroke="none" 
	d="
M686.000000,117.000000 
	C686.000000,136.474335 686.000000,155.448669 686.000000,174.711121 
	C677.720093,174.711121 669.647888,174.711121 661.286316,174.711121 
	C661.286316,144.047134 661.286316,113.312912 661.286316,82.288925 
	C669.279846,82.288925 677.351990,82.288925 686.000000,82.288925 
	C686.000000,93.640862 686.000000,105.070427 686.000000,117.000000 
z"/>
<path fill="#FFFFFF" opacity="1.000000" stroke="none" 
	d="
M685.596924,66.606079 
	C677.298279,66.943787 669.344971,66.943787 661.201294,66.943787 
	C661.201294,59.866093 661.201294,53.128452 661.201294,46.204391 
	C669.473633,46.204391 677.544434,46.204391 685.942200,46.204391 
	C685.942200,53.024342 685.942200,59.646355 685.596924,66.606079 
z"/>
<path fill="#FFFFFF" opacity="1.000000" stroke="none" 
	d="
M562.057007,219.562332 
	C560.362793,218.337708 558.610901,216.717712 556.512817,215.049057 
	C555.586243,208.994324 555.604980,203.254669 560.713379,198.728973 
	C566.515930,193.588379 576.748779,195.363480 579.419128,203.455887 
	C577.785950,202.642426 576.225708,201.583405 574.502869,201.072083 
	C571.806580,200.271866 568.796814,198.917267 566.287720,199.469315 
	C562.396790,200.325363 560.081665,203.851288 560.135376,207.820587 
	C560.186584,211.610413 561.333923,215.385437 562.057007,219.562332 
z"/>
<path fill="#FFFFFF" opacity="1.000000" stroke="none" 
	d="
M665.555908,213.905991 
	C663.536133,216.297745 662.166626,216.306808 662.054016,213.342468 
	C661.870728,208.517914 661.829651,203.670563 662.127747,198.857544 
	C662.200684,197.679337 663.819885,196.596878 664.728149,195.470398 
	C665.109558,195.716507 665.490906,195.962601 665.872314,196.208694 
	C665.872314,202.012924 665.872314,207.817139 665.555908,213.905991 
z"/>
<path fill="#000000" opacity="1.000000" stroke="none" 
	d="
M261.635254,185.763428 
	C245.761673,194.506622 229.371643,200.922775 211.981552,204.435364 
	C203.554245,206.137558 194.940582,206.974060 186.382614,207.951431 
	C181.160660,208.547806 175.874420,209.063461 170.633835,208.934326 
	C141.013977,208.204498 112.352531,202.896439 85.939491,188.905273 
	C64.886086,177.753143 47.097977,162.836243 36.449574,140.869110 
	C30.911268,129.443863 28.073822,117.196823 29.120014,104.536354 
	C30.598337,86.646500 37.802952,71.187370 49.750359,57.557499 
	C67.430855,37.387173 89.957901,25.346844 114.995338,17.736361 
	C126.205528,14.328864 138.022141,12.410568 149.706772,11.208366 
	C162.027527,9.940715 174.584991,9.372797 186.920929,10.219726 
	C206.614395,11.571789 225.709824,16.235405 244.037582,23.940208 
	C262.484253,31.695005 278.707947,42.499512 291.953461,57.522278 
	C303.452484,70.564209 310.598206,85.469971 312.117218,103.156555 
	C314.027802,125.402023 305.922272,143.685211 292.217712,160.452515 
	C283.700317,170.873398 272.989380,178.334671 261.635254,185.763428 
M191.310959,101.174866 
	C189.169479,102.768806 187.028000,104.362747 184.261108,106.194504 
	C182.840942,107.185234 181.420792,108.175957 179.340881,109.150009 
	C175.964752,112.009476 177.534622,113.307259 181.161850,114.701248 
	C185.071472,117.149857 188.981110,119.598465 193.185745,122.706200 
	C201.412155,127.747711 209.638550,132.789215 218.599487,138.280869 
	C218.599487,119.587334 218.599487,101.911797 218.599487,83.216156 
	C216.395935,84.658913 214.641235,85.807793 212.261108,87.194511 
	C210.840958,88.185234 209.420792,89.175957 207.335144,90.154671 
	C206.185593,91.088676 205.036041,92.022682 203.261093,93.194519 
	C201.840942,94.185242 200.420792,95.175964 198.395309,96.107864 
	C197.892380,96.724144 197.389450,97.340424 196.261093,98.194519 
	C194.840942,99.185242 193.420776,100.175964 191.310959,101.174866 
M165.000000,153.500000 
	C165.000000,112.076836 165.000000,70.653671 165.000000,29.280024 
	C142.369125,29.280024 120.299911,29.280024 98.195175,29.280024 
	C98.110481,30.031536 98.009567,30.509199 98.009491,30.986879 
	C98.001450,82.476707 98.041374,133.966629 97.921600,185.456192 
	C97.912247,189.477890 99.571053,190.083862 103.007118,190.058334 
	C120.169449,189.930832 137.333237,190.000000 154.496521,190.000000 
	C157.933624,190.000000 161.370728,190.000000 165.000000,190.000000 
	C165.000000,177.784744 165.000000,166.142365 165.000000,153.500000 
M243.000000,44.501621 
	C243.000000,39.076363 243.000000,33.651100 243.000000,28.402023 
	C221.325180,28.402023 200.205811,28.402023 179.839478,28.402023 
	C200.903000,49.459278 222.137741,70.687675 243.000000,91.543716 
	C243.000000,76.751549 243.000000,61.126396 243.000000,44.501621 
M225.000061,146.500061 
	C211.055954,160.424301 197.111832,174.348541 182.754318,188.685593 
	C203.252930,188.685593 223.045120,188.685593 242.474228,188.685593 
	C242.474228,169.388077 242.474228,150.407532 242.474228,131.427002 
	C242.003220,131.103714 241.532211,130.780441 241.061218,130.457169 
	C235.874146,135.638107 230.687073,140.819061 225.000061,146.500061 
z"/>
<path fill="#000000" opacity="1.000000" stroke="none" 
	d="
M625.777100,199.000732 
	C632.234375,201.212570 634.685425,207.061264 632.939392,215.101196 
	C631.782959,220.426453 628.615540,222.857101 622.495972,221.792892 
	C620.283142,221.408066 617.338440,218.997406 616.720581,216.918808 
	C615.240967,211.941025 614.754272,206.349152 618.195312,201.948822 
	C619.578735,200.179672 622.914612,199.937332 625.777100,199.000732 
z"/>
<path fill="#000000" opacity="1.000000" stroke="none" 
	d="
M728.888672,205.691315 
	C728.564697,209.971893 728.517639,213.921204 727.622131,217.667740 
	C726.633850,221.802536 723.032715,221.984634 719.409546,222.066788 
	C715.822571,222.148087 714.076721,220.206039 712.817261,217.318924 
	C710.803833,212.703522 710.601501,207.855911 713.082092,203.621887 
	C714.319458,201.509872 717.280518,199.680801 719.756592,199.179398 
	C724.298950,198.259552 727.155701,201.172531 728.888672,205.691315 
z"/>
<path fill="#000000" opacity="1.000000" stroke="none" 
	d="
M801.000000,209.205505 
	C801.060730,204.043411 803.318298,200.285812 807.750488,199.358490 
	C810.285889,198.828033 813.776855,200.203293 816.071045,201.813095 
	C819.405518,204.152908 820.241333,213.453186 817.688354,217.646271 
	C815.757690,220.817154 812.811035,222.479767 808.605164,222.108322 
	C803.076477,221.620056 802.416626,217.371445 801.075623,213.589111 
	C800.658325,212.412186 801.003784,210.964844 801.000000,209.205505 
z"/>
<path fill="#000000" opacity="1.000000" stroke="none" 
	d="
M599.115173,208.405914 
	C596.367859,208.832855 593.924377,208.947464 591.235291,209.073578 
	C591.235291,205.993423 591.235291,203.249954 591.235291,199.342697 
	C594.938965,200.132431 598.586182,200.483414 601.743225,201.915131 
	C602.440247,202.231262 603.451843,207.153229 599.115173,208.405914 
z"/>
<path fill="#000000" opacity="1.000000" stroke="none" 
	d="
M896.718750,203.699890 
	C897.631653,203.229538 898.855591,202.867340 898.889038,202.955582 
	C900.235718,206.514816 901.474792,210.114761 902.785645,213.875854 
	C899.516235,213.875854 896.438049,213.875854 892.845398,213.875854 
	C894.120972,210.410919 895.297668,207.214523 896.718750,203.699890 
z"/>
<path fill="#000000" opacity="1.000000" stroke="none" 
	d="
M677.002075,202.143845 
	C680.243408,201.210907 683.482422,200.547379 686.723206,200.538239 
	C687.137268,200.537064 688.040771,203.993668 687.867676,205.765320 
	C687.608337,208.418625 684.774719,209.138168 677.000244,208.855667 
	C677.000244,206.796631 677.000244,204.705887 677.002075,202.143845 
z"/>
<path fill="#000000" opacity="1.000000" stroke="none" 
	d="
M880.981445,204.841675 
	C879.031799,210.203186 874.442139,209.716827 871.141785,208.598190 
	C869.477600,208.034164 869.129639,203.586792 868.146179,200.780212 
	C877.901917,198.897629 879.545654,199.430527 880.981445,204.841675 
z"/>
<path fill="#000000" opacity="1.000000" stroke="none" 
	d="
M876.805176,142.508728 
	C871.359802,158.557327 851.158081,163.964081 840.859131,152.055023 
	C837.571533,148.253433 834.757324,142.869568 834.368408,137.998795 
	C833.726990,129.963440 834.310364,121.551743 836.057251,113.670998 
	C838.540344,102.469086 846.067017,97.891045 859.946960,98.945267 
	C867.530151,99.521233 874.655396,106.244774 877.031128,115.243233 
	C879.410767,124.256447 879.261597,133.171173 876.805176,142.508728 
z"/>
<path fill="#FFFFFF" opacity="1.000000" stroke="none" 
	d="
M165.000000,154.000000 
	C165.000000,166.142365 165.000000,177.784744 165.000000,190.000000 
	C161.370728,190.000000 157.933624,190.000000 154.496521,190.000000 
	C137.333237,190.000000 120.169449,189.930832 103.007118,190.058334 
	C99.571053,190.083862 97.912247,189.477890 97.921600,185.456192 
	C98.041374,133.966629 98.001450,82.476707 98.009491,30.986879 
	C98.009567,30.509199 98.110481,30.031536 98.195175,29.280024 
	C120.299911,29.280024 142.369125,29.280024 165.000000,29.280024 
	C165.000000,70.653671 165.000000,112.076836 165.000000,154.000000 
z"/>
<path fill="#FFFFFF" opacity="1.000000" stroke="none" 
	d="
M243.000000,45.001431 
	C243.000000,61.126396 243.000000,76.751549 243.000000,91.543716 
	C222.137741,70.687675 200.903000,49.459278 179.839478,28.402023 
	C200.205811,28.402023 221.325180,28.402023 243.000000,28.402023 
	C243.000000,33.651100 243.000000,39.076363 243.000000,45.001431 
z"/>
<path fill="#FFFFFF" opacity="1.000000" stroke="none" 
	d="
M225.250031,146.250031 
	C230.687073,140.819061 235.874146,135.638107 241.061218,130.457169 
	C241.532211,130.780441 242.003220,131.103714 242.474228,131.427002 
	C242.474228,150.407532 242.474228,169.388077 242.474228,188.685593 
	C223.045120,188.685593 203.252930,188.685593 182.754318,188.685593 
	C197.111832,174.348541 211.055954,160.424301 225.250031,146.250031 
z"/>
<path fill="#FFFFFF" opacity="1.000000" stroke="none" 
	d="
M184.886520,105.956688 
	C187.028000,104.362747 189.169479,102.768806 191.730988,101.511566 
	C193.687607,101.795418 195.341232,102.044937 196.695358,101.520790 
	C197.150711,101.344536 196.844589,99.201042 196.886505,97.956696 
	C197.389450,97.340424 197.892380,96.724144 198.773163,96.478058 
	C200.687607,96.795418 202.341232,97.044930 203.695374,96.520775 
	C204.150711,96.344536 203.844589,94.201042 203.886505,92.956680 
	C205.036041,92.022682 206.185593,91.088676 207.743088,90.501465 
	C209.687607,90.795418 211.341217,91.044914 212.695374,90.520782 
	C213.150711,90.344536 212.844604,88.201042 212.886520,86.956680 
	C214.641235,85.807793 216.395935,84.658913 218.599487,83.216156 
	C218.599487,101.911797 218.599487,119.587334 218.599487,138.280869 
	C209.638550,132.789215 201.412155,127.747711 193.319489,122.169449 
	C193.133301,117.020264 186.004410,112.714828 180.885712,114.042633 
	C177.534622,113.307259 175.964752,112.009476 179.745956,109.499130 
	C181.687607,109.795418 183.341217,110.044922 184.695374,109.520790 
	C185.150711,109.344551 184.844604,107.201042 184.886520,105.956688 
z"/>
<path fill="#FFFFFF" opacity="1.000000" stroke="none" 
	d="
M181.023773,114.371941 
	C186.004410,112.714828 193.133301,117.020264 193.171982,121.839882 
	C188.981110,119.598465 185.071472,117.149857 181.023773,114.371941 
z"/>
<path fill="#FFFFFF" opacity="1.000000" stroke="none" 
	d="
M212.573822,87.075600 
	C212.844604,88.201042 213.150711,90.344536 212.695374,90.520782 
	C211.341217,91.044914 209.687607,90.795418 208.075836,90.507469 
	C209.420792,89.175957 210.840958,88.185234 212.573822,87.075600 
z"/>
<path fill="#FFFFFF" opacity="1.000000" stroke="none" 
	d="
M203.573792,93.075607 
	C203.844589,94.201042 204.150711,96.344536 203.695374,96.520775 
	C202.341232,97.044930 200.687607,96.795418 199.075836,96.507469 
	C200.420792,95.175964 201.840942,94.185242 203.573792,93.075607 
z"/>
<path fill="#FFFFFF" opacity="1.000000" stroke="none" 
	d="
M196.573792,98.075607 
	C196.844589,99.201042 197.150711,101.344536 196.695358,101.520790 
	C195.341232,102.044937 193.687607,101.795418 192.075836,101.507469 
	C193.420776,100.175964 194.840942,99.185242 196.573792,98.075607 
z"/>
<path fill="#FFFFFF" opacity="1.000000" stroke="none" 
	d="
M184.573822,106.075592 
	C184.844604,107.201042 185.150711,109.344551 184.695374,109.520790 
	C183.341217,110.044922 181.687607,109.795418 180.075836,109.507462 
	C181.420792,108.175957 182.840942,107.185234 184.573822,106.075592 
z"/>
</svg>