<?xml version="1.0" encoding="UTF-8"?>
<svg version="1.1" xmlns="http://www.w3.org/2000/svg" width="150" height="40">
<path d="M0 0 C2.59003131 1.20401455 4.89178397 2.40373411 7.3125 3.875 C7.94478516 4.23980469 8.57707031 4.60460937 9.22851562 4.98046875 C13.8534147 7.70682941 13.8534147 7.70682941 15 10 C15.16796875 11.875 15.16796875 11.875 15.1875 14 C15.20167969 14.70125 15.21585938 15.4025 15.23046875 16.125 C15 18 15 18 13 20 C13.66 20 14.32 20 15 20 C15.2969634 22.92014009 15.48500826 25.14857782 15 28 C12.9384558 30.34013125 11.59398624 31.42773683 9 33 C8.12988281 33.56332031 7.25976562 34.12664063 6.36328125 34.70703125 C-1.09534149 39.21476641 -1.09534149 39.21476641 -4.9453125 38.30078125 C-5.95335937 37.87152344 -6.96140625 37.44226562 -8 37 C-9.58941406 36.52820312 -9.58941406 36.52820312 -11.2109375 36.046875 C-15.12162943 34.44397411 -17.26717986 33.27504636 -20 30 C-21.56492489 22.83377186 -20.72238618 15.23960611 -20 8 C-17.80040031 6.65010869 -15.592162 5.3204828 -13.375 4 C-12.75753906 3.6184375 -12.14007812 3.236875 -11.50390625 2.84375 C-7.53608962 0.50482651 -4.71654887 -0.77481768 0 0 Z M-11 13 C-8.87878343 15.33333823 -6.98405635 16.9148886 -4 18 C-0.50482863 17.66175761 2.0828301 15.86374744 5 14 C-0.25104714 7.5820535 -4.93467071 8.87557609 -11 13 Z M-12 14 C-12 17.3 -12 20.6 -12 24 C-11.67 24 -11.34 24 -11 24 C-11 20.7 -11 17.4 -11 14 C-11.33 14 -11.66 14 -12 14 Z M8 21 C7.01 22.485 7.01 22.485 6 24 C7.32 23.34 8.64 22.68 10 22 C9.34 21.67 8.68 21.34 8 21 Z M-11 24 C-10.67 24.66 -10.34 25.32 -10 26 C-9.34 25.67 -8.68 25.34 -8 25 C-8.99 24.67 -9.98 24.34 -11 24 Z M3 24 C2.67 24.66 2.34 25.32 2 26 C2.99 25.67 3.98 25.34 5 25 C4.34 24.67 3.68 24.34 3 24 Z M-6 27 C-5.67 27.66 -5.34 28.32 -5 29 C-3.35 28.67 -1.7 28.34 0 28 C-2.07553648 27.4465236 -3.84365964 27 -6 27 Z " fill="#FDC300" transform="translate(20,0)"/>
<path d="M0 0 C2.95403841 2.57692712 4.62389927 4.16606118 5.41015625 8 C5.60435338 12.45809053 4.82358765 15.57135785 2 19 C-1.41928194 21.56446145 -4.8501922 21.29641484 -9 21 C-12.45202322 19.84932559 -14.30322311 18.22387609 -16 15 C-16.24493747 12.27963064 -16.13708782 9.74175634 -16 7 C-17.65 7 -19.3 7 -21 7 C-21.33 11.29 -21.66 15.58 -22 20 C-24.64 20 -27.28 20 -30 20 C-30 13.4 -30 6.8 -30 0 C-25.38 0 -20.76 0 -16 0 C-15.67 1.32 -15.34 2.64 -15 4 C-14.4225 3.360625 -13.845 2.72125 -13.25 2.0625 C-9.0802432 -1.75977707 -5.39465337 -1.41964562 0 0 Z M-8 6 C-8.38063221 8.3260857 -8.71269945 10.66055264 -9 13 C-7.9404123 14.28322547 -7.9404123 14.28322547 -5.5 14.125 C-3.0595877 14.28322547 -3.0595877 14.28322547 -2 13 C-1.83333333 10 -1.83333333 10 -2 7 C-3.06645115 5.70366379 -3.06645115 5.70366379 -5.5625 5.9375 C-6.366875 5.958125 -7.17125 5.97875 -8 6 Z " fill="#FDC300" transform="translate(124,13)"/>
<path d="M0 0 C6.27 0 12.54 0 19 0 C19 2.31 19 4.62 19 7 C15.37 7 11.74 7 8 7 C8 8.32 8 9.64 8 11 C11.3 11 14.6 11 18 11 C18 12.98 18 14.96 18 17 C14.7 17 11.4 17 8 17 C8 18.65 8 20.3 8 22 C11.63 22 15.26 22 19 22 C19 23.98 19 25.96 19 28 C12.73 28 6.46 28 0 28 C0 18.76 0 9.52 0 0 Z " fill="#FDC300" transform="translate(42,5)"/>
<path d="M0 0 C4.1146875 -0.0928125 4.1146875 -0.0928125 8.3125 -0.1875 C9.60281128 -0.22846802 9.60281128 -0.22846802 10.91918945 -0.27026367 C11.60198975 -0.27775635 12.28479004 -0.28524902 12.98828125 -0.29296875 C14.03302612 -0.31653442 14.03302612 -0.31653442 15.09887695 -0.34057617 C17.60599514 0.10856083 18.44373684 1.01969641 20 3 C21.61974625 7.85923876 21.77843501 12.20959948 19.75 16.875 C17.83127681 19.20487816 16.9048909 20.19308586 14 21 C10.25 20.625 10.25 20.625 7 20 C7.020625 20.969375 7.04125 21.93875 7.0625 22.9375 C7 26 7 26 6 27 C4.02 27 2.04 27 0 27 C0 18.09 0 9.18 0 0 Z M8 6 C6.80161791 8.32854463 6.80161791 8.32854463 6 11 C6.99 12.485 6.99 12.485 8 14 C10.54207971 14.33343551 10.54207971 14.33343551 13 14 C14.34404775 12.88163776 14.34404775 12.88163776 14.125 10 C14.34404775 7.11836224 14.34404775 7.11836224 13 6 C11.33382885 5.95936168 9.66611905 5.957279 8 6 Z " fill="#FDC300" transform="translate(63,13)"/>
<path d="M0 0 C1.5625 1.75 1.5625 1.75 1.8125 4.4375 C1.73 5.200625 1.6475 5.96375 1.5625 6.75 C-2.26975427 6.83912219 -5.70312152 6.62867729 -9.4375 5.75 C-9.7675 7.4 -10.0975 9.05 -10.4375 10.75 C-8.08382287 11.4378236 -8.08382287 11.4378236 -5.4375 11.75 C-4.4475 11.09 -3.4575 10.43 -2.4375 9.75 C-1.1175 10.41 0.2025 11.07 1.5625 11.75 C1.375 14.0625 1.375 14.0625 0.5625 16.75 C-2.0922021 18.94961031 -3.96854835 19.68015614 -7.375 20.1875 C-12.08742484 19.51429645 -15.12850767 17.05899233 -18.4375 13.75 C-19.00656904 10.36553676 -18.96490673 7.13818871 -18.4375 3.75 C-16.3242755 0.87366665 -14.77552112 -0.62559015 -11.5625 -2.125 C-7.38596844 -2.37067833 -3.73803454 -1.91694079 0 0 Z " fill="#FDC300" transform="translate(148.4375,14.25)"/>
<path d="M0 0 C1.98 0 3.96 0 6 0 C6 6.6 6 13.2 6 20 C3.69 20 1.38 20 -1 20 C-1.02888514 16.85418577 -1.04675923 13.70840531 -1.0625 10.5625 C-1.07087891 9.66466797 -1.07925781 8.76683594 -1.08789062 7.84179688 C-1.09111328 6.98779297 -1.09433594 6.13378906 -1.09765625 5.25390625 C-1.10551147 4.06776733 -1.10551147 4.06776733 -1.11352539 2.85766602 C-1 1 -1 1 0 0 Z " fill="#FDC300" transform="translate(86,13)"/>
<path d="M0 0 C2.625 1.4375 2.625 1.4375 5 3 C4.67 4.65 4.34 6.3 4 8 C2.1875 8.625 2.1875 8.625 0 9 C-0.99 8.34 -1.98 7.68 -3 7 C-2.625 4.0625 -2.625 4.0625 -2 1 C-1.34 0.67 -0.68 0.34 0 0 Z " fill="#FDC300" transform="translate(88,3)"/>
<path d="" fill="#FDC300" transform="translate(0,0)"/>
<path d="" fill="#FDC300" transform="translate(0,0)"/>
</svg>
