<?xml version="1.0" encoding="UTF-8"?>
<svg version="1.1" xmlns="http://www.w3.org/2000/svg" width="330" height="133">
<path d="M0 0 C4.62 0 9.24 0 14 0 C17.16132728 7.41696015 19.62908714 14.95809849 21.98095703 22.66137695 C22.2282959 23.46534912 22.47563477 24.26932129 22.73046875 25.09765625 C22.95114014 25.82476807 23.17181152 26.55187988 23.39916992 27.30102539 C23.86620728 29.00983819 23.86620728 29.00983819 25 30 C28.63 20.1 32.26 10.2 36 0 C40.62 0 45.24 0 50 0 C50.92232422 2.49433594 50.92232422 2.49433594 51.86328125 5.0390625 C52.67951151 7.23444044 53.49592752 9.42974933 54.3125 11.625 C54.91868164 13.26662109 54.91868164 13.26662109 55.53710938 14.94140625 C55.93349609 16.00488281 56.32988281 17.06835938 56.73828125 18.1640625 C57.09962158 19.13811035 57.46096191 20.1121582 57.83325195 21.11572266 C59.05985952 24.14797664 60.53718556 27.07437113 62 30 C65.3 20.1 68.6 10.2 72 0 C76.95 0 81.9 0 87 0 C84.44015728 10.0687147 81.14358884 19.87350384 77.84716797 29.71923828 C76.86624087 32.65118059 75.89183604 35.58523739 74.91796875 38.51953125 C74.29726036 40.38033692 73.67618041 42.2410187 73.0546875 44.1015625 C72.76302704 44.98059235 72.47136658 45.85962219 72.17086792 46.76528931 C71.76507004 47.97322647 71.76507004 47.97322647 71.35107422 49.20556641 C71.11363495 49.91629303 70.87619568 50.62701965 70.63156128 51.35928345 C70 53 70 53 69 54 C66.64686445 54.07271741 64.29166332 54.08370868 61.9375 54.0625 C60.64714844 54.05347656 59.35679688 54.04445312 58.02734375 54.03515625 C57.02832031 54.02355469 56.02929688 54.01195312 55 54 C53.4270566 49.92730877 51.86066424 45.85217757 50.30029297 41.7746582 C49.76855937 40.38790087 49.23504198 39.00182615 48.69970703 37.61645508 C47.93051643 35.62497922 47.16777516 33.63113631 46.40625 31.63671875 C45.94541016 30.43748779 45.48457031 29.23825684 45.00976562 28.00268555 C44 25 44 25 44 22 C43.34 22 42.68 22 42 22 C41.88213135 22.86061035 41.7642627 23.7212207 41.64282227 24.60791016 C40.99065088 28.04933408 39.98933087 31.01462234 38.71484375 34.2734375 C38.26689453 35.42714844 37.81894531 36.58085938 37.35742188 37.76953125 C36.88884766 38.95933594 36.42027344 40.14914063 35.9375 41.375 C35.46505859 42.58800781 34.99261719 43.80101562 34.50585938 45.05078125 C33.34238234 48.03586373 32.1718754 51.01820452 31 54 C26.38 54 21.76 54 17 54 C13.17583648 44.96967328 10.16842058 35.69605501 7.14404297 26.37548828 C6.24471599 23.60874394 5.33549045 20.84537681 4.42578125 18.08203125 C3.85096037 16.31790442 3.27672054 14.55358812 2.703125 12.7890625 C2.29540863 11.55465927 2.29540863 11.55465927 1.87945557 10.2953186 C1.63209656 9.52706757 1.38473755 8.75881653 1.12988281 7.96728516 C0.91100403 7.29573395 0.69212524 6.62418274 0.46661377 5.93228149 C-0 4 -0 4 0 0 Z " fill="#341954" transform="translate(0,39)"/>
<path d="M0 0 C7.89095737 4.49645244 11.82514852 10.71983126 14.3125 19.3125 C15.41005457 28.53195839 14.25730467 36.31025079 9.1171875 44.2734375 C4.39663553 50.17961648 -0.81833692 53.42064252 -8.37109375 54.27734375 C-16.08793415 54.51819395 -20.95112827 53.22008115 -27.375 48.9375 C-27.705 59.1675 -28.035 69.3975 -28.375 79.9375 C-32.995 79.9375 -37.615 79.9375 -42.375 79.9375 C-42.375 53.2075 -42.375 26.4775 -42.375 -1.0625 C-37.755 -1.0625 -33.135 -1.0625 -28.375 -1.0625 C-28.045 0.5875 -27.715 2.2375 -27.375 3.9375 C-26.653125 3.31875 -25.93125 2.7 -25.1875 2.0625 C-17.74027349 -3.56429336 -8.40637624 -3.86617001 0 0 Z M-24.375 14.9375 C-27.32715107 18.17666576 -28.60507963 21.58503396 -28.875 25.9375 C-28.57036136 31.34746213 -26.26105569 35.21786099 -22.25 38.875 C-17.89019825 40.48623108 -13.95148614 40.82856039 -9.375 39.9375 C-5.12618031 37.5329482 -2.23319666 34.46142739 -0.375 29.9375 C0.14077245 24.69381341 -0.09362241 20.96772146 -2.96875 16.48046875 C-5.5384057 13.66098541 -8.76558225 12.07249269 -12.375 10.9375 C-17.31254262 10.9375 -20.34513174 12.13806282 -24.375 14.9375 Z " fill="#341954" transform="translate(164.375,40.0625)"/>
<path d="M0 0 C7.01257703 4.25270772 11.41747266 10.46069673 13.76953125 18.26953125 C15.20982859 25.41666712 14.62876898 32.86177221 11.18359375 39.32421875 C6.20146643 46.44004195 0.84672576 51.56684054 -7.81640625 53.32421875 C-17.9371753 54.49583487 -25.67469384 52.71968921 -34.12890625 47.13671875 C-41.28854893 39.64406944 -43.18133019 32.05562171 -43.09765625 21.91015625 C-42.59132664 15.45445376 -39.95968832 9.54751419 -35.53125 4.7421875 C-25.2492298 -3.75980187 -12.15987268 -5.69058081 0 0 Z M-26.62890625 17.07421875 C-28.78568337 21.16074381 -29.47246215 25.0608259 -28.19140625 29.48046875 C-26.0620789 34.2359665 -23.67166034 37.12561313 -18.81640625 39.32421875 C-14.06780002 40.14264999 -10.76928559 39.80065842 -6.44140625 37.63671875 C-3.02289444 34.62517263 -1.12680214 32.61195142 -0.5 27.9921875 C-0.23426973 22.27470066 -0.84793473 18.72171422 -4.81640625 14.32421875 C-8.50638895 11.16137644 -11.89494479 10.80429248 -16.6015625 10.96875 C-20.91673088 11.66130789 -23.5827082 14.13306201 -26.62890625 17.07421875 Z " fill="#341954" transform="translate(269.81640625,40.67578125)"/>
<path d="M0 0 C0.94746094 -0.01417969 1.89492187 -0.02835938 2.87109375 -0.04296875 C5.60751644 0.19135482 7.22678123 0.79048617 9.5625 2.1875 C8.91850627 4.14643905 8.27224759 6.10463364 7.625 8.0625 C7.08552734 9.69832031 7.08552734 9.69832031 6.53515625 11.3671875 C5.5625 14.1875 5.5625 14.1875 4.5625 16.1875 C2.7990625 15.878125 2.7990625 15.878125 1 15.5625 C-3.27570971 15.05456995 -6.44510123 15.38700644 -10.4375 17.1875 C-13.33897385 21.73961463 -13.84242968 25.43398395 -13.94921875 30.7734375 C-13.96716995 31.47522125 -13.98512115 32.177005 -14.00361633 32.90005493 C-14.05739047 35.12081053 -14.09150693 37.3413554 -14.125 39.5625 C-14.15820237 41.07685204 -14.19269471 42.59117638 -14.22851562 44.10546875 C-14.3155055 47.79950389 -14.37584762 51.49260935 -14.4375 55.1875 C-19.0575 55.1875 -23.6775 55.1875 -28.4375 55.1875 C-28.4375 37.3675 -28.4375 19.5475 -28.4375 1.1875 C-23.8175 1.1875 -19.1975 1.1875 -14.4375 1.1875 C-14.1075 2.5075 -13.7775 3.8275 -13.4375 5.1875 C-12.674375 4.548125 -11.91125 3.90875 -11.125 3.25 C-7.35527558 0.35695567 -4.62763416 0.03139508 0 0 Z " fill="#341A54" transform="translate(216.4375,37.8125)"/>
<path d="M0 0 C4.95 0 9.9 0 15 0 C15 17.82 15 35.64 15 54 C10.05 54 5.1 54 0 54 C0 36.18 0 18.36 0 0 Z " fill="#341A55" transform="translate(96,39)"/>
<path d="M0 0 C3.12578143 1.6720747 5.39281175 3.7856235 7 7 C7.41654299 11.52589985 7.51073318 15.66641891 5.875 19.9375 C3.37623302 22.68614368 1.54595541 23.81801486 -2 25 C-6.56974638 25.20148794 -9.99348233 24.59962755 -13.9375 22.25 C-16.75219975 19.17941845 -17.9358928 17.0702855 -18.06640625 12.85546875 C-17.82781714 8.49579507 -17.38322079 6.47165636 -14.5625 3 C-9.92946989 -0.6160235 -5.76162328 -0.81174478 0 0 Z " fill="#736EA7" transform="translate(323,54)"/>
<path d="M0 0 C3.01113945 1.27537931 3.80962762 2.31679384 6 5 C7.05315925 8.08020771 7.34756073 10.76369679 7 14 C5.40804049 17.24288049 4.05395191 19.20045028 1.1875 21.375 C-3.14358292 22.61245226 -6.71965322 22.59749517 -10.8125 20.6875 C-13.44343935 18.65791821 -14.84872291 17.03783122 -15.3359375 13.6953125 C-15.44191794 6.72179931 -15.44191794 6.72179931 -13.125 2.9375 C-9.13116382 -0.70393887 -5.2167226 -0.74399567 0 0 Z " fill="#355393" transform="translate(312,22)"/>
<path d="M0 0 C3.96872558 2.13700608 6.37317781 3.78259841 8 8 C8.32287392 12.62785955 7.54028319 16.14600399 5.0625 20.0625 C0.72214733 22.8084374 -2.99346993 22.91252026 -8 22 C-10.93423195 20.20353146 -12.47205355 19.0558929 -14 16 C-14.52999351 12.21433208 -14.83021253 8.55143964 -12.98828125 5.109375 C-9.22081234 0.44812218 -5.84026467 -0.57257497 0 0 Z " fill="#BD256A" transform="translate(311,88)"/>
<path d="M0 0 C4.45850936 0.79616239 5.90783917 1.93313458 8.5 5.625 C9.125 9.125 9.125 9.125 8.5 12.625 C5.90783917 16.31686542 4.45850936 17.45383761 0 18.25 C-4.45850936 17.45383761 -5.90783917 16.31686542 -8.5 12.625 C-9.125 9.125 -9.125 9.125 -8.5 5.625 C-5.90783917 1.93313458 -4.45850936 0.79616239 0 0 Z " fill="#F57D28" transform="translate(284.5,110.375)"/>
<path d="M0 0 C4.45850936 0.79616239 5.90783917 1.93313458 8.5 5.625 C9.125 9.125 9.125 9.125 8.5 12.625 C5.90783917 16.31686542 4.45850936 17.45383761 0 18.25 C-4.45850936 17.45383761 -5.90783917 16.31686542 -8.5 12.625 C-9.125 9.125 -9.125 9.125 -8.5 5.625 C-5.90783917 1.93313458 -4.45850936 0.79616239 0 0 Z " fill="#3398B2" transform="translate(284.5,3.375)"/>
<path d="M0 0 C4.45850936 0.79616239 5.90783917 1.93313458 8.5 5.625 C9.12601538 9.58976406 9.15946039 11.62262021 6.9375 15 C3.67160572 17.17726285 1.42016134 17.625 -2.5 17.625 C-5.30189446 15.85858828 -7.01524911 14.59450178 -8.5 11.625 C-9.03507099 7.6119676 -8.83051628 6.08571967 -6.4375 2.75 C-3.5 0.625 -3.5 0.625 0 0 Z " fill="#341954" transform="translate(102.5,14.375)"/>
<path d="M0 0 C2.375 1.625 2.375 1.625 4 4 C4.5625 7 4.5625 7 4 10 C1.875 12.4375 1.875 12.4375 -1 14 C-4.54334961 14 -6.25666783 13.64741834 -8.9375 11.3125 C-10.40109489 8.12702876 -9.98928968 6.32118677 -9 3 C-6.6975944 -0.63537727 -4.0732876 -0.58189823 0 0 Z " fill="#FFCC2D" transform="translate(261,119)"/>
<path d="M0 0 C2.43352244 0.17446209 3.83138858 0.41042518 6 1.5625 C7.58433618 4.63215135 7.36248449 7.11681143 7 10.5 C5.9375 12.4375 5.9375 12.4375 4 13.5 C-0.36706908 13.88991688 -2.30513897 13.96324069 -6 11.5 C-7.07838759 8.03375417 -7.19195389 6.0886586 -6.0625 2.625 C-3.72977646 0.22158787 -3.20448171 0.12983167 0 0 Z " fill="#7BC45D" transform="translate(258,-0.5)"/>
</svg>
