<?xml version="1.0" encoding="UTF-8"?>
<svg version="1.1" xmlns="http://www.w3.org/2000/svg" width="330" height="330">
<path d="M0 0 C0.81355957 0.19867676 1.62711914 0.39735352 2.46533203 0.60205078 C31.42205155 7.77274649 56.3763402 21.51619204 78 42 C78.94488281 42.88042969 79.88976562 43.76085938 80.86328125 44.66796875 C107.09825534 69.61262794 123.47379009 104.21136349 128 140 C128.11085938 140.8146875 128.22171875 141.629375 128.3359375 142.46875 C133.01833342 183.47135211 121.75624482 226.90395229 96.61083984 259.81835938 C93.53101822 263.6577496 90.28194882 267.33310079 87 271 C86.27683594 271.84433594 85.55367188 272.68867188 84.80859375 273.55859375 C58.77834535 303.76590745 17.92785645 322.38200779 -21.47265625 325.72265625 C-64.08237025 328.64164082 -108.35551289 316.89928039 -141.06494141 288.51708984 C-142.72809755 287.02991823 -144.3678561 285.52114517 -146 284 C-146.63437988 283.40944824 -147.26875977 282.81889648 -147.92236328 282.21044922 C-179.94297619 252.04834831 -198.80690903 211.6555286 -200.92529297 167.59130859 C-202.05579703 128.959256 -190.58708632 91.62485923 -167 61 C-166.29359375 60.06929687 -165.5871875 59.13859375 -164.859375 58.1796875 C-141.34282188 28.3049552 -108.77082576 8.85510554 -72 0 C-71.30922363 -0.17789062 -70.61844727 -0.35578125 -69.90673828 -0.5390625 C-48.58032957 -5.87993703 -21.24245531 -5.49195186 0 0 Z M-49.64453125 17.796875 C-55.41132467 19.86459604 -57.13868248 25.25847183 -59.8125 30.5 C-61.04805273 32.8145641 -62.28503471 35.12836581 -63.5234375 37.44140625 C-64.41820801 39.13934326 -64.41820801 39.13934326 -65.33105469 40.87158203 C-67.42455284 44.79581921 -69.64915331 48.62471771 -71.9375 52.4375 C-76.07682094 59.40550034 -80.14118607 66.41510409 -84.1875 73.4375 C-84.82478027 74.54327393 -85.46206055 75.64904785 -86.11865234 76.78833008 C-88.0796138 80.1919253 -90.03988215 83.59591889 -92 87 C-94.51995295 91.37550789 -97.04083648 95.75047771 -99.5625 100.125 C-100.17327393 101.18525391 -100.78404785 102.24550781 -101.41333008 103.33789062 C-104.59654951 108.85754518 -107.79583502 114.36715621 -111.01953125 119.86328125 C-111.66656006 120.96720215 -112.31358887 122.07112305 -112.98022461 123.20849609 C-114.2167783 125.3157837 -115.45576341 127.42164697 -116.69750977 129.52587891 C-117.24850342 130.4647998 -117.79949707 131.4037207 -118.3671875 132.37109375 C-118.85300293 133.19536865 -119.33881836 134.01964355 -119.83935547 134.86889648 C-121.12418355 137.07916435 -121.12418355 137.07916435 -122 140 C-79.43 140.495 -79.43 140.495 -36 141 C-40.29 148.59 -44.58 156.18 -49 164 C-50.3926709 167.24062256 -51.7853418 170.48124512 -53.22021484 173.82006836 C-57.09531147 180.29521825 -57.09531147 180.29521825 -61.41498566 181.89360428 C-69.03679958 183.47228634 -76.7404033 183.09706647 -84.4765625 182.87890625 C-86.97332128 182.86962813 -89.47011828 182.86786331 -91.96688843 182.87327576 C-97.84764892 182.86799896 -103.72353875 182.78749897 -109.60304105 182.66970628 C-116.96035195 182.52698384 -124.31729432 182.50252147 -131.67578125 182.47460938 C-144.7857398 182.41070303 -157.89219401 182.24269626 -171 182 C-169.40731263 179.12649868 -167.81349413 176.25362623 -166.21948242 173.38085938 C-165.77195366 172.57340271 -165.3244249 171.76594604 -164.86333466 170.934021 C-161.42621905 164.74148782 -157.90571755 158.60335161 -154.3125 152.5 C-153.10883637 150.44562799 -151.90573107 148.39092877 -150.703125 146.3359375 C-150.09404297 145.2953418 -149.48496094 144.25474609 -148.85742188 143.18261719 C-145.74002807 137.8410891 -142.65057458 132.48351626 -139.5625 127.125 C-138.94028564 126.04541016 -138.31807129 124.96582031 -137.67700195 123.85351562 C-136.41488483 121.6631748 -135.15292215 119.47274498 -133.89111328 117.28222656 C-130.76319852 111.85340058 -127.63141552 106.42680719 -124.5 101 C-123.24998121 98.83334417 -121.99998122 96.6666775 -120.75 94.5 C-113.25 81.5 -113.25 81.5 -111.37255859 78.24609375 C-110.13032038 76.09266491 -108.88845463 73.93902116 -107.64697266 71.78515625 C-104.74870197 66.75793245 -101.84701928 61.73278998 -98.93145752 56.71557617 C-97.90584372 54.95024789 -96.88145336 53.18421529 -95.85742188 51.41796875 C-94.57728534 49.2108368 -93.29489334 47.00501077 -92.00976562 44.80078125 C-88.43924046 38.63817318 -85.095662 32.4148503 -82 26 C-115.16313074 35.47518021 -142.97155869 60.75318455 -160.25 89.9375 C-179.36123765 124.72073417 -184.37611079 163.5225247 -173.4375 201.875 C-168.76859982 217.21911454 -161.68190116 232.18062391 -152 245 C-151.36191406 245.85851562 -150.72382813 246.71703125 -150.06640625 247.6015625 C-139.66666967 260.93052545 -127.40599548 273.08626697 -113 282 C-111.98365479 282.62962646 -111.98365479 282.62962646 -110.94677734 283.27197266 C-95.53444865 292.64655391 -76.38709385 302.16590572 -58 302 C-57.4738208 301.05253906 -57.4738208 301.05253906 -56.93701172 300.0859375 C-49.88024864 287.39427938 -42.74112159 274.76263087 -35.39404297 262.23632812 C-30.87399538 254.52204674 -26.42556978 246.76865475 -22 239 C-16.91642004 230.07986562 -11.80122895 221.17933328 -6.625 212.3125 C-6.05507324 211.33587402 -5.48514648 210.35924805 -4.89794922 209.35302734 C-2.25117554 204.8252665 0.40849346 200.30583408 3.09375 195.80078125 C3.80265381 194.60811646 3.80265381 194.60811646 4.52587891 193.39135742 C5.39918776 191.924306 6.27622884 190.4594672 7.15771484 188.99731445 C9.28540559 185.72632767 9.28540559 185.72632767 10 182 C-5.18 182 -20.36 182 -36 182 C-29.46985321 169.92682164 -22.89543327 157.92775361 -15.86328125 146.140625 C-14.8624837 144.45374612 -13.87717229 142.75434457 -13 141 C23.96 140.67 60.92 140.34 99 140 C95.04 147.26 91.08 154.52 87 162 C85.783125 165.568125 84.56625 169.13625 83.3125 172.8125 C79.93596089 178.95257559 79.93596089 178.95257559 76 181 C69.38356438 182.06145807 62.46972129 181.27655733 55.8125 180.9375 C43.156806 179.93627813 43.156806 179.93627813 31.76171875 184.32519531 C26.42447505 190.82243871 23.45314719 198.4229087 20.515625 206.23242188 C18.3008208 211.97501985 15.03134167 217.08879224 11.8125 222.3125 C10.65700886 224.27396687 9.50720779 226.23879749 8.36328125 228.20703125 C7.52531006 229.6448999 7.52531006 229.6448999 6.67041016 231.11181641 C3.36286131 236.83065634 0.13419621 242.59401609 -3.10400391 248.35229492 C-7.02697414 255.31411039 -11.02609105 262.22840564 -15.0625 269.125 C-19.68553812 277.03082168 -24.30352279 284.93921736 -28.875 292.875 C-29.39328369 293.76719238 -29.91156738 294.65938477 -30.44555664 295.57861328 C-30.91469482 296.39571777 -31.38383301 297.21282227 -31.8671875 298.0546875 C-32.28081543 298.77124512 -32.69444336 299.48780273 -33.12060547 300.22607422 C-34.14805099 301.96866096 -34.14805099 301.96866096 -34 304 C1.7065948 305.70331813 35.44846587 289.36495893 61.64453125 266.1015625 C81.74465714 247.78696621 95.32701517 223.8775063 102.75 197.875 C102.94883789 197.1835791 103.14767578 196.4921582 103.35253906 195.77978516 C106.44514097 184.37216867 107.36470631 173.03727787 107.3125 161.25 C107.30758545 159.93104736 107.3026709 158.61209473 107.29760742 157.25317383 C107.18030363 147.4760531 106.42385165 138.48038751 104 129 C103.83371094 128.32291992 103.66742188 127.64583984 103.49609375 126.94824219 C97.65897893 103.5673545 86.3812497 82.64417933 70 65 C69.46358887 64.41976074 68.92717773 63.83952148 68.37451172 63.24169922 C43.202664 36.32533996 8.16187288 19.68009211 -28.77001953 17.86376953 C-33.81485074 17.72034417 -38.87078543 17.6494422 -43.91235352 17.9140625 C-46 18 -46 18 -49.64453125 17.796875 Z " fill="#004E8A" transform="translate(201,4)"/>
</svg>
