<?xml version="1.0" encoding="UTF-8"?>
<svg version="1.1" xmlns="http://www.w3.org/2000/svg" width="500" height="100">
<path d="M0 0 C165 0 330 0 500 0 C500 33 500 66 500 100 C335 100 170 100 0 100 C0 67 0 34 0 0 Z " fill="#014E9F" transform="translate(0,0)"/>
<path d="M0 0 C28.38 0 56.76 0 86 0 C86 28.38 86 56.76 86 86 C57.62 86 29.24 86 0 86 C0 57.62 0 29.24 0 0 Z " fill="#FDFEFE" transform="translate(7,7)"/>
<path d="M0 0 C36.3 0 72.6 0 110 0 C110 33 110 66 110 100 C73.7 100 37.4 100 0 100 C0 67 0 34 0 0 Z M7 7 C7 35.38 7 63.76 7 93 C35.38 93 63.76 93 93 93 C93 64.62 93 36.24 93 7 C64.62 7 36.24 7 7 7 Z " fill="#0B55A3" transform="translate(0,0)"/>
<path d="M0 0 C23.76 0 47.52 0 72 0 C66.38095238 5.61904762 66.38095238 5.61904762 63.27734375 7.8046875 C62.58423096 8.29791504 61.89111816 8.79114258 61.17700195 9.29931641 C60.43796631 9.81929199 59.69893066 10.33926758 58.9375 10.875 C52.16059745 15.70377865 45.45746908 20.61616826 38.8125 25.625 C30.59051746 31.81802616 22.3186097 37.93749808 14 44 C12.79222519 40.52770993 13.21536376 38.54824928 14.43359375 35.12109375 C14.75263672 34.20005859 15.07167969 33.27902344 15.40039062 32.33007812 C15.74263672 31.37552734 16.08488281 30.42097656 16.4375 29.4375 C17.10681194 27.54175362 17.77235171 25.64467 18.43359375 23.74609375 C18.73322021 22.90747803 19.03284668 22.0688623 19.34155273 21.20483398 C20.1430752 18.9044165 20.1430752 18.9044165 20 16 C18.57562897 14.53182016 18.57562897 14.53182016 16.640625 13.22265625 C15.93679687 12.70896484 15.23296875 12.19527344 14.5078125 11.66601562 C13.76273438 11.13685547 13.01765625 10.60769531 12.25 10.0625 C10.79469891 9.01473464 9.34151091 7.96402701 7.890625 6.91015625 C7.24125977 6.44746338 6.59189453 5.98477051 5.92285156 5.50805664 C4 4 4 4 0 0 Z " fill="#0853A2" transform="translate(14,42)"/>
<path d="M0 0 C6.991875 -0.0928125 6.991875 -0.0928125 14.125 -0.1875 C15.58437988 -0.21481201 17.04375977 -0.24212402 18.54736328 -0.27026367 C19.70993652 -0.27775635 20.87250977 -0.28524902 22.0703125 -0.29296875 C23.25383301 -0.3086792 24.43735352 -0.32438965 25.65673828 -0.34057617 C29.4048517 0.04124201 31.79896858 1.04401228 35 3 C36.17650238 5.35300475 36.10158964 6.76033709 36.0625 9.375 C36.05347656 10.14585938 36.04445312 10.91671875 36.03515625 11.7109375 C36.02355469 12.46632813 36.01195312 13.22171875 36 14 C35.7018576 17.7763932 35.7018576 17.7763932 37 20 C37.3751455 24.97067782 37.15878799 28.05151502 34 32 C30.44588392 34.38633508 27.24717262 34.23090824 23.046875 34.1953125 C21.83870117 34.19031738 20.63052734 34.18532227 19.38574219 34.18017578 C17.85594727 34.16196777 16.32615234 34.14375977 14.75 34.125 C9.8825 34.08375 5.015 34.0425 0 34 C0 22.78 0 11.56 0 0 Z " fill="#F1F5F9" transform="translate(143,33)"/>
<path d="M0 0 C4.846875 -0.061875 9.69375 -0.12375 14.6875 -0.1875 C16.96853638 -0.22846802 16.96853638 -0.22846802 19.2956543 -0.27026367 C21.1041687 -0.28150269 21.1041687 -0.28150269 22.94921875 -0.29296875 C24.79519653 -0.31653442 24.79519653 -0.31653442 26.6784668 -0.34057617 C30.27920391 0.02862841 32.13533543 0.83081837 35 3 C36.46769227 5.93538453 36.28669649 8.60777016 36.375 11.875 C36.42398438 13.10992187 36.47296875 14.34484375 36.5234375 15.6171875 C36 19 36 19 33.6640625 21.3828125 C31 23 31 23 28 24 C28.6496875 24.63808594 29.299375 25.27617188 29.96875 25.93359375 C30.8040625 26.75988281 31.639375 27.58617188 32.5 28.4375 C33.3353125 29.26121094 34.170625 30.08492187 35.03125 30.93359375 C37 33 37 33 37 34 C33.16383449 34.64533625 29.81693019 34.83665526 26 34 C23.38770524 31.632476 21.38053964 29.06960237 19.21484375 26.29296875 C16.70671396 23.69636878 15.47703655 23.21183577 11.9375 22.875 C10.638125 22.91625 9.33875 22.9575 8 23 C8 26.63 8 30.26 8 34 C5.36 34 2.72 34 0 34 C0 22.78 0 11.56 0 0 Z " fill="#F2F6FA" transform="translate(430,33)"/>
<path d="M0 0 C3.3 0 6.6 0 10 0 C10 33 10 66 10 100 C6.7 100 3.4 100 0 100 C0 67 0 34 0 0 Z " fill="#000000" transform="translate(100,0)"/>
<path d="M0 0 C4.929375 -0.020625 9.85875 -0.04125 14.9375 -0.0625 C17.2731604 -0.07615601 17.2731604 -0.07615601 19.65600586 -0.09008789 C21.47950562 -0.09383423 21.47950562 -0.09383423 23.33984375 -0.09765625 C24.59144287 -0.10289307 25.84304199 -0.10812988 27.13256836 -0.11352539 C30 0 30 0 31 1 C31 3.31 31 5.62 31 8 C23.41 8 15.82 8 8 8 C8 9.98 8 11.96 8 14 C15.26 14 22.52 14 30 14 C30 15.98 30 17.96 30 20 C22.74 20 15.48 20 8 20 C8 21.98 8 23.96 8 26 C15.26 26 22.52 26 30 26 C30 28.64 30 31.28 30 34 C20.1 34 10.2 34 0 34 C0 22.78 0 11.56 0 0 Z " fill="#EEF3F8" transform="translate(263,33)"/>
<path d="M0 0 C1.29550781 0.00966797 2.59101563 0.01933594 3.92578125 0.02929688 C5.28906854 0.05436092 6.65234979 0.07975573 8.015625 0.10546875 C9.39451684 0.12052357 10.77342435 0.13421058 12.15234375 0.14648438 C15.52383415 0.18184966 18.89453154 0.23120971 22.265625 0.29296875 C22.265625 2.60296875 22.265625 4.91296875 22.265625 7.29296875 C9.890625 7.78796875 9.890625 7.78796875 -2.734375 8.29296875 C-2.734375 9.61296875 -2.734375 10.93296875 -2.734375 12.29296875 C-2.15469971 12.30755127 -1.57502441 12.32213379 -0.9777832 12.3371582 C1.66650053 12.41195403 4.30956502 12.50850773 6.953125 12.60546875 C7.86513672 12.62802734 8.77714844 12.65058594 9.71679688 12.67382812 C14.63644032 12.87061386 18.3108001 13.03084231 22.265625 16.29296875 C23.86016133 19.4820414 23.65124202 22.82241557 23.265625 26.29296875 C21.12673611 30.86241319 21.12673611 30.86241319 18.265625 32.29296875 C16.16033567 32.3784077 14.05231343 32.400116 11.9453125 32.390625 C10.68847656 32.38740234 9.43164062 32.38417969 8.13671875 32.38085938 C6.81800781 32.37248047 5.49929688 32.36410156 4.140625 32.35546875 C2.80078289 32.35045364 1.460939 32.34589076 0.12109375 32.34179688 C-3.16410706 32.32997961 -6.44921897 32.31350492 -9.734375 32.29296875 C-9.734375 29.98296875 -9.734375 27.67296875 -9.734375 25.29296875 C-1.814375 24.96296875 6.105625 24.63296875 14.265625 24.29296875 C14.265625 22.97296875 14.265625 21.65296875 14.265625 20.29296875 C13.34281738 20.2789502 13.34281738 20.2789502 12.40136719 20.26464844 C9.60531414 20.2108579 6.8109188 20.12723056 4.015625 20.04296875 C3.04753906 20.02878906 2.07945312 20.01460937 1.08203125 20 C-6.00175776 19.75573141 -6.00175776 19.75573141 -9.375 17.625 C-11.10362933 14.65950658 -11.26830727 12.65338678 -11.234375 9.23046875 C-11.2446875 8.18761719 -11.255 7.14476562 -11.265625 6.0703125 C-10.734375 3.29296875 -10.734375 3.29296875 -9.12207031 1.63769531 C-5.93698882 -0.15611132 -3.64393181 -0.04794647 0 0 Z " fill="#FBFCFD" transform="translate(329.734375,33.70703125)"/>
<path d="M0 0 C2.97 0 5.94 0 9 0 C9.40839111 0.76143311 9.81678223 1.52286621 10.23754883 2.30737305 C11.76294052 5.1500205 13.28943005 7.99207487 14.81665039 10.83374023 C15.47561531 12.06039399 16.13415063 13.28727863 16.79223633 14.5144043 C17.74185194 16.28495937 18.69317534 18.05459816 19.64453125 19.82421875 C20.21534424 20.88729248 20.78615723 21.95036621 21.37426758 23.0456543 C22.43771008 24.97818436 23.54841776 26.88562851 24.7097168 28.76098633 C26 31 26 31 26 33 C23.36 33 20.72 33 18 33 C17.31164062 31.29650391 17.31164062 31.29650391 16.609375 29.55859375 C15.23096021 27.14636787 14.56811726 26.18065709 11.88867188 25.32861328 C9.32253055 25.08527229 6.82731989 25.03014074 4.25 25.0625 C2.91775391 25.03833008 2.91775391 25.03833008 1.55859375 25.01367188 C-0.62917244 24.97838532 -2.81223013 24.9748934 -5 25 C-5.309375 25.94875 -5.61875 26.8975 -5.9375 27.875 C-7 31 -7 31 -8 33 C-10.97 33 -13.94 33 -17 33 C-15.47766483 28.94154751 -13.57862396 25.20100548 -11.5234375 21.38671875 C-11.19332672 20.77230423 -10.86321594 20.15788971 -10.52310181 19.52485657 C-9.47621913 17.57772172 -8.42567234 15.63259208 -7.375 13.6875 C-6.66121471 12.36145923 -5.94767051 11.03528866 -5.234375 9.70898438 C-3.49237028 6.47114968 -1.74707555 3.23510197 0 0 Z " fill="#F5F8FB" transform="translate(401,34)"/>
<path d="M0 0 C2.64 0 5.28 0 8 0 C8.08742801 4.20820145 8.14053641 8.41616776 8.1875 12.625 C8.21263672 13.81480469 8.23777344 15.00460938 8.26367188 16.23046875 C8.3569936 27.36686113 8.3569936 27.36686113 5 32 C0.53823629 34.23088186 -5.4755676 33.31955375 -10.375 33.375 C-11.62023437 33.41238281 -12.86546875 33.44976562 -14.1484375 33.48828125 C-15.9428125 33.50568359 -15.9428125 33.50568359 -17.7734375 33.5234375 C-19.41965088 33.5531665 -19.41965088 33.5531665 -21.09912109 33.58349609 C-24 33 -24 33 -26.36474609 30.86694336 C-28.29914561 27.47553495 -28.46423585 25.48844122 -28.390625 21.60546875 C-28.37773437 20.40341797 -28.36484375 19.20136719 -28.3515625 17.96289062 C-28.31804687 16.71701172 -28.28453125 15.47113281 -28.25 14.1875 C-28.23195312 12.92228516 -28.21390625 11.65707031 -28.1953125 10.35351562 C-28.14823916 7.23490665 -28.08249094 4.11784027 -28 1 C-25.69 1 -23.38 1 -21 1 C-20.67 8.92 -20.34 16.84 -20 25 C-13.73 25 -7.46 25 -1 25 C-0.67 16.75 -0.34 8.5 0 0 Z " fill="#F6F9FB" transform="translate(249,33)"/>
<path d="M0 0 C13.86 0 27.72 0 42 0 C38.71955716 3.28044284 35.52056125 5.88453876 31.75 8.5 C23.70171694 14.15959253 15.84845682 20.06778978 8 26 C7 24 7 24 7.77734375 21.28515625 C8.16019531 20.22167969 8.54304688 19.15820312 8.9375 18.0625 C10.55173674 13.63569648 10.55173674 13.63569648 11 9 C8.54506166 6.88687326 8.54506166 6.88687326 5.5 4.875 C3.65359005 3.60209617 1.8165196 2.31520737 0 1 C0 0.67 0 0.34 0 0 Z " fill="#F7FAFC" transform="translate(29,47)"/>
<path d="M0 0 C10.23 0 20.46 0 31 0 C31 2.64 31 5.28 31 8 C27.04 8 23.08 8 19 8 C19 16.58 19 25.16 19 34 C16.69 34 14.38 34 12 34 C12 25.42 12 16.84 12 8 C8.04 8 4.08 8 0 8 C0 5.36 0 2.72 0 0 Z " fill="#F2F6FA" transform="translate(357,33)"/>
<path d="M0 0 C2.31 0 4.62 0 7 0 C7 8.58 7 17.16 7 26 C14.59 26 22.18 26 30 26 C30 28.64 30 31.28 30 34 C20.1 34 10.2 34 0 34 C0 22.78 0 11.56 0 0 Z " fill="#F3F7FA" transform="translate(186,33)"/>
<path d="M0 0 C0.66 0 1.32 0 2 0 C3.17372973 3.60190542 4.33776256 7.20687151 5.5 10.8125 C5.83386719 11.83666016 6.16773438 12.86082031 6.51171875 13.91601562 C6.98544922 15.39038086 6.98544922 15.39038086 7.46875 16.89453125 C7.76201172 17.80050049 8.05527344 18.70646973 8.35742188 19.63989258 C9 22 9 22 9 25 C7.02 25 5.04 25 3 25 C2.67 22.36 2.34 19.72 2 17 C1.34 17 0.68 17 0 17 C-0.33 19.64 -0.66 22.28 -1 25 C-2.98 25 -4.96 25 -7 25 C-5.32234985 16.45923559 -2.65997819 8.27435964 0 0 Z " fill="#185FA8" transform="translate(49,14)"/>
<path d="M0 0 C3 1 3 1 3.99902344 2.99365234 C4.42489746 4.2768335 4.42489746 4.2768335 4.859375 5.5859375 C5.17003906 6.51664062 5.48070313 7.44734375 5.80078125 8.40625 C6.11402344 9.3859375 6.42726563 10.365625 6.75 11.375 C7.07871094 12.34695312 7.40742187 13.31890625 7.74609375 14.3203125 C10.13119011 21.60642966 10.13119011 21.60642966 9 25 C8.39414063 24.50371094 7.78828125 24.00742188 7.1640625 23.49609375 C1.2806196 18.72597927 -4.73962945 14.26237995 -11 10 C-10.01 8.68 -9.02 7.36 -8 6 C-7.1028125 6.4640625 -7.1028125 6.4640625 -6.1875 6.9375 C-3.91043228 8.10209704 -3.91043228 8.10209704 -1 9 C-1.20625 7.88625 -1.4125 6.7725 -1.625 5.625 C-1.810625 3.830625 -1.810625 3.830625 -2 2 C-1.34 1.34 -0.68 0.68 0 0 Z " fill="#135BA6" transform="translate(64,62)"/>
<path d="M0 0 C3.31255326 -0.02683436 6.62489183 -0.0467578 9.9375 -0.0625 C10.88302734 -0.07087891 11.82855469 -0.07925781 12.80273438 -0.08789062 C14.15141602 -0.09272461 14.15141602 -0.09272461 15.52734375 -0.09765625 C16.77632446 -0.10551147 16.77632446 -0.10551147 18.05053711 -0.11352539 C20 0 20 0 21 1 C21.125 4.5 21.125 4.5 21 8 C20 9 20 9 18.05053711 9.11352539 C17.2178833 9.10828857 16.38522949 9.10305176 15.52734375 9.09765625 C14.62822266 9.09443359 13.72910156 9.09121094 12.80273438 9.08789062 C11.85720703 9.07951172 10.91167969 9.07113281 9.9375 9.0625 C8.98810547 9.05798828 8.03871094 9.05347656 7.06054688 9.04882812 C4.70700469 9.03700128 2.35349468 9.01906521 0 9 C0 6.03 0 3.06 0 0 Z " fill="#0D57A4" transform="translate(438,41)"/>
<path d="M0 0 C6.93 0 13.86 0 21 0 C21 1.98 21 3.96 21 6 C14.07 6 7.14 6 0 6 C0 4.02 0 2.04 0 0 Z " fill="#014F9F" transform="translate(151,53)"/>
<path d="M0 0 C6.6 0 13.2 0 20 0 C20 1.98 20 3.96 20 6 C13.4 6 6.8 6 0 6 C0 4.02 0 2.04 0 0 Z " fill="#125AA5" transform="translate(151,41)"/>
<path d="M0 0 C2.97246802 2.54782974 4.41535288 5.45340883 6 9 C6 9.66 6 10.32 6 11 C2.37 11 -1.26 11 -5 11 C-3.77472971 6.94718288 -2.30119506 3.55639236 0 0 Z " fill="#0D57A3" transform="translate(405,42)"/>
</svg>
