<?xml version="1.0" encoding="UTF-8"?>
<svg version="1.1" xmlns="http://www.w3.org/2000/svg" width="330" height="86">
<path d="M0 0 C1.19625 0.12375 2.3925 0.2475 3.625 0.375 C6.38169616 4.10464774 8.03530018 8.42660859 9.8125 12.6875 C10.08513672 13.33267578 10.35777344 13.97785156 10.63867188 14.64257812 C11.30412254 16.21864549 11.96503165 17.7966291 12.625 19.375 C12.67398438 18.17101562 12.72296875 16.96703125 12.7734375 15.7265625 C12.84846343 14.15101802 12.92401133 12.57549834 13 11 C13.04640625 9.80890625 13.04640625 9.80890625 13.09375 8.59375 C13.3984375 2.6015625 13.3984375 2.6015625 15.625 0.375 C19.25 0.25 19.25 0.25 22.625 0.375 C24.80826108 4.64613698 26.93826082 8.87702887 28.625 13.375 C30.90194716 11.09805284 31.55447387 9.30661848 32.6875 6.3125 C34.52777778 1.47222222 34.52777778 1.47222222 35.625 0.375 C39.0625 0.125 39.0625 0.125 42.625 0.375 C45.02619059 3.97678588 45.06271322 6.88366369 45.25 11.0625 C45.30800781 12.1153418 45.30800781 12.1153418 45.3671875 13.18945312 C45.4612334 14.91754655 45.5441968 16.64623675 45.625 18.375 C46.34816406 16.67730469 46.34816406 16.67730469 47.0859375 14.9453125 C47.72370803 13.46343392 48.36174261 11.98166895 49 10.5 C49.47566406 9.38044922 49.47566406 9.38044922 49.9609375 8.23828125 C50.2703125 7.52285156 50.5796875 6.80742188 50.8984375 6.0703125 C51.18122559 5.41047363 51.46401367 4.75063477 51.75537109 4.07080078 C52.625 2.375 52.625 2.375 54.625 0.375 C57.5 -0.125 57.5 -0.125 60.625 0.375 C65.1735279 5.33703044 67.18334867 12.19081752 69.625 18.375 C69.69847656 16.80298828 69.69847656 16.80298828 69.7734375 15.19921875 C69.84848143 13.82028646 69.92402857 12.4413815 70 11.0625 C70.0309375 10.37220703 70.061875 9.68191406 70.09375 8.97070312 C70.30624919 5.30509211 70.54433861 3.49599208 72.625 0.375 C75.52165312 0.09870386 78.17149175 0.00281775 81.0625 0.0625 C81.83916016 0.05927734 82.61582031 0.05605469 83.41601562 0.05273438 C87.31367345 0.08966309 89.31760709 0.17007139 92.625 2.375 C93.67535754 7.30360076 94.27487572 10.87021128 91.625 15.375 C90.635 16.035 89.645 16.695 88.625 17.375 C89.945 18.695 91.265 20.015 92.625 21.375 C92.92792969 20.76914062 93.23085937 20.16328125 93.54296875 19.5390625 C94.42265629 17.77968742 95.30290272 16.02059172 96.18359375 14.26171875 C97.13829142 12.34973615 98.08887181 10.4356917 99.03515625 8.51953125 C99.47730469 7.62621094 99.91945313 6.73289062 100.375 5.8125 C100.78234375 4.98621094 101.1896875 4.15992188 101.609375 3.30859375 C102.625 1.375 102.625 1.375 103.625 0.375 C106.5 0.0625 106.5 0.0625 109.625 0.375 C113.03648843 3.82287764 114.53434941 8.5750407 116.3125 13 C116.63283203 13.77601562 116.95316406 14.55203125 117.28320312 15.3515625 C119.625 21.1036947 119.625 21.1036947 119.625 23.375 C117.315 23.375 115.005 23.375 112.625 23.375 C111.635 21.395 111.635 21.395 110.625 19.375 C107.985 19.375 105.345 19.375 102.625 19.375 C101.965 20.695 101.305 22.015 100.625 23.375 C86.48670279 24.43285359 86.48670279 24.43285359 82.19140625 21.9921875 C79.57925025 19.09814416 78.58238005 17.37656889 78.75 13.4375 C79.03875 12.756875 79.3275 12.07625 79.625 11.375 C82.595 10.88 82.595 10.88 85.625 10.375 C85.13 8.395 85.13 8.395 84.625 6.375 C82.645 6.375 80.665 6.375 78.625 6.375 C78.295 11.985 77.965 17.595 77.625 23.375 C73.005 23.375 68.385 23.375 63.625 23.375 C62.635 21.395 62.635 21.395 61.625 19.375 C58.985 19.375 56.345 19.375 53.625 19.375 C52.965 20.695 52.305 22.015 51.625 23.375 C47.005 23.375 42.385 23.375 37.625 23.375 C37.295 20.075 36.965 16.775 36.625 13.375 C36.39425781 14.08527344 36.16351563 14.79554687 35.92578125 15.52734375 C35.59964844 16.44644531 35.27351563 17.36554687 34.9375 18.3125 C34.62425781 19.22902344 34.31101563 20.14554688 33.98828125 21.08984375 C32.625 23.375 32.625 23.375 30.16796875 24.37890625 C27.625 24.375 27.625 24.375 25.91796875 23.19921875 C23.75770989 20.15136108 22.8378782 16.89812238 21.625 13.375 C21.295 16.675 20.965 19.975 20.625 23.375 C16.005 23.375 11.385 23.375 6.625 23.375 C5.965 21.725 5.305 20.075 4.625 18.375 C1.655 18.375 -1.315 18.375 -4.375 18.375 C-4.705 20.025 -5.035 21.675 -5.375 23.375 C-8.015 23.375 -10.655 23.375 -13.375 23.375 C-11.89991251 19.72750285 -10.41925171 16.08229442 -8.9375 12.4375 C-8.51662109 11.39658203 -8.09574219 10.35566406 -7.66210938 9.28320312 C-7.25927734 8.29384766 -6.85644531 7.30449219 -6.44140625 6.28515625 C-6.06959229 5.36871338 -5.69777832 4.45227051 -5.31469727 3.50805664 C-3.84687114 0.17617905 -3.89425743 0.43269527 0 0 Z M-0.375 7.375 C-1.035 9.355 -1.695 11.335 -2.375 13.375 C-0.725 13.375 0.925 13.375 2.625 13.375 C1.965 11.395 1.305 9.415 0.625 7.375 C0.295 7.375 -0.035 7.375 -0.375 7.375 Z M56.625 8.375 C56.295 10.025 55.965 11.675 55.625 13.375 C56.945 13.375 58.265 13.375 59.625 13.375 C59.295 11.725 58.965 10.075 58.625 8.375 C57.965 8.375 57.305 8.375 56.625 8.375 Z M105.625 8.375 C104.965 10.025 104.305 11.675 103.625 13.375 C105.275 13.375 106.925 13.375 108.625 13.375 C108.295 11.725 107.965 10.075 107.625 8.375 C106.965 8.375 106.305 8.375 105.625 8.375 Z " fill="#000000" transform="translate(113.375,30.625)"/>
<path d="M0 0 C12.53087731 0.47645921 22.03242498 3.98604098 31 13 C37.76089397 21.9260563 40.07188303 30.89139402 39 42 C37.21968126 50.77016077 32.73050525 57.19062144 26 63 C18.59069655 67.71895608 12.26973341 69.18006428 3.5625 69.1875 C2.81162109 69.19974609 2.06074219 69.21199219 1.28710938 69.22460938 C-5.028723 69.24127384 -9.00344315 67.95972193 -14 64 C-16.31350743 62.44844979 -18.64401846 60.92508429 -20.9765625 59.40234375 C-23.39024188 57.72954279 -24.77891164 56.59523788 -25.8125 53.8125 C-26.86258068 51.3254668 -27.90989807 49.64034249 -29.5 47.5 C-32.74730547 43.07446866 -34.31893419 39.58134825 -34 34 C-31.18617772 37.70239774 -31.18617772 37.70239774 -29.96875 39.6484375 C-26.0735494 45.67547086 -21.05548827 49.24986428 -14.1875 51.375 C-6.09776279 53.00561239 1.54786692 51.55394925 8.70703125 47.5703125 C16.05802284 42.53607295 19.1536965 36.58091532 21 28 C21.33 28 21.66 28 22 28 C22.57319791 37.02786711 20.51151036 43.14773045 14.875 50.25 C9.77361389 55.63120897 4.62867226 58.68221404 -2.8359375 59.3359375 C-7.95062886 59.45453904 -13.06922037 59.51144501 -18 58 C-8.94221442 61.41112351 -1.76988417 61.93512228 7.1875 57.9375 C13.80507881 54.31656065 19.25441415 48.77077829 21.5625 41.45703125 C23.30313274 31.68151345 22.59417938 22.80271597 18 14 C17.62617187 13.25105469 17.25234375 12.50210937 16.8671875 11.73046875 C16.58101562 11.15941406 16.29484375 10.58835937 16 10 C16.33 9.67 16.66 9.34 17 9 C15.10545176 8.03912864 13.20930419 7.08141031 11.3125 6.125 C10.25675781 5.59132813 9.20101562 5.05765625 8.11328125 4.5078125 C5.44004095 3.21311895 2.7728867 2.05976746 0 1 C0 0.67 0 0.34 0 0 Z M21 13 C21.99898325 15.00692599 23.00467365 17.00902984 24.03515625 19 C24.54369141 19.99 24.54369141 19.99 25.0625 21 C25.40410156 21.66 25.74570312 22.32 26.09765625 23 C29.23100561 29.94491287 29.00182399 38.61370587 26.8125 45.8125 C23.89863191 53.30723978 19.68875908 57.67197942 13 62 C13.66 62.33 14.32 62.66 15 63 C23.37490953 57.16128312 29.07381791 51.33134032 31 41 C31.94825064 31.67796676 30.3175248 22.74895513 24.3125 15.3125 C23.549375 14.549375 22.78625 13.78625 22 13 C21.67 13 21.34 13 21 13 Z M7.5 63.875 C2.72273729 65.41054873 -2.01349784 65.66283437 -7 66 C-7 66.33 -7 66.66 -7 67 C3.40980986 67.47499629 3.40980986 67.47499629 13 64 C10.07866039 62.68629116 10.07866039 62.68629116 7.5 63.875 Z " fill="#952B4A" transform="translate(34,15)"/>
<path d="M0 0 C0.77279297 -0.02900391 1.54558594 -0.05800781 2.34179688 -0.08789062 C6.09847621 -0.12988274 8.06400253 -0.12772994 11.19921875 2.0859375 C13.02514879 4.81764387 13.23996024 7.08057371 13.09375 10.33984375 C12.46958323 13.37065356 10.83302985 15.16697015 8.6875 17.3125 C10.0075 18.6325 11.3275 19.9525 12.6875 21.3125 C12.91937012 20.74740723 13.15124023 20.18231445 13.39013672 19.60009766 C14.4424436 17.04374395 15.50236897 14.49061833 16.5625 11.9375 C16.92730469 11.04804687 17.29210937 10.15859375 17.66796875 9.2421875 C18.02246094 8.39140625 18.37695312 7.540625 18.7421875 6.6640625 C19.06687012 5.87854004 19.39155273 5.09301758 19.72607422 4.28369141 C20.6875 2.3125 20.6875 2.3125 22.6875 0.3125 C25.5625 -0.1875 25.5625 -0.1875 28.6875 0.3125 C33.2360279 5.27453044 35.24584867 12.12831752 37.6875 18.3125 C40.6575 17.9825 43.6275 17.6525 46.6875 17.3125 C47.0175 11.7025 47.3475 6.0925 47.6875 0.3125 C49.9975 0.3125 52.3075 0.3125 54.6875 0.3125 C54.74170701 2.87528699 54.78127007 5.43691483 54.8125 8 C54.82925781 8.72123047 54.84601563 9.44246094 54.86328125 10.18554688 C54.90119936 14.33758025 54.73681356 17.6549503 52.6875 21.3125 C49.58664429 23.37973714 48.95818319 23.55747423 45.45703125 23.5078125 C44.65458984 23.50136719 43.85214844 23.49492188 43.02539062 23.48828125 C42.19201172 23.47152344 41.35863281 23.45476563 40.5 23.4375 C39.65501953 23.42847656 38.81003906 23.41945313 37.93945312 23.41015625 C35.85534757 23.38660703 33.77138783 23.35073647 31.6875 23.3125 C31.0275 21.9925 30.3675 20.6725 29.6875 19.3125 C27.0475 19.3125 24.4075 19.3125 21.6875 19.3125 C21.0275 20.6325 20.3675 21.9525 19.6875 23.3125 C6.60165648 24.52508782 6.60165648 24.52508782 2.09765625 21.671875 C0.21128221 19.58876257 -1.2157443 17.9031126 -2.3125 15.3125 C-1.96875 13.046875 -1.96875 13.046875 -1.3125 11.3125 C0.6675 10.9825 2.6475 10.6525 4.6875 10.3125 C4.6875 8.9925 4.6875 7.6725 4.6875 6.3125 C2.3775 6.3125 0.0675 6.3125 -2.3125 6.3125 C-2.6425 11.9225 -2.9725 17.5325 -3.3125 23.3125 C-5.2925 23.3125 -7.2725 23.3125 -9.3125 23.3125 C-9.34137512 19.66668313 -9.35925585 16.02089537 -9.375 12.375 C-9.38337891 11.33408203 -9.39175781 10.29316406 -9.40039062 9.22070312 C-9.40522461 7.73666992 -9.40522461 7.73666992 -9.41015625 6.22265625 C-9.41539307 5.30621338 -9.42062988 4.38977051 -9.42602539 3.44555664 C-9.16093152 -1.53535771 -3.86699273 0.04766219 0 0 Z M24.6875 8.3125 C24.3575 9.9625 24.0275 11.6125 23.6875 13.3125 C25.3375 13.3125 26.9875 13.3125 28.6875 13.3125 C28.0275 11.6625 27.3675 10.0125 26.6875 8.3125 C26.0275 8.3125 25.3675 8.3125 24.6875 8.3125 Z " fill="#000000" transform="translate(250.3125,30.6875)"/>
<path d="M0 0 C7.17169103 5.02676325 11.81339346 11.56017709 14.640625 19.88671875 C16.60946728 31.46436739 14.97527784 41.55896014 8.25 51.1875 C0.91038942 60.31591014 -7.53494962 65.74458025 -19 68 C-22 68.125 -22 68.125 -24 68 C-21.1528203 66.1018802 -19.1011687 65.35847593 -15.875 64.375 C-6.10951374 60.85323283 -0.76059153 54.59003908 3.90625 45.515625 C7.22024351 37.89343994 7.02608117 29.24726165 4.5625 21.375 C0.07299986 10.45842598 -8.80309267 3.54570169 -19.375 -1.02734375 C-28.53461286 -4.13302499 -38.46329423 -3.25219496 -48 -3 C-36.37643622 -14.62356378 -11.67174273 -7.72487855 0 0 Z " fill="#F47C34" transform="translate(68,18)"/>
<path d="M0 0 C0.82483887 0.00572021 1.64967773 0.01144043 2.49951172 0.01733398 C13.79554731 0.34387891 23.73761602 4.44057658 31.75 12.5 C40.84008459 23.23461281 44.3516911 34.59167876 43.75 48.5 C43.25 51.625 43.25 51.625 42.75 53.5 C42.42 53.5 42.09 53.5 41.75 53.5 C41.75902344 52.57960937 41.76804687 51.65921875 41.77734375 50.7109375 C41.49521871 38.66542481 38.52798355 28.60826118 29.5 19.9375 C19.60961871 12.08238425 7.30976829 8.30819717 -5.25 9.5 C-17.52223698 11.67502777 -26.90330402 16.02650006 -35.25 25.5 C-37.59282677 29.37217202 -39.51190115 33.3243235 -41.25 37.5 C-41.58 37.5 -41.91 37.5 -42.25 37.5 C-41.92816933 27.68416462 -37.70611419 19.35142279 -31.0703125 12.125 C-22.09131932 4.10941811 -11.97904511 -0.09778307 0 0 Z " fill="#B4D342" transform="translate(42.25,-0.5)"/>
<path d="M0 0 C12.53087731 0.47645921 22.03242498 3.98604098 31 13 C37.76089397 21.9260563 40.07188303 30.89139402 39 42 C37.21968126 50.77016077 32.73050525 57.19062144 26 63 C18.59069655 67.71895608 12.26973341 69.18006428 3.5625 69.1875 C2.81162109 69.19974609 2.06074219 69.21199219 1.28710938 69.22460938 C-2.93647648 69.2357534 -6.14303716 68.9399833 -10 67 C-6.66368139 65.8878938 -4.55360327 66.09668634 -1.0625 66.3125 C8.44274242 66.40808344 15.95779275 62.16636971 23 56 C29.17145278 48.26575039 31.01184993 39.73741295 30 30 C28.1825522 21.25429479 23.7945668 14.7391977 17 9 C11.59571111 5.68747267 5.88218557 3.3185257 0 1 C0 0.67 0 0.34 0 0 Z " fill="#EF61A3" transform="translate(34,15)"/>
<path d="M0 0 C0.33 0 0.66 0 1 0 C1.57319791 9.02786711 -0.48848964 15.14773045 -6.125 22.25 C-12.31660214 28.78122589 -18.52123856 31.28105551 -27.5 31.625 C-36.55667374 31.27807097 -42.73828358 28.74952649 -48.9375 22.125 C-52.83991805 17.23777362 -55.58808114 12.46889259 -55 6 C-52.18617772 9.70239774 -52.18617772 9.70239774 -50.96875 11.6484375 C-47.0735494 17.67547086 -42.05548827 21.24986428 -35.1875 23.375 C-27.09776279 25.00561239 -19.45213308 23.55394925 -12.29296875 19.5703125 C-4.94197716 14.53607295 -1.8463035 8.58091532 0 0 Z " fill="#0097C5" transform="translate(55,43)"/>
<path d="M0 0 C3.4763382 0.35472839 3.92552037 0.72186603 6.0625 3.3125 C7.0456543 5.16601563 7.0456543 5.16601563 7.88671875 7.21875 C8.19287109 7.96253906 8.49902344 8.70632812 8.81445312 9.47265625 C9.27754883 10.63087891 9.27754883 10.63087891 9.75 11.8125 C10.07033203 12.58464844 10.39066406 13.35679688 10.72070312 14.15234375 C13.0625 19.91446229 13.0625 19.91446229 13.0625 23.3125 C10.7525 23.3125 8.4425 23.3125 6.0625 23.3125 C5.5675 20.8375 5.5675 20.8375 5.0625 18.3125 C2.0925 18.3125 -0.8775 18.3125 -3.9375 18.3125 C-4.9275 20.7875 -4.9275 20.7875 -5.9375 23.3125 C-8.2475 23.3125 -10.5575 23.3125 -12.9375 23.3125 C-5.74887615 0.61158257 -5.74887615 0.61158257 0 0 Z M0.0625 7.3125 C-0.5975 9.2925 -1.2575 11.2725 -1.9375 13.3125 C-0.2875 13.3125 1.3625 13.3125 3.0625 13.3125 C2.4025 11.3325 1.7425 9.3525 1.0625 7.3125 C0.7325 7.3125 0.4025 7.3125 0.0625 7.3125 Z " fill="#000000" transform="translate(316.9375,30.6875)"/>
<path d="M0 0 C0.99 0 1.98 0 3 0 C3.33 0.99 3.66 1.98 4 3 C4.66 2.01 5.32 1.02 6 0 C6.66 0 7.32 0 8 0 C8.66 0.66 9.32 1.32 10 2 C10.33 1.34 10.66 0.68 11 0 C14.30513486 0 16.81097595 0.36219519 20 1 C21.32 1 22.64 1 24 1 C24.33 1.99 24.66 2.98 25 4 C25.66 2.68 26.32 1.36 27 0 C27.66 0 28.32 0 29 0 C28.71517632 1.41805831 28.42181856 2.83440379 28.125 4.25 C27.96257812 5.03890625 27.80015625 5.8278125 27.6328125 6.640625 C27.00849925 8.96831144 26.15161458 10.89031952 25 13 C24.01 13 23.02 13 22 13 C22.185625 12.236875 22.37125 11.47375 22.5625 10.6875 C23.22819173 7.91032625 23.22819173 7.91032625 22 5 C21.67 6.65 21.34 8.3 21 10 C18.69 10 16.38 10 14 10 C13.67 8.35 13.34 6.7 13 5 C13.99 4.34 14.98 3.68 16 3 C15.01 3.33 14.02 3.66 13 4 C11.77479736 7.00847418 11.77479736 7.00847418 11 10 C10.01 10 9.02 10 8 10 C7.67 9.01 7.34 8.02 7 7 C6.01 8.485 6.01 8.485 5 10 C4.34 10 3.68 10 3 10 C2.01 6.7 1.02 3.4 0 0 Z M16 6 C16 6.66 16 7.32 16 8 C16.66 8 17.32 8 18 8 C18 7.34 18 6.68 18 6 C17.34 6 16.68 6 16 6 Z " fill="#000000" transform="translate(301,64)"/>
<path d="M0 0 C0.94875 0.04125 1.8975 0.0825 2.875 0.125 C3.535 1.445 4.195 2.765 4.875 4.125 C2.48935923 3.54915568 0.20817216 2.90272405 -2.125 2.125 C-2.125 4.435 -2.125 6.745 -2.125 9.125 C-1.135 9.455 -0.145 9.785 0.875 10.125 C1.205 9.465 1.535 8.805 1.875 8.125 C0.885 8.125 -0.105 8.125 -1.125 8.125 C-1.125 7.135 -1.125 6.145 -1.125 5.125 C0.855 5.125 2.835 5.125 4.875 5.125 C4.125 10.875 4.125 10.875 1.875 13.125 C-0.625 13.375 -0.625 13.375 -3.125 13.125 C-5.125 11.125 -5.125 11.125 -5.390625 9.03125 C-5.38289062 7.84015625 -5.38289062 7.84015625 -5.375 6.625 C-5.38015625 5.8309375 -5.3853125 5.036875 -5.390625 4.21875 C-4.9221169 0.52580383 -3.55221903 0.14208876 0 0 Z " fill="#000000" transform="translate(183.125,60.875)"/>
<path d="M0 0 C0.66 0 1.32 0 2 0 C2 0.99 2 1.98 2 3 C2.99 3 3.98 3 5 3 C5 2.01 5 1.02 5 0 C5.99 0 6.98 0 8 0 C9.3271261 3.9813783 9.06915913 7.85045227 9 12 C7.68 11.67 6.36 11.34 5 11 C5 8.69 5 6.38 5 4 C4.01 4 3.02 4 2 4 C2 5.98 2 7.96 2 10 C2.66 10 3.32 10 4 10 C4 10.66 4 11.32 4 12 C2.68 11.67 1.36 11.34 0 11 C-1.125 3.375 -1.125 3.375 0 0 Z " fill="#000000" transform="translate(198,62)"/>
<path d="M0 0 C0.66 0 1.32 0 2 0 C2.33 0.99 2.66 1.98 3 3 C5.01508358 3.73323796 5.01508358 3.73323796 7 4 C7.625 6.8125 7.625 6.8125 8 10 C7.01 11.485 7.01 11.485 6 13 C4.02 13 2.04 13 0 13 C0 8.71 0 4.42 0 0 Z M3 6 C2.67 7.32 2.34 8.64 2 10 C2.99 10.33 3.98 10.66 5 11 C5 9.35 5 7.7 5 6 C4.34 6 3.68 6 3 6 Z " fill="#000000" transform="translate(255,61)"/>
<path d="M0 0 C0.66 0 1.32 0 2 0 C2 0.99 2 1.98 2 3 C2.99 3 3.98 3 5 3 C5 2.01 5 1.02 5 0 C5.66 0 6.32 0 7 0 C7 0.99 7 1.98 7 3 C7.66 3.33 8.32 3.66 9 4 C8.34 4 7.68 4 7 4 C7.66 6.64 8.32 9.28 9 12 C7.68 11.67 6.36 11.34 5 11 C5 8.69 5 6.38 5 4 C4.01 4 3.02 4 2 4 C2 5.98 2 7.96 2 10 C2.66 10 3.32 10 4 10 C4 10.66 4 11.32 4 12 C2.68 11.67 1.36 11.34 0 11 C-1.125 3.375 -1.125 3.375 0 0 Z " fill="#000000" transform="translate(273,62)"/>
<path d="M0 0 C0.66 0 1.32 0 2 0 C2.33 0.99 2.66 1.98 3 3 C5.01508358 3.73323796 5.01508358 3.73323796 7 4 C7.09765625 10.15234375 7.09765625 10.15234375 7 12 C6.67 12.33 6.34 12.66 6 13 C4.02 13 2.04 13 0 13 C0 8.71 0 4.42 0 0 Z M3 5 C2.67 6.65 2.34 8.3 2 10 C2.99 10 3.98 10 5 10 C4.67 8.35 4.34 6.7 4 5 C3.67 5 3.34 5 3 5 Z " fill="#000000" transform="translate(221,61)"/>
<path d="M0 0 C0.33 1.65 0.66 3.3 1 5 C0.01 5.495 0.01 5.495 -1 6 C-0.34 6 0.32 6 1 6 C0.67 6.99 0.34 7.98 0 9 C-2.375 9.1875 -2.375 9.1875 -5 9 C-7 6 -7 6 -6.75 2.875 C-6.37875 1.451875 -6.37875 1.451875 -6 0 C-3.50907189 -1.24546405 -2.58919267 -0.7767578 0 0 Z M-3 1 C-3.33 1.66 -3.66 2.32 -4 3 C-3.01 2.67 -2.02 2.34 -1 2 C-1.66 1.67 -2.32 1.34 -3 1 Z " fill="#000000" transform="translate(236,65)"/>
<path d="M0 0 C2.625 0.375 2.625 0.375 5 1 C5.33 2.65 5.66 4.3 6 6 C5.01 6.33 4.02 6.66 3 7 C3.66 7 4.32 7 5 7 C4.67 7.99 4.34 8.98 4 10 C-0.875 9.125 -0.875 9.125 -2 8 C-2.1875 5.0625 -2.1875 5.0625 -2 2 C-1.34 1.34 -0.68 0.68 0 0 Z M1 2 C0.67 2.66 0.34 3.32 0 4 C0.99 3.67 1.98 3.34 3 3 C2.34 2.67 1.68 2.34 1 2 Z " fill="#000000" transform="translate(285,64)"/>
<path d="M0 0 C0 2.97 0 5.94 0 9 C-1.98 9 -3.96 9 -6 9 C-6.33 7.35 -6.66 5.7 -7 4 C-6.01 3.34 -5.02 2.68 -4 2 C-4.99 2 -5.98 2 -7 2 C-7 1.34 -7 0.68 -7 0 C-4.3333581 -1.33332095 -2.83319697 -0.67102033 0 0 Z M-5 5 C-5 5.66 -5 6.32 -5 7 C-4.01 6.67 -3.02 6.34 -2 6 C-2.99 5.67 -3.98 5.34 -5 5 Z " fill="#000000" transform="translate(215,65)"/>
<path d="M0 0 C0.33 1.65 0.66 3.3 1 5 C0.01 5.495 0.01 5.495 -1 6 C-0.34 6 0.32 6 1 6 C0.67 6.99 0.34 7.98 0 9 C-1.66611905 9.042721 -3.33382885 9.04063832 -5 9 C-6 8 -6 8 -6.09765625 6.15234375 C-6.06510417 4.1015625 -6.03255208 2.05078125 -6 0 C-3.50907189 -1.24546405 -2.58919267 -0.7767578 0 0 Z M-3 1 C-3.33 1.66 -3.66 2.32 -4 3 C-3.01 2.67 -2.02 2.34 -1 2 C-1.66 1.67 -2.32 1.34 -3 1 Z " fill="#000000" transform="translate(270,65)"/>
<path d="M0 0 C0 2.97 0 5.94 0 9 C-1.98 9 -3.96 9 -6 9 C-6.33 7.35 -6.66 5.7 -7 4 C-6.01 3.34 -5.02 2.68 -4 2 C-4.99 2 -5.98 2 -7 2 C-7 1.34 -7 0.68 -7 0 C-4.3333581 -1.33332095 -2.83319697 -0.67102033 0 0 Z M-5 5 C-5 5.66 -5 6.32 -5 7 C-4.01 7 -3.02 7 -2 7 C-2 6.34 -2 5.68 -2 5 C-2.99 5 -3.98 5 -5 5 Z " fill="#000000" transform="translate(249,65)"/>
<path d="M0 0 C0.09765625 6.15234375 0.09765625 6.15234375 0 8 C-1 9 -1 9 -3.5 9.125 C-6 9 -6 9 -7 8 C-7.14115161 5.32941149 -7.04247107 2.67567762 -7 0 C-4.3333581 -1.33332095 -2.83319697 -0.67102033 0 0 Z M-4 1 C-4.33 2.65 -4.66 4.3 -5 6 C-4.01 6 -3.02 6 -2 6 C-2.33 4.35 -2.66 2.7 -3 1 C-3.33 1 -3.66 1 -4 1 Z " fill="#000000" transform="translate(196,65)"/>
<path d="M0 0 C1.65 0 3.3 0 5 0 C5.33 0.99 5.66 1.98 6 3 C4.68 3 3.36 3 2 3 C2 5.31 2 7.62 2 10 C1.34 10 0.68 10 0 10 C0 6.7 0 3.4 0 0 Z " fill="#000000" transform="translate(292,64)"/>
</svg>
