<?xml version="1.0" encoding="UTF-8"?>
<svg version="1.1" xmlns="http://www.w3.org/2000/svg" width="500" height="411">
<path d="M0 0 C165 0 330 0 500 0 C500 135.63 500 271.26 500 411 C335 411 170 411 0 411 C0 275.37 0 139.74 0 0 Z " fill="#2D407E" transform="translate(0,0)"/>
<path d="M0 0 C0.7619221 -0.00265183 1.5238442 -0.00530365 2.30885485 -0.00803584 C4.88275946 -0.01574492 7.45661649 -0.01628863 10.03053188 -0.01688576 C11.88628003 -0.02089933 13.74202729 -0.02533737 15.59777349 -0.03016531 C20.71379846 -0.04214854 25.82981399 -0.04778332 30.94585025 -0.05234647 C36.45729403 -0.05829597 41.96872648 -0.06990747 47.48016262 -0.08063698 C60.79905814 -0.10517639 74.11795741 -0.11979062 87.43686858 -0.13269705 C91.19762432 -0.13640793 94.95837968 -0.14038125 98.71913505 -0.14444971 C122.06372687 -0.16968572 145.40831965 -0.19175899 168.75292206 -0.20417786 C174.16206331 -0.20709918 179.57120453 -0.2100667 184.98034573 -0.21308327 C185.65236353 -0.21345418 186.32438134 -0.21382509 187.01676332 -0.21420723 C208.80117202 -0.22636053 230.5854999 -0.25730062 252.36987064 -0.29900479 C275.40078369 -0.34301491 298.43165866 -0.36871309 321.46261877 -0.37409842 C334.0172647 -0.37751412 346.57178312 -0.38928805 359.1263895 -0.42220116 C369.81811867 -0.45018426 380.5096942 -0.46120859 391.20145715 -0.4500057 C396.65688248 -0.44481461 402.11198599 -0.44773542 407.56736469 -0.47247124 C412.56347465 -0.49493556 417.55903108 -0.4942455 422.55515056 -0.47526737 C424.36075262 -0.47246343 426.16639198 -0.47808774 427.97193397 -0.4930803 C446.15737003 -0.63482943 446.15737003 -0.63482943 453.61535549 5.13701439 C471.66635528 24.34370299 459.61535549 68.14108334 459.61535549 83.13701439 C300.55535549 83.13701439 141.49535549 83.13701439 -22.38464451 83.13701439 C-22.38464451 12.42108349 -22.38464451 12.42108349 -16.34948826 5.95732689 C-15.68046482 5.39787376 -15.01144138 4.83842064 -14.32214451 4.26201439 C-13.65054295 3.68709251 -12.97894138 3.11217064 -12.28698826 2.51982689 C-8.43500977 -0.2801739 -4.55004511 -0.0076456 0 0 Z " fill="#FCFCFD" transform="translate(31.384644508361816,8.862985610961914)"/>
<path d="M0 0 C1.28833269 3.86499808 0.44555696 5.33044773 -0.87890625 9.15234375 C-1.5145752 11.01475708 -1.5145752 11.01475708 -2.16308594 12.91479492 C-2.39153198 13.57128021 -2.61997803 14.2277655 -2.85534668 14.90414429 C-4.04341656 18.32033228 -5.20204886 21.746491 -6.36328125 25.171875 C-6.59413422 25.85058151 -6.82498718 26.52928802 -7.06283569 27.2285614 C-8.91100789 32.68170759 -10.62847505 38.16326445 -12.25 43.6875 C-14.20375587 50.33496783 -16.21924065 56.95745202 -18.3125 63.5625 C-18.56741211 64.3671167 -18.82232422 65.1717334 -19.08496094 66.00073242 C-20.03983578 69.0063736 -21.00270958 72.00812874 -22 75 C-14.08 75 -6.16 75 2 75 C-3.27652927 92.35166357 -8.57904016 109.69291921 -14 127 C-9.05 127 -4.1 127 1 127 C1.37898438 125.14181641 1.37898438 125.14181641 1.765625 123.24609375 C3.06705363 117.39993937 4.89397047 111.75248233 6.75 106.0625 C7.10199463 104.97380615 7.45398926 103.8851123 7.81665039 102.76342773 C8.87199581 99.50703575 9.93430404 96.25301802 11 93 C11.31114746 92.04996094 11.62229492 91.09992188 11.94287109 90.12109375 C12.77074253 87.60032844 13.60246388 85.08090013 14.4375 82.5625 C14.6840332 81.81814697 14.93056641 81.07379395 15.18457031 80.30688477 C16.87684442 75.24631115 16.87684442 75.24631115 18 73 C15.69 73 13.38 73 11 73 C12.3134881 70.22924752 13.77552964 67.78020408 15.58203125 65.3046875 C16.35160156 64.24507812 16.35160156 64.24507812 17.13671875 63.1640625 C17.68972656 62.40867188 18.24273437 61.65328125 18.8125 60.875 C19.99617117 59.24745214 21.17976273 57.61984637 22.36328125 55.9921875 C22.96865723 55.16170898 23.5740332 54.33123047 24.19775391 53.47558594 C26.97655087 49.65859851 29.73794833 45.82911222 32.5 42 C33.5793197 40.5051308 34.65874722 39.01033943 35.73828125 37.515625 C36.27404785 36.77376953 36.80981445 36.03191406 37.36181641 35.26757812 C39.02573094 32.96438316 40.69050407 30.66181092 42.35546875 28.359375 C42.90807373 27.5947998 43.46067871 26.83022461 44.0300293 26.04248047 C45.12317343 24.53053122 46.21706966 23.01912542 47.31176758 21.50830078 C49.89136877 17.94322953 52.45143688 14.36719528 54.96875 10.7578125 C55.42934814 10.10071289 55.88994629 9.44361328 56.36450195 8.76660156 C57.22551093 7.53554462 58.08112148 6.3006884 58.93041992 5.06152344 C59.90445069 3.67189235 60.94590029 2.32991891 62 1 C62.66 1 63.32 1 64 1 C62.18584022 7.06944373 60.3528058 13.13281074 58.50195312 19.19116211 C55.26928752 29.77562208 52.09630827 40.37495317 49 51 C48.37896293 53.12762071 47.75786468 55.25522357 47.13671875 57.3828125 C45.42264516 63.25467588 43.71145227 69.12736966 42 75 C50.25 75 58.5 75 67 75 C64.96122027 82.47552567 62.82878758 89.79915681 60.37060547 97.13110352 C60.02064514 98.18288284 59.67068481 99.23466217 59.31011963 100.3183136 C58.16539518 103.75615886 57.01639194 107.19255623 55.8671875 110.62890625 C55.06652281 113.029707 54.26608071 115.43058199 53.46585083 117.83152771 C51.79501056 122.84249016 50.12224014 127.85280375 48.44775391 132.86254883 C46.51196795 138.65411158 44.57936248 144.44672785 42.6485337 150.23994499 C40.78602229 155.82808893 38.92176713 161.41564971 37.05661392 167.00291252 C36.26440498 169.37635198 35.47256213 171.74991367 34.68108749 174.1235981 C33.57910466 177.42738831 32.47515258 180.73051362 31.37060547 184.03344727 C30.8781282 185.51155884 30.8781282 185.51155884 30.3757019 187.01953125 C30.07575317 187.91511246 29.77580444 188.81069366 29.46676636 189.7334137 C29.20610823 190.51371224 28.9454501 191.29401079 28.67689323 192.09795475 C28 194 28 194 27 196 C29.31 196 31.62 196 34 196 C32.40511262 201.2140549 29.10734666 204.94463208 25.75 209.125 C20.70834652 215.49752475 15.7875918 221.93445065 11 228.5 C5.76675828 235.66139435 0.39722299 242.69964495 -5.07080078 249.68310547 C-9.80071593 255.72575815 -14.43067423 261.83503665 -19 268 C-20.38078668 263.85763997 -18.8581225 261.06282887 -17.4375 257.125 C-15.04196319 250.24213829 -12.8932884 243.33285206 -10.9375 236.3125 C-8.87574272 228.94802888 -6.63472872 221.68978607 -4.1640625 214.453125 C-2.61755177 209.86548913 -1.2027093 205.24171424 0.203125 200.609375 C0.77657617 198.73160352 1.37912385 196.86262846 2 195 C-5.26 195 -12.52 195 -20 195 C-18.30620714 187.7790936 -16.32228512 180.80298608 -13.90966797 173.78979492 C-12.38904956 169.31393723 -11.11804226 164.82808711 -9.9375 160.25 C-8.32548341 154.0059031 -6.34676162 148.00421458 -4 142 C-4.66386719 142.01160156 -5.32773438 142.02320313 -6.01171875 142.03515625 C-6.89472656 142.04417969 -7.77773437 142.05320312 -8.6875 142.0625 C-9.55761719 142.07410156 -10.42773438 142.08570313 -11.32421875 142.09765625 C-13.99119418 142.00032138 -16.39471655 141.55159481 -19 141 C-19.17804169 141.60812531 -19.35608337 142.21625061 -19.53952026 142.84280396 C-21.32682931 148.88247858 -23.2641019 154.85176379 -25.3203125 160.8046875 C-25.62444061 161.69108917 -25.92856873 162.57749084 -26.24191284 163.49075317 C-27.20112346 166.28613085 -28.16278293 169.08065589 -29.125 171.875 C-30.09425597 174.69080174 -31.06291704 177.50679994 -32.0295105 180.32351685 C-32.627804 182.06695955 -33.22761237 183.80988334 -33.82913208 185.55221558 C-34.23492996 186.73462326 -34.23492996 186.73462326 -34.64892578 187.94091797 C-34.88636505 188.63023407 -35.12380432 189.31955017 -35.36843872 190.02975464 C-36.00134794 192.00420509 -36.52012456 193.98340952 -37 196 C-35.02 196 -33.04 196 -31 196 C-32.27242652 198.66148909 -33.65600662 201.07233827 -35.36328125 203.4765625 C-35.83113037 204.137771 -36.29897949 204.79897949 -36.78100586 205.48022461 C-37.28639893 206.18800049 -37.79179199 206.89577637 -38.3125 207.625 C-38.84302979 208.37209229 -39.37355957 209.11918457 -39.92016602 209.88891602 C-46.45654317 219.07701411 -53.07276013 228.20782327 -59.69384766 237.33496094 C-66.5717632 246.81751921 -73.38788898 256.32957406 -80 266 C-81.18087646 262.45737061 -80.81267934 261.95778759 -79.4375 258.625 C-77.31440896 253.09764229 -75.65713617 247.50843209 -74.0625 241.8125 C-71.73587361 233.53778364 -69.28746964 225.32180177 -66.67822266 217.13183594 C-65.64152187 213.87320697 -64.61470386 210.61146922 -63.58666992 207.35009766 C-62.39288876 203.56617117 -61.19615179 199.78317776 -60 196 C-71.385 195.505 -71.385 195.505 -83 195 C-82.25718979 189.80032855 -81.5577087 186.35021324 -79.75 181.625 C-77.90284473 176.60304661 -76.22603072 171.58219751 -74.75 166.4375 C-68.29385979 144.09049732 -61.09453342 121.96270959 -54 99.8125 C-53.6131604 98.60323853 -53.2263208 97.39397705 -52.82775879 96.14807129 C-51.72035039 92.68796323 -50.61058807 89.22861987 -49.5 85.76953125 C-49.16184265 84.71250504 -48.8236853 83.65547882 -48.47528076 82.56642151 C-48.16375061 81.59808884 -47.85222046 80.62975616 -47.53125 79.63208008 C-47.25861328 78.78245193 -46.98597656 77.93282379 -46.70507812 77.05744934 C-46 75 -46 75 -45 73 C-46.98 73 -48.96 73 -51 73 C-49.72757348 70.33851091 -48.34399338 67.92766173 -46.63671875 65.5234375 C-46.16878906 64.86214844 -45.70085937 64.20085937 -45.21875 63.51953125 C-44.7134375 62.81183594 -44.208125 62.10414063 -43.6875 61.375 C-43.15769531 60.62863281 -42.62789062 59.88226563 -42.08203125 59.11328125 C-37.70983274 52.96551856 -33.29045241 46.85197417 -28.86474609 40.74267578 C-24.64201351 34.9075583 -20.47561711 29.03452194 -16.33056641 23.14404297 C-12.61876415 17.87003019 -8.87948225 12.6163623 -5.12036133 7.37597656 C-3.37474128 4.93968057 -1.66278487 2.49417731 0 0 Z " fill="#FCFCFD" transform="translate(246,118)"/>
<path d="M0 0 C3.02250406 -0.31260653 5.84185448 -0.43007862 8.8684082 -0.41992188 C9.787258 -0.42839142 10.70610779 -0.43686096 11.65280151 -0.44558716 C14.70226743 -0.46906084 17.75123167 -0.46997666 20.80078125 -0.46875 C22.9158702 -0.47584667 25.03095721 -0.48354494 27.14604187 -0.49182129 C31.58561549 -0.50529091 36.02501123 -0.50682433 40.46459961 -0.50097656 C46.15460041 -0.49508629 51.84374625 -0.52563305 57.53358173 -0.56609344 C61.90450134 -0.59194574 66.27521465 -0.59484993 70.64620018 -0.59120178 C72.74377779 -0.59289617 74.84136461 -0.60256921 76.93886757 -0.62034607 C79.87429498 -0.64248049 82.80798674 -0.63286079 85.7434082 -0.61523438 C86.61060989 -0.62849762 87.47781158 -0.64176086 88.37129211 -0.65542603 C92.74618746 -0.59438327 94.47933376 -0.40352096 98.04930115 2.36323547 C100.49191721 5.66492572 100.59072981 6.96324354 100 11 C99.25052109 13.77458784 98.44607979 16.43341663 97.515625 19.14453125 C97.25875916 19.91375412 97.00189331 20.68297699 96.73724365 21.47550964 C96.19335357 23.09814659 95.64510739 24.71932916 95.09277344 26.33911133 C94.25729146 28.79110087 93.43612698 31.24752057 92.6171875 33.70507812 C85.10440236 56.09996516 85.10440236 56.09996516 79 60 C79.66 60.99 80.32 61.98 81 63 C80.70117828 69.098303 78.55722691 74.47145535 76.39453125 80.1328125 C76.03284348 81.08767548 75.6711557 82.04253845 75.29850769 83.02633667 C74.53333001 85.03650132 73.76406823 87.04511556 72.9909668 89.05224609 C71.81615639 92.11546627 70.66853242 95.18801339 69.52148438 98.26171875 C68.77248414 100.21938239 68.02188609 102.17643562 67.26953125 104.1328125 C66.93178177 105.04749298 66.59403229 105.96217346 66.24604797 106.90457153 C63.77836536 113.19297133 61.19692211 116.90153894 55 120 C51.97911536 120.09350611 48.98141878 120.12572242 45.96044922 120.11352539 C45.02381439 120.11367142 44.08717957 120.11381744 43.12216187 120.1139679 C40.01631378 120.11326944 36.91052515 120.10548015 33.8046875 120.09765625 C31.65520256 120.09579183 29.5057172 120.09436804 27.35623169 120.09336853 C21.69104851 120.08954522 16.02589085 120.07971651 10.36071777 120.06866455 C4.58292994 120.05844644 -1.194862 120.05387005 -6.97265625 120.04882812 C-18.3151154 120.03809409 -29.65755558 120.02101989 -41 120 C-41.15831788 114.82073972 -40.15502505 111.72723466 -38 107 C-37.22969452 104.51913079 -36.50100564 102.04852902 -35.80859375 99.546875 C-32.59683477 88.32532765 -28.82745955 77.29569676 -25.0625 66.25 C-24.69438202 65.167258 -24.32626404 64.08451599 -23.94699097 62.96896362 C-18.87719526 48.08109909 -13.63579625 33.26959699 -8.0625 18.5625 C-7.76586456 17.77742065 -7.46922913 16.99234131 -7.16360474 16.18347168 C-2.38686429 3.58029644 -2.38686429 3.58029644 0 0 Z " fill="#FDFDFD" transform="translate(82,193)"/>
<path d="M0 0 C23.43 0 46.86 0 71 0 C70 7 70 7 68 12 C55.625 12.495 55.625 12.495 43 13 C41.30777488 17.91077094 39.61657458 22.82187018 37.92797852 27.73388672 C37.35338496 29.40434122 36.7781946 31.07459057 36.20239258 32.74462891 C35.37423746 35.14692184 34.54824051 37.54994753 33.72265625 39.953125 C33.33667015 41.0705307 33.33667015 41.0705307 32.94288635 42.21051025 C31.8311824 45.45260137 30.79805354 48.66742076 30 52 C30.99966797 51.98259766 30.99966797 51.98259766 32.01953125 51.96484375 C38.74230945 51.89902634 45.317439 52.27616361 52 53 C52.43435229 61.54226171 52.43435229 61.54226171 49 66 C46.36450195 66.56762695 46.36450195 66.56762695 43.23828125 66.48828125 C42.12001953 66.47216797 41.00175781 66.45605469 39.84960938 66.43945312 C38.68236328 66.39755859 37.51511719 66.35566406 36.3125 66.3125 C35.13365234 66.28994141 33.95480469 66.26738281 32.74023438 66.24414062 C29.82555452 66.18513901 26.91340839 66.10286341 24 66 C23.78601563 67.16402344 23.57203125 68.32804687 23.3515625 69.52734375 C21.74350547 76.7636004 18.9709016 83.63654943 16.375 90.5625 C15.85363074 91.96659799 15.33279306 93.37089349 14.8125 94.77539062 C13.54874985 98.18630863 12.27419997 101.59290009 11 105 C18.59 105.66 26.18 106.32 34 107 C34 113.29675193 33.93683977 114.98289872 31 120 C21.89040835 120.02312545 12.78082674 120.04091612 3.6712122 120.05181217 C-0.55831371 120.05704056 -4.7878196 120.0641374 -9.01733398 120.07543945 C-13.09568543 120.08626991 -17.17401757 120.09227717 -21.25238228 120.09487724 C-22.81177639 120.09673121 -24.3711694 120.10035127 -25.93055534 120.10573006 C-28.10729162 120.11294262 -30.28394714 120.11399085 -32.46069336 120.11352539 C-34.32267616 120.11685631 -34.32267616 120.11685631 -36.22227478 120.12025452 C-39 120 -39 120 -40 119 C-39.61161934 111.51083036 -37.59276875 104.99575215 -35.16015625 97.9375 C-34.76600525 96.77206161 -34.37185425 95.60662323 -33.96575928 94.40586853 C-32.89618981 91.25315382 -31.81797684 88.1036947 -30.73456192 84.95573044 C-30.06095904 82.99551574 -29.39091214 81.03412133 -28.72201538 79.07229614 C-20.92352224 56.2066055 -12.7553625 33.48324576 -4.33203125 10.83984375 C-3.84437286 9.52849709 -3.84437286 9.52849709 -3.34686279 8.19065857 C-2.90216644 7.00174767 -2.90216644 7.00174767 -2.44848633 5.78881836 C-2.19126297 5.10073593 -1.93403961 4.4126535 -1.66902161 3.70372009 C-1 2 -1 2 0 0 Z " fill="#FDFDFD" transform="translate(330,193)"/>
<path d="M0 0 C4.45831855 -0.02977098 8.91661066 -0.04705014 13.375 -0.0625 C14.60734375 -0.07087891 15.8396875 -0.07925781 17.109375 -0.08789062 C27.10570971 -0.11365437 37.0266742 0.36256377 47 1 C39.09594659 26.25348431 30.94943868 51.42424383 22.6875 76.5625 C22.44751408 77.29270355 22.20752815 78.0229071 21.96026993 78.77523804 C18.97700588 87.85130997 15.98986268 96.92609963 13 106 C20.59 106 28.18 106 36 106 C35 116 35 116 32 120 C28.94380188 120.48101807 28.94380188 120.48101807 25.1418457 120.45410156 C24.44890411 120.45468567 23.75596252 120.45526978 23.04202271 120.45587158 C20.75276501 120.45308592 18.46481129 120.42197404 16.17578125 120.390625 C14.58823864 120.38316425 13.00068682 120.37747053 11.41313171 120.37347412 C7.23553014 120.35820449 3.05848521 120.31891182 -1.11889648 120.2746582 C-5.38192209 120.23373381 -9.64503769 120.2154692 -13.90820312 120.1953125 C-22.27239082 120.15241832 -30.63612616 120.08415157 -39 120 C-39.49088437 112.87134435 -37.76655796 107.37341435 -35.37109375 100.69921875 C-34.98974777 99.60546936 -34.60840179 98.51171997 -34.21549988 97.38482666 C-32.96776119 93.8148644 -31.70276777 90.25128301 -30.4375 86.6875 C-29.57028699 84.21663573 -28.70424903 81.74535875 -27.83935547 79.27368164 C-26.0836115 74.26158242 -24.32128498 69.25190225 -22.55322266 64.24414062 C-20.20907646 57.6012001 -17.8864009 50.95100011 -15.57421875 44.296875 C-14.89722037 42.34936399 -14.22021852 40.40185419 -13.54321289 38.4543457 C-13.2222464 37.53094391 -12.90127991 36.60754211 -12.57058716 35.65615845 C-8.43041553 23.75274745 -4.26016589 11.86104609 0 0 Z " fill="#FDFDFD" transform="translate(412,193)"/>
<path d="M0 0 C35.31 0 70.62 0 107 0 C106.67 1.98 106.34 3.96 106 6 C103.36 6.33 100.72 6.66 98 7 C97.82460693 7.62640381 97.64921387 8.25280762 97.46850586 8.89819336 C97.21979736 9.78643799 96.97108887 10.67468262 96.71484375 11.58984375 C96.43463379 12.59072021 96.15442383 13.59159668 95.86572266 14.62280273 C95.24196431 16.85025329 94.6179367 19.07762845 93.99365234 21.30493164 C92.32672669 27.25364202 90.66442203 33.20357131 89.01171875 39.15625 C88.69533447 40.29328369 88.3789502 41.43031738 88.05297852 42.60180664 C87.44115394 44.80105926 86.83092787 47.00075729 86.22241211 49.20092773 C85.94534424 50.19552002 85.66827637 51.1901123 85.3828125 52.21484375 C85.01760498 53.53150024 85.01760498 53.53150024 84.64501953 54.87475586 C84 57 84 57 83 59 C79.37 59 75.74 59 72 59 C73.88259729 48.81604512 76.6662361 38.99436412 79.66235352 29.08984375 C79.96326904 28.08695313 80.26418457 27.0840625 80.57421875 26.05078125 C80.84838623 25.15012939 81.12255371 24.24947754 81.4050293 23.3215332 C82.12413008 20.9150802 82.12413008 20.9150802 82 18 C80.02 18 78.04 18 76 18 C75.58427734 19.82337891 75.58427734 19.82337891 75.16015625 21.68359375 C74.79446102 23.26827307 74.42856525 24.85290612 74.0625 26.4375 C73.88009766 27.23994141 73.69769531 28.04238281 73.50976562 28.86914062 C72.11328125 34.88671875 72.11328125 34.88671875 71 36 C69.31391034 36.07205511 67.62499341 36.08386068 65.9375 36.0625 C65.01839844 36.05347656 64.09929687 36.04445312 63.15234375 36.03515625 C62.44207031 36.02355469 61.73179687 36.01195312 61 36 C61.51553879 29.50149789 62.46667709 23.33773468 64 17 C61.03 17.495 61.03 17.495 58 18 C55.2130925 26.53198496 52.90409105 35.11105174 50.83911133 43.84277344 C49.57650225 49.07618149 47.98712126 53.99475833 46 59 C42.37 59 38.74 59 35 59 C35.6753734 52.52919267 37.49641 46.52659627 39.375 40.3125 C39.98936814 38.26764332 40.60134982 36.22206811 41.2109375 34.17578125 C41.51483398 33.16338379 41.81873047 32.15098633 42.13183594 31.10791016 C43.01714101 27.93863751 43.71413565 24.75761168 44.4140625 21.54296875 C45.62676072 16.74106227 46.58646882 13.69189904 51 11 C54.24144975 10.39547333 57.33907828 10.43554393 60.625 10.5625 C61.48351562 10.56830078 62.34203125 10.57410156 63.2265625 10.58007812 C69.55553634 10.7036909 69.55553634 10.7036909 73 13 C73.66 12.34 74.32 11.68 75 11 C77.3828125 10.5859375 77.3828125 10.5859375 80.125 10.375 C81.03507812 10.30023438 81.94515625 10.22546875 82.8828125 10.1484375 C83.93082031 10.07496094 83.93082031 10.07496094 85 10 C85.33 8.68 85.66 7.36 86 6 C71.15 6 56.3 6 41 6 C40.34 9.3 39.68 12.6 39 16 C38.3607732 18.63181659 37.69648158 21.25775281 37 23.875 C36.67 25.13054688 36.34 26.38609375 36 27.6796875 C33.99509323 34.33660451 33.99509323 34.33660451 30 37 C26.86328125 37.1953125 26.86328125 37.1953125 23.3125 37.125 C22.13300781 37.10695312 20.95351563 37.08890625 19.73828125 37.0703125 C18.38283203 37.03550781 18.38283203 37.03550781 17 37 C17.1875 34.125 17.1875 34.125 18 31 C18.77859375 30.75121094 19.5571875 30.50242187 20.359375 30.24609375 C23.11730376 29.28221488 23.11730376 29.28221488 23.95507812 27.03173828 C24.81184767 24.39278485 25.55284954 21.74802852 26.25 19.0625 C26.50523437 18.14275391 26.76046875 17.22300781 27.0234375 16.27539062 C27.49673802 14.56777217 27.96151849 12.85775328 28.41503906 11.14477539 C28.88720968 9.41354881 29.43254158 7.70237525 30 6 C23.565 6.495 23.565 6.495 17 7 C16.17925145 9.97710638 15.36827916 12.95633909 14.5625 15.9375 C14.21735352 17.18370117 14.21735352 17.18370117 13.86523438 18.45507812 C13.19263047 20.96028398 12.58787753 23.4736953 12 26 C11.79882568 26.73105957 11.59765137 27.46211914 11.39038086 28.21533203 C9.82857776 35.67662532 13.61379502 40.81148055 17.4375 47 C18.66629719 49.06194451 19.89421339 51.12441438 21.12109375 53.1875 C21.6720874 54.08855469 22.22308105 54.98960938 22.79077148 55.91796875 C24 58 24 58 24 59 C19.71 59 15.42 59 11 59 C8.97870383 55.5108578 6.98316084 52.01073067 5 48.5 C4.42765625 47.51773438 3.8553125 46.53546875 3.265625 45.5234375 C-1.23039293 37.49483406 -2.15282408 32.91014815 0.27734375 23.94921875 C0.81940659 22.19178015 1.37299325 20.43785845 1.9375 18.6875 C2.21529297 17.79482422 2.49308594 16.90214844 2.77929688 15.98242188 C3.82177312 12.64398591 4.89401899 9.31794303 6 6 C3.69 6 1.38 6 -1 6 C-0.67 4.02 -0.34 2.04 0 0 Z " fill="#314481" transform="translate(346,26)"/>
<path d="M0 0 C0.96615234 -0.00386719 1.93230469 -0.00773438 2.92773438 -0.01171875 C4.43110352 0.00568359 4.43110352 0.00568359 5.96484375 0.0234375 C6.97095703 0.01183594 7.97707031 0.00023437 9.01367188 -0.01171875 C9.97853516 -0.00785156 10.94339844 -0.00398437 11.9375 0 C12.81801025 0.00338379 13.69852051 0.00676758 14.60571289 0.01025391 C16.90234375 0.3984375 16.90234375 0.3984375 18.72827148 1.70458984 C19.90234375 3.3984375 19.90234375 3.3984375 19.65234375 6.8984375 C18.90234375 10.3984375 18.90234375 10.3984375 17.90234375 13.3984375 C21.53234375 13.3984375 25.16234375 13.3984375 28.90234375 13.3984375 C28.57234375 15.3784375 28.24234375 17.3584375 27.90234375 19.3984375 C23.94234375 19.3984375 19.98234375 19.3984375 15.90234375 19.3984375 C15.69480469 20.419375 15.48726563 21.4403125 15.2734375 22.4921875 C12.91590735 33.73548939 9.87714146 44.7036031 6.5859375 55.70703125 C4.92975788 61.24646836 3.4042669 66.81530069 1.90234375 72.3984375 C-1.72765625 72.3984375 -5.35765625 72.3984375 -9.09765625 72.3984375 C-7.30611292 58.54501831 -2.92510115 45.15875672 1.15673828 31.84082031 C2.42138653 27.69820701 3.66136251 23.54819111 4.90234375 19.3984375 C2.59234375 19.7284375 0.28234375 20.0584375 -2.09765625 20.3984375 C-2.30334229 21.12095703 -2.50902832 21.84347656 -2.72094727 22.58789062 C-7.45495438 39.20875731 -12.23771558 55.81388997 -17.09765625 72.3984375 C-21.05765625 72.3984375 -25.01765625 72.3984375 -29.09765625 72.3984375 C-28.43765625 69.7584375 -27.77765625 67.1184375 -27.09765625 64.3984375 C-27.68780518 64.38385498 -28.2779541 64.36927246 -28.88598633 64.35424805 C-31.56136854 64.27974906 -34.23550517 64.18309755 -36.91015625 64.0859375 C-37.83892578 64.06337891 -38.76769531 64.04082031 -39.72460938 64.01757812 C-40.61728516 63.98212891 -41.50996094 63.94667969 -42.4296875 63.91015625 C-43.66295776 63.87088013 -43.66295776 63.87088013 -44.92114258 63.83081055 C-47.5757696 63.30345839 -48.48729612 62.54590252 -50.09765625 60.3984375 C-51.1606224 53.41323137 -48.28151592 46.9500165 -46.09765625 40.3984375 C-45.75089844 39.27566406 -45.40414062 38.15289062 -45.046875 36.99609375 C-44.71300781 35.93261719 -44.37914063 34.86914062 -44.03515625 33.7734375 C-43.58462891 32.33097656 -43.58462891 32.33097656 -43.125 30.859375 C-42.0317303 28.24051601 -41.32529158 27.12104043 -39.09765625 25.3984375 C-36.55395508 24.96606445 -36.55395508 24.96606445 -33.5546875 24.88671875 C-32.48154297 24.85126953 -31.40839844 24.81582031 -30.30273438 24.77929688 C-29.18318359 24.75673828 -28.06363281 24.73417969 -26.91015625 24.7109375 C-25.21342773 24.65969727 -25.21342773 24.65969727 -23.48242188 24.60742188 C-20.68759885 24.52487436 -17.89309227 24.45574568 -15.09765625 24.3984375 C-14.76765625 22.7484375 -14.43765625 21.0984375 -14.09765625 19.3984375 C-29.60765625 19.3984375 -45.11765625 19.3984375 -61.09765625 19.3984375 C-60.76765625 17.4184375 -60.43765625 15.4384375 -60.09765625 13.3984375 C-44.25765625 13.0684375 -28.41765625 12.7384375 -12.09765625 12.3984375 C-11.10765625 9.4284375 -10.11765625 6.4584375 -9.09765625 3.3984375 C-6.29746273 0.34547667 -4.0594505 0.01558046 0 0 Z " fill="#304380" transform="translate(108.09765625,12.6015625)"/>
<path d="M0 0 C34.65 0 69.3 0 105 0 C104.67 1.98 104.34 3.96 104 6 C100.7 6 97.4 6 94 6 C93.88519287 6.80703369 93.77038574 7.61406738 93.65209961 8.44555664 C92.87604046 12.67567461 91.7497088 16.73968754 90.56640625 20.87109375 C90.20940895 22.13192528 90.20940895 22.13192528 89.84519958 23.41822815 C89.08732021 26.09218692 88.32497804 28.76484934 87.5625 31.4375 C87.05374198 33.22973414 86.54527555 35.02205108 86.03710938 36.81445312 C84.89338869 40.84584121 83.74903334 44.87703667 82.59500122 48.90548706 C82.20024137 50.29511381 81.81220629 51.68666956 81.43112183 53.08010864 C80.10438833 57.89561167 80.10438833 57.89561167 79 59 C77.14712498 59.07226502 75.29166122 59.0838122 73.4375 59.0625 C72.42558594 59.05347656 71.41367188 59.04445312 70.37109375 59.03515625 C69.58863281 59.02355469 68.80617188 59.01195312 68 59 C69.875 51.25 69.875 51.25 71 49 C70.34402832 49.01571045 69.68805664 49.0314209 69.01220703 49.04760742 C66.04989184 49.10983652 63.0877139 49.14895168 60.125 49.1875 C59.09246094 49.21263672 58.05992187 49.23777344 56.99609375 49.26367188 C56.00996094 49.27333984 55.02382812 49.28300781 54.0078125 49.29296875 C53.09660645 49.3086792 52.18540039 49.32438965 51.24658203 49.34057617 C50.13452393 49.17199097 50.13452393 49.17199097 49 49 C46.4569009 45.18535134 46.64458515 43.55740817 47 39 C47.80428798 35.50435892 48.85144718 32.10471425 49.9375 28.6875 C50.21529297 27.78193359 50.49308594 26.87636719 50.77929688 25.94335938 C52.81121575 19.37756849 52.81121575 19.37756849 54 17 C51.36 17 48.72 17 46 17 C45.957279 15.33388095 45.95936168 13.66617115 46 12 C47 11 47 11 49.50024414 10.88647461 C50.58426514 10.89171143 51.66828613 10.89694824 52.78515625 10.90234375 C53.95498047 10.90556641 55.12480469 10.90878906 56.33007812 10.91210938 C57.56177734 10.92048828 58.79347656 10.92886719 60.0625 10.9375 C61.91584961 10.94426758 61.91584961 10.94426758 63.80664062 10.95117188 C66.87114117 10.96300392 69.93554721 10.97948827 73 11 C72.34 12.98 71.68 14.96 71 17 C69.35 17 67.7 17 66 17 C65.62875 18.85625 65.62875 18.85625 65.25 20.75 C64.15743044 25.74573473 62.52743406 30.49092317 60.8046875 35.30078125 C59.80953773 38.16944536 59.80953773 38.16944536 60 42 C64.29 42.33 68.58 42.66 73 43 C73.11601562 41.86175781 73.23203125 40.72351563 73.3515625 39.55078125 C73.9279301 34.95298569 75.07871165 30.62805918 76.375 26.1875 C76.79982551 24.70192191 77.22429992 23.21624339 77.6484375 21.73046875 C78.31746094 19.38888672 78.31746094 19.38888672 79 17 C79.99 13.37 80.98 9.74 82 6 C68.14 6 54.28 6 40 6 C39.34 9.63 38.68 13.26 38 17 C37.2572974 20.03143918 36.48953612 23.00695407 35.625 26 C35.4290625 26.73605469 35.233125 27.47210938 35.03125 28.23046875 C34.16511425 31.2400164 33.33718049 33.61519088 31.2578125 35.98828125 C28.15453189 37.37885163 25.63447825 37.28903435 22.25 37.1875 C21.07953125 37.16042969 19.9090625 37.13335937 18.703125 37.10546875 C17.81109375 37.07066406 16.9190625 37.03585938 16 37 C16.3515625 34.046875 16.3515625 34.046875 17 31 C17.78375 30.7525 18.5675 30.505 19.375 30.25 C22.10986445 29.29307928 22.10986445 29.29307928 22.85546875 27.12109375 C23.6377072 24.42863764 24.3174981 21.71945343 25 19 C25.71701126 16.62130206 26.4463141 14.24627655 27.1875 11.875 C27.785625 9.93625 28.38375 7.9975 29 6 C22.565 6.495 22.565 6.495 16 7 C15.73445313 8.15757813 15.46890625 9.31515625 15.1953125 10.5078125 C14.83869236 12.04690993 14.48191309 13.58597048 14.125 15.125 C13.95097656 15.88554688 13.77695313 16.64609375 13.59765625 17.4296875 C12.82065248 20.76792592 12.03470898 23.90948443 10.8046875 27.1171875 C9.16942564 32.97555281 10.89372141 37.10850011 13.72265625 42.2421875 C14.82449481 44.12652938 15.93811531 46.00402388 17.0625 47.875 C18.17989349 49.76733949 19.29586215 51.6605213 20.41015625 53.5546875 C20.90652588 54.38468262 21.40289551 55.21467773 21.91430664 56.06982422 C23 58 23 58 23 59 C18.71 59 14.42 59 10 59 C9.30132812 57.66324219 8.60265625 56.32648438 7.8828125 54.94921875 C6.96362907 53.19526669 6.04435343 51.44136295 5.125 49.6875 C4.43470703 48.36588867 4.43470703 48.36588867 3.73046875 47.01757812 C3.28574219 46.17001953 2.84101563 45.32246094 2.3828125 44.44921875 C1.97434082 43.66893311 1.56586914 42.88864746 1.14501953 42.0847168 C-0.06940211 39.80312614 -0.06940211 39.80312614 -2 37 C-3.19471285 26.44670318 1.60771606 15.83762342 5 6 C3.02 6 1.04 6 -1 6 C-0.67 4.02 -0.34 2.04 0 0 Z " fill="#304380" transform="translate(146,26)"/>
<path d="M0 0 C1.01900391 -0.00257812 2.03800781 -0.00515625 3.08789062 -0.0078125 C4.15072266 -0.00007812 5.21355469 0.00765625 6.30859375 0.015625 C7.37529297 0.00789062 8.44199219 0.00015625 9.54101562 -0.0078125 C11.06758789 -0.00394531 11.06758789 -0.00394531 12.625 0 C14.02600952 0.00338379 14.02600952 0.00338379 15.45532227 0.00683594 C17.74609375 0.265625 17.74609375 0.265625 19.74609375 2.265625 C20.01601281 4.95401885 19.83346732 7.55704436 19.74609375 10.265625 C15.78609375 10.265625 11.82609375 10.265625 7.74609375 10.265625 C8.07609375 8.945625 8.40609375 7.625625 8.74609375 6.265625 C6.76609375 6.595625 4.78609375 6.925625 2.74609375 7.265625 C2.41609375 8.915625 2.08609375 10.565625 1.74609375 12.265625 C8.34609375 12.595625 14.94609375 12.925625 21.74609375 13.265625 C21.41609375 15.245625 21.08609375 17.225625 20.74609375 19.265625 C13.48609375 19.265625 6.22609375 19.265625 -1.25390625 19.265625 C-1.91390625 22.235625 -2.57390625 25.205625 -3.25390625 28.265625 C-3.58390625 28.925625 -3.91390625 29.585625 -4.25390625 30.265625 C-14.15390625 30.760625 -14.15390625 30.760625 -24.25390625 31.265625 C-24.91390625 33.905625 -25.57390625 36.545625 -26.25390625 39.265625 C-25.19429688 39.24242187 -24.1346875 39.21921875 -23.04296875 39.1953125 C-21.65495495 39.17655556 -20.26693355 39.15835528 -18.87890625 39.140625 C-18.18023437 39.12386719 -17.4815625 39.10710938 -16.76171875 39.08984375 C-14.92493139 39.07218233 -13.08788662 39.16259239 -11.25390625 39.265625 C-9.25390625 41.265625 -9.25390625 41.265625 -8.94140625 44.265625 C-9.14859249 50.45531392 -10.9570268 56.10415926 -14.12890625 61.390625 C-19.18270124 64.42290199 -24.50782362 63.64421024 -30.25390625 63.265625 C-30.38667969 63.89210937 -30.51945312 64.51859375 -30.65625 65.1640625 C-30.83285156 65.98132813 -31.00945312 66.79859375 -31.19140625 67.640625 C-31.36542969 68.45273438 -31.53945313 69.26484375 -31.71875 70.1015625 C-32.25390625 72.265625 -32.25390625 72.265625 -33.25390625 74.265625 C-36.88390625 74.265625 -40.51390625 74.265625 -44.25390625 74.265625 C-43.31760052 68.51403264 -43.31760052 68.51403264 -42.62890625 65.828125 C-42.09179534 63.08436182 -42.09179534 63.08436182 -42.87890625 59.640625 C-43.25390625 56.265625 -43.25390625 56.265625 -42.05859375 54.609375 C-39.88968828 52.9944324 -38.4293647 52.68492543 -35.75390625 52.390625 C-34.59375 52.23980469 -34.59375 52.23980469 -33.41015625 52.0859375 C-31.25390625 52.265625 -31.25390625 52.265625 -29.78515625 53.7578125 C-28.01829147 55.85031888 -28.01829147 55.85031888 -23.25390625 55.265625 C-22.59390625 51.965625 -21.93390625 48.665625 -21.25390625 45.265625 C-22.86072266 45.28302734 -22.86072266 45.28302734 -24.5 45.30078125 C-25.89713368 45.31015799 -27.29426924 45.31925831 -28.69140625 45.328125 C-29.39845703 45.33650391 -30.10550781 45.34488281 -30.83398438 45.35351562 C-32.64084184 45.36216088 -34.44778228 45.31782511 -36.25390625 45.265625 C-36.74890625 44.770625 -36.74890625 44.770625 -37.25390625 44.265625 C-37.24212678 42.18065894 -37.14383664 40.09592347 -37.00390625 38.015625 C-36.936875 36.87609375 -36.86984375 35.7365625 -36.80078125 34.5625 C-36.0624243 30.11126239 -34.41498951 27.42670826 -31.25390625 24.265625 C-28.35422868 23.95887268 -25.53607447 23.75389129 -22.62890625 23.640625 C-21.42621094 23.58261719 -21.42621094 23.58261719 -20.19921875 23.5234375 C-18.21783069 23.42908569 -16.2358998 23.34626285 -14.25390625 23.265625 C-13.92390625 21.945625 -13.59390625 20.625625 -13.25390625 19.265625 C-27.44390625 19.265625 -41.63390625 19.265625 -56.25390625 19.265625 C-55.92390625 17.285625 -55.59390625 15.305625 -55.25390625 13.265625 C-40.73390625 12.935625 -26.21390625 12.605625 -11.25390625 12.265625 C-10.26390625 8.965625 -9.27390625 5.665625 -8.25390625 2.265625 C-4.93820324 0.05515632 -3.86275856 0.00931828 0 0 Z " fill="#314381" transform="translate(315.25390625,12.734375)"/>
<path d="M0 0 C1.77007714 -0.08114106 3.54122098 -0.13925505 5.3125 -0.1875 C6.29863281 -0.22230469 7.28476563 -0.25710937 8.30078125 -0.29296875 C11 0 11 0 12.85620117 1.33300781 C14 3 14 3 13.98828125 5.859375 C12.82179777 11.86384478 10.38061128 17.56485315 8.1875 23.25 C7.52911133 25.02503906 7.52911133 25.02503906 6.85742188 26.8359375 C6.20676758 28.53363281 6.20676758 28.53363281 5.54296875 30.265625 C5.15133545 31.29461914 4.75970215 32.32361328 4.35620117 33.38378906 C2.89344333 36.20555558 1.72973244 37.41861251 -1 39 C-3.578125 39.29296875 -3.578125 39.29296875 -6.25 39.1875 C-7.58804688 39.14689453 -7.58804688 39.14689453 -8.953125 39.10546875 C-9.62859375 39.07066406 -10.3040625 39.03585938 -11 39 C-12.42392065 34.511372 -11.01092389 31.23456375 -9.47265625 26.953125 C-9.20488876 26.18192322 -8.93712128 25.41072144 -8.66123962 24.6161499 C-7.80490147 22.15716998 -6.93393748 19.70366442 -6.0625 17.25 C-5.47884603 15.58237101 -4.89615208 13.91440569 -4.31445312 12.24609375 C-2.8874067 8.16007842 -1.44722274 4.07891049 0 0 Z " fill="#314481" transform="translate(116,205)"/>
<path d="M0 0 C0.98871094 -0.01417969 1.97742188 -0.02835937 2.99609375 -0.04296875 C5.5625 0.1875 5.5625 0.1875 7.5625 2.1875 C7.94792737 7.11806847 7.27441208 10.82690068 5.515625 15.41796875 C5.0825 16.55041016 4.649375 17.68285156 4.203125 18.84960938 C3.74421875 20.01298828 3.2853125 21.17636719 2.8125 22.375 C2.3690625 23.54998047 1.925625 24.72496094 1.46875 25.93554688 C-2.37813742 35.84128199 -2.37813742 35.84128199 -6.4375 39.1875 C-9.234375 39.578125 -9.234375 39.578125 -12.1875 39.4375 C-13.17234375 39.40140625 -14.1571875 39.3653125 -15.171875 39.328125 C-15.91953125 39.28171875 -16.6671875 39.2353125 -17.4375 39.1875 C-18.81633577 35.05099269 -17.34190043 32.2173295 -15.9453125 28.2734375 C-15.67991669 27.50319244 -15.41452087 26.73294739 -15.14108276 25.93936157 C-14.57859443 24.31227143 -14.01175777 22.68667898 -13.44091797 21.0625 C-12.56452269 18.56825662 -11.70105273 16.06983509 -10.83984375 13.5703125 C-10.29241493 11.99192778 -9.74426247 10.41379382 -9.1953125 8.8359375 C-8.93485138 8.08492767 -8.67439026 7.33391785 -8.40603638 6.56015015 C-6.10914165 0.03972134 -6.10914165 0.03972134 0 0 Z " fill="#314481" transform="translate(103.4375,259.8125)"/>
<path d="M0 0 C0.33 0 0.66 0 1 0 C1 7.26 1 14.52 1 22 C-6.59 22 -14.18 22 -22 22 C-20.68 21.34 -19.36 20.68 -18 20 C-8.59158895 15.26474361 -3.73477269 9.83835954 0 0 Z " fill="#000000" transform="translate(499,389)"/>
<path d="M0 0 C2 3 2 3 3.19140625 5.26953125 C7.41380539 13.10081854 12.28505638 17.1801972 20.5625 20.375 C21.7690625 20.684375 21.7690625 20.684375 23 21 C23 21.33 23 21.66 23 22 C15.41 22 7.82 22 0 22 C0 14.74 0 7.48 0 0 Z " fill="#000000" transform="translate(0,389)"/>
<path d="M0 0 C7.26 0 14.52 0 22 0 C22 7.26 22 14.52 22 22 C20 19 20 19 18.80859375 16.73046875 C14.30445803 8.37664438 8.78610237 4.33532181 0 1 C0 0.67 0 0.34 0 0 Z " fill="#000000" transform="translate(478,0)"/>
<path d="M0 0 C7.26 0 14.52 0 22 0 C19 2 19 2 16.73046875 3.19140625 C8.37664438 7.69554197 4.33532181 13.21389763 1 22 C0.67 22 0.34 22 0 22 C0 14.74 0 7.48 0 0 Z " fill="#000000" transform="translate(0,0)"/>
<path d="M0 0 C2 1 2 1 3.0703125 3.6171875 C3.59238281 5.22980469 3.59238281 5.22980469 4.125 6.875 C4.47820312 7.94492187 4.83140625 9.01484375 5.1953125 10.1171875 C6 13 6 13 6 16 C3.03 16 0.06 16 -3 16 C-2.48263876 10.39525319 -1.71036463 5.3591425 0 0 Z " fill="#EDEFF4" transform="translate(73,53)"/>
<path d="M0 0 C2.64 0 5.28 0 8 0 C7.719172 1.98073365 7.42503386 3.95958448 7.125 5.9375 C6.96257812 7.03964844 6.80015625 8.14179687 6.6328125 9.27734375 C6.42398438 10.17582031 6.21515625 11.07429688 6 12 C5.01 12.495 5.01 12.495 4 13 C3.32942113 11.2097939 2.6636531 9.41778511 2 7.625 C1.62875 6.62726562 1.2575 5.62953125 0.875 4.6015625 C0 2 0 2 0 0 Z " fill="#F6F7F9" transform="translate(82,44)"/>
<path d="M0 0 C2.31 0 4.62 0 7 0 C6.67 2.31 6.34 4.62 6 7 C3.69 7 1.38 7 -1 7 C-0.67 4.69 -0.34 2.38 0 0 Z " fill="#F3F4F7" transform="translate(109,19)"/>
</svg>
