<?xml version="1.0" encoding="UTF-8"?>
<svg version="1.1" xmlns="http://www.w3.org/2000/svg" width="500" height="91">
<path d="M0 0 C0.99 0.495 0.99 0.495 2 1 C2.02964844 2.31871094 2.05929687 3.63742188 2.08984375 4.99609375 C2.68039781 11.54670114 6.92549437 14.81284263 11.5625 19.0625 C12.36880859 19.83271484 13.17511719 20.60292969 14.00585938 21.39648438 C15.98696528 23.28381012 17.98420948 25.14988217 20 27 C19 29 18 31 17 33 C12.71 33 8.42 33 4 33 C4 31.68 4 30.36 4 29 C-1.13322999 27.21908347 -4.56192653 26.74505997 -10 28 C-10.99 28.66 -11.98 29.32 -13 30 C-13.41554375 32.74966186 -13.47482614 34.30602333 -11.8828125 36.6328125 C-6.30486549 41.36786974 -0.18375902 44.99994355 6.07836914 48.74072266 C13.16190688 53.00724943 19.6217878 57.73772848 26 63 C26.57153809 63.47002441 27.14307617 63.94004883 27.73193359 64.42431641 C33.36813085 69.08017098 38.88767711 73.76550763 44 79 C43.67 79.99 43.34 80.98 43 82 C38.05 81.01 33.1 80.02 28 79 C27.67 77.35 27.34 75.7 27 74 C15.80356757 64.38690145 -2.04731895 60.27380057 -16.4296875 60.703125 C-22.33103539 61.38473965 -27.75571707 63.2524258 -33 66 C-33.825 65.29875 -34.65 64.5975 -35.5 63.875 C-38.86610103 61.59431571 -38.86610103 61.59431571 -42.4375 62.6875 C-43.11425781 62.90277344 -43.79101562 63.11804688 -44.48828125 63.33984375 C-58.53979679 67.03301035 -73.09489903 64.84879688 -86.0625 58.828125 C-89.88486954 57.7505421 -91.32353118 58.52594411 -95 60 C-104.60464306 63.30118718 -113.62839434 63.38109706 -123.70507812 63.17578125 C-132.62096229 63.24387856 -137.21544738 65.36169599 -144 71 C-158.55970168 79.88927802 -175.55436152 83.42003819 -192.375 80.125 C-194.169375 79.568125 -194.169375 79.568125 -196 79 C-196.33 78.34 -196.66 77.68 -197 77 C-192.05 75.68 -187.1 74.36 -182 73 C-182 74.32 -182 75.64 -182 77 C-167.46356545 73.29868879 -155.63031144 68.07929492 -146.375 55.625 C-143.65054199 52.61375693 -141.66328328 51.92528251 -137.91015625 50.68359375 C-131.14568758 48.26277163 -127.8214173 41.6556976 -124 36 C-119.79373061 29.86847298 -116.27974946 25.42658315 -109 23 C-99.62330349 21.91465183 -91.53504646 24.96694699 -83.0625 28.6875 C-74.9879094 32.14803883 -66.74976663 31.78814779 -58.5078125 29.015625 C-51.47516769 26.16751339 -45.70614916 21.80921493 -39.79638672 17.13500977 C-28.91149613 8.55914351 -21.33771202 4.18362796 -7.06640625 5.34765625 C-3.78114523 5.30531274 -3.78114523 5.30531274 -1.58984375 2.49609375 C-1.06519531 1.67238281 -0.54054688 0.84867188 0 0 Z " fill="#E62C37" transform="translate(456,9)"/>
<path d="M0 0 C13.86 0 27.72 0 42 0 C40 11 40 11 39 15 C36.69 15 34.38 15 32 15 C32 26.88 32 38.76 32 51 C34.000625 47.4525 36.00125 43.905 38.0625 40.25 C42.64700032 32.12994674 47.25312369 24.02653631 52 16 C50.02 15.67 48.04 15.34 46 15 C46.47770523 13.06213915 46.95721571 11.12472326 47.4375 9.1875 C47.70433594 8.10855469 47.97117188 7.02960937 48.24609375 5.91796875 C48.76077412 3.9259157 49.34937175 1.95188476 50 0 C62.54 0 75.08 0 88 0 C86.45019454 3.87451365 84.9601245 6.90370604 82.796875 10.40234375 C82.15355225 11.44600098 81.51022949 12.4896582 80.84741211 13.56494141 C80.15526611 14.67788574 79.46312012 15.79083008 78.75 16.9375 C78.02529846 18.10845381 77.30077282 19.2795165 76.57641602 20.45068359 C71.53067795 28.59538715 66.41066142 36.69187193 61.25024414 44.7644043 C56.68911043 51.90126782 52.17796308 59.06847228 47.6875 66.25 C47.03450928 67.2930127 46.38151855 68.33602539 45.70874023 69.41064453 C45.10747314 70.37341309 44.50620605 71.33618164 43.88671875 72.328125 C43.35264404 73.1830957 42.81856934 74.03806641 42.26831055 74.91894531 C40.98770062 76.95493384 40.98770062 76.95493384 40 79 C29.11 79 18.22 79 7 79 C6.4773992 71.54827256 5.9551969 64.096536 5.43682861 56.64451599 C5.19529539 53.17390392 4.95303466 49.70334622 4.70898438 46.23291016 C4.42868903 42.24657753 4.15176165 38.26001704 3.875 34.2734375 C3.78750488 33.03572601 3.70000977 31.79801453 3.60986328 30.52279663 C3.52978027 29.3620462 3.44969727 28.20129578 3.3671875 27.00537109 C3.29612793 25.98833099 3.22506836 24.97129089 3.15185547 23.9234314 C2.99706058 20.943412 2.97391349 17.98347147 3 15 C1.02 15 -0.96 15 -3 15 C-2.430756 9.59218201 -1.53371845 5.36801456 0 0 Z " fill="#173783" transform="translate(91,10)"/>
<path d="M0 0 C1.51400391 -0.00821777 1.51400391 -0.00821777 3.05859375 -0.01660156 C9.52205917 0.04473368 15.52881114 0.80022497 21.8125 2.3125 C21.544375 3.50875 21.27625 4.705 21 5.9375 C19.56551379 12.38752794 18.1926961 18.85067282 16.8125 25.3125 C11.5325 25.3125 6.2525 25.3125 0.8125 25.3125 C0.8125 23.0025 0.8125 20.6925 0.8125 18.3125 C-4.01110189 18.11955592 -7.68396738 18.55502386 -12.1875 20.3125 C-13.04724801 22.60544488 -13.04724801 22.60544488 -13.1875 25.3125 C-10.50923234 28.54031787 -7.66256609 30.27843152 -3.9375 32.125 C2.28657971 35.41618003 9.21529912 39.41172473 11.8125 46.3125 C12.72508994 53.74055766 12.31669378 60.200577 7.8125 66.3125 C0.96560346 74.93153447 -8.36621346 79.55285124 -19.1875 81.3125 C-23.46199859 81.59113078 -27.71778747 81.59198167 -32 81.5625 C-33.11181641 81.57023437 -34.22363281 81.57796875 -35.36914062 81.5859375 C-51.71715168 81.54767416 -51.71715168 81.54767416 -58.1875 78.3125 C-54.84259259 57.96759259 -54.84259259 57.96759259 -52.1875 55.3125 C-49.49095146 55.23930379 -46.82058542 55.22007463 -44.125 55.25 C-42.98708008 55.25676758 -42.98708008 55.25676758 -41.82617188 55.26367188 C-39.94658129 55.2754932 -38.06703101 55.29342922 -36.1875 55.3125 C-36.1875 57.9525 -36.1875 60.5925 -36.1875 63.3125 C-34.29083474 63.22477545 -32.39511007 63.11658699 -30.5 63 C-29.44425781 62.94199219 -28.38851562 62.88398437 -27.30078125 62.82421875 C-23.9164048 62.26794106 -21.9195493 61.36278108 -19.1875 59.3125 C-18.35393587 56.85662036 -18.35393587 56.85662036 -19.1875 54.3125 C-22.16425814 51.13044819 -25.87822608 49.39016245 -29.6875 47.375 C-36.83549984 43.52755311 -41.56803542 39.10085459 -44.1875 31.3125 C-45.30924211 24.83132338 -43.89849837 19.67647994 -40.1875 14.3125 C-33.49051223 6.00484429 -24.89053091 2.15957895 -14.42724609 0.55126953 C-9.63003955 0.03986033 -4.82026583 0.01915142 0 0 Z " fill="#173783" transform="translate(220.1875,8.6875)"/>
<path d="M0 0 C26.4 0 52.8 0 80 0 C78.3747457 8.93889864 76.40073702 17.27732217 74 26 C68.06 26 62.12 26 56 26 C56 20 56 20 57 18 C54.69 18 52.38 18 50 18 C49.79246094 18.97453125 49.58492187 19.9490625 49.37109375 20.953125 C46.25047728 35.38510741 42.62759152 49.68844796 39 64 C42.63 64 46.26 64 50 64 C48.9940631 69.38894766 48.04561354 73.88596614 46 79 C30.16 79 14.32 79 -2 79 C-1.24813848 73.73696933 -0.33762635 69.08298012 1 64 C5.95 63.505 5.95 63.505 11 63 C14.63 48.15 18.26 33.3 22 18 C19.69 18.33 17.38 18.66 15 19 C14.01 21.31 13.02 23.62 12 26 C6.06 26 0.12 26 -6 26 C-5.48337591 16.52855842 -2.85074465 9.69253181 0 0 Z " fill="#173783" transform="translate(6,10)"/>
<path d="M0 0 C0.82113281 -0.020625 1.64226562 -0.04125 2.48828125 -0.0625 C8.58771808 -0.10116521 14.42859471 0.54387642 19.34863281 4.55249023 C20.53973921 5.72969347 21.65450703 6.98333625 22.75 8.25 C21.125 10.27734375 21.125 10.27734375 18.75 12.25 C15.9375 12.31640625 15.9375 12.31640625 12.75 11.8125 C0.2070771 10.5106118 -7.69656445 14.67397859 -17.53955078 22.00195312 C-27.18519356 29.03999565 -37.75063605 36.74339595 -50.25 36.25 C-52.515625 35.26171875 -52.515625 35.26171875 -54.25 34.25 C-52.7785184 32.7785184 -51.2922129 32.89223229 -49.25 32.5625 C-42.14676789 31.05334685 -36.36486659 27.22820241 -32.25 21.25 C-33.9 21.25 -35.55 21.25 -37.25 21.25 C-33.88366703 16.72649008 -30.83174985 14.1336478 -25.82421875 11.5234375 C-25.30472656 11.10320313 -24.78523438 10.68296875 -24.25 10.25 C-24.25 8.93 -24.25 7.61 -24.25 6.25 C-22.50197854 5.43325204 -20.75149811 4.62176549 -19 3.8125 C-18.02546875 3.36003906 -17.0509375 2.90757812 -16.046875 2.44140625 C-10.64628583 0.14087595 -5.80082572 0.03575239 0 0 Z " fill="#E62C37" transform="translate(433.25,-0.25)"/>
<path d="M0 0 C4.06112292 1.99295847 7.8240588 4.31335015 11.59375 6.8046875 C15.24571563 9.10812291 17.99537693 10.0546875 22.40625 10.0546875 C23.96009885 9.61663437 25.50141715 9.13288922 27.03125 8.6171875 C33.09494317 6.57418934 39.06357564 6.57529932 45.40625 7.0546875 C46.39625 7.5496875 46.39625 7.5496875 47.40625 8.0546875 C47.40625 8.7146875 47.40625 9.3746875 47.40625 10.0546875 C46.725625 10.1784375 46.045 10.3021875 45.34375 10.4296875 C38.6882193 11.84575786 33.16936805 14.05340652 27.21875 17.2421875 C21.33616823 20.33915715 17.18266472 22.36625164 10.40625 21.0546875 C7.46875 19.4921875 7.46875 19.4921875 4.40625 17.0546875 C2.62021649 15.79665183 0.82815394 14.54714703 -0.96875 13.3046875 C-2.51087922 12.22201271 -4.05270312 11.1389023 -5.59375 10.0546875 C-4.60375 9.0646875 -3.61375 8.0746875 -2.59375 7.0546875 C-11.00875 5.5696875 -11.00875 5.5696875 -19.59375 4.0546875 C-13.93636956 -1.60269294 -7.61592471 -2.7756834 0 0 Z " fill="#E62C37" transform="translate(298.59375,19.9453125)"/>
</svg>
