<?xml version="1.0" standalone="no"?>
<!DOCTYPE svg PUBLIC "-//W3C//DTD SVG 20010904//EN"
 "http://www.w3.org/TR/2001/REC-SVG-20010904/DTD/svg10.dtd">
<svg version="1.0" xmlns="http://www.w3.org/2000/svg"
 width="500.000000pt" height="341.000000pt" viewBox="0 0 500.000000 341.000000"
 preserveAspectRatio="xMidYMid meet">
<metadata>
Created by potrace 1.16, written by Peter Selinger 2001-2019
</metadata>
<g transform="translate(0.000000,341.000000) scale(0.100000,-0.100000)"
fill="#000000" stroke="none">
<path d="M90 2225 c0 -602 3 -1095 6 -1095 3 0 317 58 698 130 919 172 2217
415 3206 600 443 82 829 155 858 161 l52 10 0 645 0 644 -2410 0 -2410 0 0
-1095z m4380 805 c179 -28 309 -158 355 -352 8 -34 11 -66 7 -69 -4 -4 -149
-32 -322 -63 -173 -31 -323 -60 -332 -64 -15 -6 -15 -11 -3 -44 31 -90 76
-123 170 -122 97 1 176 44 220 119 10 17 17 17 133 -5 67 -12 122 -26 122 -31
0 -6 -9 -26 -19 -47 -72 -137 -275 -232 -498 -232 -226 0 -386 115 -438 317
-73 280 127 544 450 593 73 11 83 11 155 0z m-1003 -200 c85 -26 139 -92 168
-208 14 -56 97 -583 92 -588 -6 -5 -309 -56 -312 -52 -3 2 -20 110 -40 239
-38 250 -39 257 -62 307 -45 95 -214 78 -270 -28 -32 -60 -30 -149 7 -390 17
-106 29 -194 28 -195 -8 -5 -302 -54 -306 -51 -3 4 -131 829 -128 833 4 5 281
51 285 47 3 -2 10 -39 16 -82 l10 -77 31 55 c36 63 103 129 164 160 92 47 220
59 317 30z m-2458 -106 c99 -29 185 -121 217 -232 24 -83 16 -211 -19 -278
-28 -56 -102 -127 -157 -152 -19 -9 -37 -18 -40 -20 -2 -1 92 -98 209 -216
l212 -212 -183 -33 c-101 -18 -191 -35 -200 -37 -12 -3 -69 55 -200 205 -101
115 -184 209 -184 208 -1 -1 14 -99 32 -217 18 -118 34 -224 34 -235 0 -18
-16 -23 -161 -49 -88 -15 -162 -27 -164 -25 -6 7 -184 1203 -180 1208 3 2 98
22 212 43 380 71 458 76 572 42z m1389 -136 c35 -206 115 -768 111 -773 -7 -6
-280 -57 -284 -53 -2 2 -7 32 -12 68 l-9 65 -18 -34 c-92 -172 -333 -249 -510
-162 -120 59 -195 174 -224 344 -46 273 94 484 350 527 113 19 207 -7 282 -78
21 -20 36 -30 33 -21 -3 9 -8 41 -12 72 l-7 56 33 6 c19 3 77 14 129 24 137
27 126 30 138 -41z"/>
<path d="M4244 2821 c-49 -22 -80 -62 -93 -122 -5 -24 -9 -44 -8 -45 2 -2 351
59 355 62 11 8 -37 79 -67 100 -45 30 -126 33 -187 5z"/>
<path d="M642 2459 l-53 -11 7 -46 c4 -26 14 -96 23 -157 l17 -110 35 3 c51 5
130 29 167 52 19 11 40 37 49 57 26 65 1 164 -52 199 -30 20 -123 26 -193 13z"/>
<path d="M1903 2346 c-60 -19 -98 -50 -122 -99 -39 -81 -24 -192 35 -257 43
-47 90 -64 159 -57 166 17 245 157 179 317 -20 47 -42 70 -89 91 -46 22 -103
23 -162 5z"/>
<path d="M4845 1749 c-22 -4 -485 -91 -1030 -193 -1925 -360 -3511 -657 -3614
-676 -56 -11 -105 -20 -107 -20 -2 0 -4 -3 -4 -7 0 -5 1085 -8 2410 -8 l2410
0 0 458 c0 359 -3 457 -12 456 -7 -1 -31 -5 -53 -10z m55 -444 l0 -445 -2357
0 c-1296 0 -2354 2 -2352 5 3 2 31 8 64 14 57 9 412 75 465 86 85 17 142 25
149 20 5 -3 11 -2 13 3 3 7 59 19 383 78 72 13 154 29 182 35 29 6 57 8 62 5
5 -4 11 -2 13 2 1 5 73 21 158 37 202 36 187 33 248 46 29 6 60 8 68 5 8 -3
13 -2 10 3 -5 8 87 25 134 26 8 0 17 3 20 6 5 5 39 12 255 50 61 11 121 22
135 24 14 3 70 14 125 25 55 11 108 19 117 16 9 -2 18 0 20 4 3 6 217 50 323
65 22 4 95 18 163 32 99 20 126 22 138 13 12 -10 13 -10 9 1 -5 14 36 23 355
80 25 4 131 24 235 44 294 55 436 82 615 115 151 29 241 46 248 49 1 1 2 -199
2 -444z"/>
<path d="M90 405 l0 -195 105 0 c98 0 105 1 105 20 0 18 -7 20 -87 20 l-88 0
0 70 0 70 83 0 c75 0 82 2 82 20 0 18 -7 20 -82 20 l-83 0 1 67 2 68 86 3 c67
2 86 6 86 17 0 12 -20 15 -105 15 l-105 0 0 -195z"/>
<path d="M1900 530 l0 -71 -31 23 c-42 31 -125 32 -166 2 -65 -48 -87 -147
-46 -202 55 -75 153 -96 212 -46 l31 26 0 -26 c0 -19 5 -26 20 -26 19 0 20 7
20 195 0 188 -1 195 -20 195 -18 0 -20 -7 -20 -70z m-66 -70 c34 -12 66 -66
66 -108 0 -25 -9 -43 -34 -68 -104 -104 -256 40 -158 150 31 34 79 44 126 26z"/>
<path d="M2930 405 c0 -188 1 -195 20 -195 19 0 20 7 20 95 l0 95 100 0 100 0
0 -96 c0 -86 2 -95 18 -92 15 3 17 22 20 196 2 187 2 192 -18 192 -18 0 -20
-6 -20 -85 l0 -85 -100 0 -100 0 0 85 c0 78 -2 85 -20 85 -19 0 -20 -7 -20
-195z"/>
<path d="M710 499 c-13 -6 -33 -17 -42 -26 -17 -15 -18 -15 -18 5 0 15 -6 22
-20 22 -19 0 -20 -7 -20 -195 0 -188 1 -195 20 -195 18 0 20 7 20 76 l0 76 31
-26 c56 -47 147 -32 203 34 22 27 26 41 26 92 0 58 -2 63 -39 98 -49 47 -106
61 -161 39z m133 -69 c39 -43 38 -106 -2 -149 -25 -26 -36 -31 -76 -31 -40 0
-52 5 -81 34 -40 40 -45 83 -14 134 25 40 53 53 105 47 29 -3 48 -12 68 -35z"/>
<path d="M1040 492 c-75 -41 -104 -142 -62 -214 39 -67 154 -90 211 -42 l31
26 0 -26 c0 -19 5 -26 20 -26 19 0 20 7 20 145 0 138 -1 145 -20 145 -13 0
-20 -7 -20 -20 0 -20 0 -20 -29 1 -41 30 -107 35 -151 11z m120 -37 c35 -18
60 -62 60 -106 0 -46 -56 -99 -104 -99 -44 0 -91 22 -106 49 -5 11 -10 38 -10
61 0 34 6 48 34 76 38 38 77 44 126 19z"/>
<path d="M1398 492 c-30 -16 -38 -17 -38 -6 0 8 -9 14 -20 14 -20 0 -20 -5
-18 -142 3 -124 5 -143 20 -146 14 -3 17 11 20 102 3 120 15 142 81 153 31 5
40 1 67 -25 29 -30 30 -32 30 -131 0 -94 1 -101 20 -101 19 0 20 7 20 95 0 60
-5 108 -14 130 -27 64 -104 90 -168 57z"/>
<path d="M2188 499 c-16 -6 -28 -15 -28 -20 0 -5 -4 -9 -10 -9 -5 0 -10 7 -10
15 0 8 -8 15 -17 15 -16 0 -18 -13 -16 -142 1 -116 5 -144 16 -146 12 -2 15
17 19 102 4 120 16 142 81 153 31 5 40 1 67 -25 29 -30 30 -32 30 -131 0 -94
1 -101 20 -101 19 0 20 7 20 95 0 107 -14 154 -53 180 -32 21 -85 27 -119 14z"/>
<path d="M2510 499 c-150 -62 -112 -289 48 -289 44 0 102 23 102 40 0 6 4 10
9 10 9 0 -1 -59 -13 -79 -4 -6 -21 -18 -38 -27 -43 -22 -94 -12 -134 27 -17
17 -39 29 -48 27 -14 -3 -14 -7 4 -35 40 -66 143 -88 211 -45 53 32 59 55 59
222 0 143 -1 150 -20 150 -13 0 -20 -7 -20 -20 0 -21 0 -21 -28 0 -34 25 -97
34 -132 19z m100 -44 c41 -21 60 -53 60 -101 0 -92 -107 -138 -179 -78 -40 33
-49 81 -25 131 30 59 86 78 144 48z"/>
<path d="M3353 490 c-143 -64 -91 -280 67 -280 90 0 162 87 146 175 -9 47 -59
102 -104 115 -50 13 -60 13 -109 -10z m118 -37 c78 -46 70 -163 -14 -198 -69
-29 -147 23 -147 96 0 51 13 75 53 99 39 24 70 25 108 3z"/>
<path d="M3695 498 c-11 -6 -23 -16 -27 -22 -5 -7 -8 -4 -8 7 0 10 -8 17 -20
17 -19 0 -20 -7 -20 -145 0 -138 1 -145 20 -145 19 0 20 7 20 103 0 89 3 106
20 124 10 12 28 24 40 28 11 3 20 15 20 26 0 21 -15 24 -45 7z"/>
<path d="M4196 500 c-122 -37 -137 -219 -22 -274 103 -49 216 21 216 134 0 60
-29 106 -83 130 -46 21 -66 23 -111 10z m127 -70 c62 -69 14 -182 -78 -182
-43 0 -72 17 -95 55 -24 39 -25 59 -4 102 33 69 125 83 177 25z"/>
<path d="M4528 498 c-16 -5 -28 -14 -28 -19 0 -5 -4 -9 -10 -9 -5 0 -10 7 -10
15 0 8 -7 15 -15 15 -13 0 -15 -23 -15 -146 0 -133 1 -145 18 -142 15 3 17 17
19 108 3 118 12 136 76 147 31 5 40 1 67 -25 29 -30 30 -32 30 -131 0 -94 1
-101 20 -101 19 0 20 7 20 103 0 118 -16 158 -75 183 -39 16 -59 17 -97 2z"/>
<path d="M4795 498 c-71 -41 -52 -132 33 -153 15 -4 33 -11 39 -17 38 -31 -13
-102 -56 -79 -11 6 -23 20 -26 31 -7 21 -45 29 -45 9 0 -16 21 -53 39 -66 29
-22 89 -16 117 12 20 20 25 33 22 68 -3 40 -5 43 -63 73 -63 32 -80 59 -51 83
20 16 66 6 66 -14 0 -8 9 -15 20 -15 29 0 25 34 -6 59 -30 23 -59 26 -89 9z"/>
<path d="M337 488 c6 -7 28 -38 51 -69 l41 -56 -33 -49 c-75 -112 -71 -104
-45 -104 18 0 33 14 59 55 19 30 38 55 41 55 3 0 23 -25 43 -55 24 -36 43 -55
56 -55 11 0 20 2 20 5 0 3 -21 37 -46 75 l-47 70 40 57 c58 84 57 83 31 83
-16 0 -32 -14 -56 -50 -17 -28 -35 -50 -40 -50 -4 0 -22 23 -40 50 -25 39 -38
50 -58 50 -20 0 -24 -3 -17 -12z"/>
<path d="M3860 485 c0 -12 14 -15 70 -15 39 0 70 -3 70 -8 0 -4 -34 -55 -75
-112 -42 -58 -74 -112 -73 -120 3 -12 23 -15 108 -15 92 0 105 2 108 18 3 15
-6 17 -77 17 -45 0 -81 2 -81 5 0 3 34 52 75 109 41 57 75 111 75 120 0 14
-15 16 -100 16 -82 0 -100 -3 -100 -15z"/>
</g>
</svg>
