<?xml version="1.0" encoding="UTF-8"?>
<svg version="1.1" xmlns="http://www.w3.org/2000/svg" width="500" height="74">
<path d="M0 0 C15.94102344 -0.24065286 15.94102344 -0.24065286 22.76367188 -0.29296875 C27.40984478 -0.32876498 32.05530472 -0.37099692 36.70092773 -0.45263672 C40.44870724 -0.51808216 44.1957218 -0.55375799 47.94402885 -0.56926346 C49.37019321 -0.58030526 50.79631814 -0.6018684 52.22215462 -0.63438034 C64.78360268 -0.90927834 64.78360268 -0.90927834 69.36889648 2.84912109 C73.2013201 6.78174755 73.12005401 10.54719864 73.09765625 15.85546875 C73.0962413 16.51710526 73.09482635 17.17874176 73.09336853 17.86042786 C73.08777996 19.96949828 73.07522965 22.07846177 73.0625 24.1875 C73.05748352 25.61913909 73.05292087 27.05077985 73.04882812 28.48242188 C73.0378143 31.98831588 73.02055755 35.4941475 73 39 C69.37 39 65.74 39 62 39 C61.96241577 37.78884521 61.96241577 37.78884521 61.92407227 36.55322266 C61.80834513 32.91031083 61.68551365 29.26767274 61.5625 25.625 C61.52318359 24.35398437 61.48386719 23.08296875 61.44335938 21.7734375 C61.40146484 20.56171875 61.35957031 19.35 61.31640625 18.1015625 C61.26141968 16.42054443 61.26141968 16.42054443 61.20532227 14.70556641 C61.17403987 12.03287229 61.17403987 12.03287229 60 10 C58.16471137 9.53272148 58.16471137 9.53272148 55.96484375 9.3671875 C55.23644287 9.29097168 54.50804199 9.21475586 53.75756836 9.13623047 C52.8269458 9.05002441 51.89632324 8.96381836 50.9375 8.875 C47.988125 8.58625 45.03875 8.2975 42 8 C41.67 18.23 41.34 28.46 41 39 C37.7 39 34.4 39 31 39 C30.67 29.1 30.34 19.2 30 9 C23.73 9 17.46 9 11 9 C10.67 18.9 10.34 28.8 10 39 C6.7 39 3.4 39 0 39 C0 26.13 0 13.26 0 0 Z " fill="#E31936" transform="translate(0,35)"/>
<path d="M0 0 C3.63 0 7.26 0 11 0 C11 17.49 11 34.98 11 53 C3.843125 53.061875 -3.31375 53.12375 -10.6875 53.1875 C-14.06488403 53.22846802 -14.06488403 53.22846802 -17.51049805 53.27026367 C-19.30256616 53.27902858 -21.09464026 53.28667251 -22.88671875 53.29296875 C-24.27340759 53.3159906 -24.27340759 53.3159906 -25.68811035 53.33947754 C-30.58067588 53.3414645 -34.08978408 53.30676032 -38 50 C-40.28712566 45.30174789 -40.30459293 40.73853751 -40.25 35.625 C-40.25773437 34.90828125 -40.26546875 34.1915625 -40.2734375 33.453125 C-40.25195999 27.50385558 -39.87561717 21.3596474 -36.0625 16.5625 C-32.3347394 13.73843894 -29.1097953 13.88185613 -24.58203125 13.90234375 C-23.32841797 13.90556641 -22.07480469 13.90878906 -20.78320312 13.91210938 C-18.81770508 13.92467773 -18.81770508 13.92467773 -16.8125 13.9375 C-15.47721519 13.94251683 -14.14192859 13.94707941 -12.80664062 13.95117188 C-9.53771527 13.96297305 -6.26888009 13.97943703 -3 14 C-3.54723683 17.37462715 -4.0549 19.08235 -6 22 C-7.81591797 22.38476562 -7.81591797 22.38476562 -9.9921875 22.40625 C-10.77980469 22.42816406 -11.56742187 22.45007813 -12.37890625 22.47265625 C-13.61447266 22.48619141 -13.61447266 22.48619141 -14.875 22.5 C-20.83765955 22.52169096 -20.83765955 22.52169096 -26.5546875 23.98828125 C-28.93128081 27.29624221 -28.41714686 30.73921018 -28.25 34.6875 C-28.1675 37.430625 -28.085 40.17375 -28 43 C-14.14 43.495 -14.14 43.495 0 44 C0 29.48 0 14.96 0 0 Z " fill="#E31936" transform="translate(314,21)"/>
<path d="M0 0 C2.55454923 -0.32976769 4.86230854 -0.46802853 7.421875 -0.46875 C8.15948059 -0.47636353 8.89708618 -0.48397705 9.65704346 -0.49182129 C11.22054663 -0.50263681 12.78412213 -0.50546948 14.34765625 -0.50097656 C16.7278113 -0.50000902 19.10468998 -0.54150355 21.484375 -0.5859375 C23.00520164 -0.59114842 24.52603944 -0.59383263 26.046875 -0.59375 C27.10657501 -0.6183429 27.10657501 -0.6183429 28.18768311 -0.64343262 C31.92729807 -0.59178696 34.44859076 -0.03381007 37.37207031 2.22460938 C41.82961907 6.93228443 42.25144716 10.46074717 42.1953125 16.83203125 C42.18886719 18.12431641 42.18242187 19.41660156 42.17578125 20.74804688 C42.15907327 22.1028673 42.14214342 23.45768501 42.125 24.8125 C42.11496003 26.18684251 42.10583596 27.56119203 42.09765625 28.93554688 C42.07411242 32.29054317 42.04122567 35.64518199 42 39 C35.68293999 39.0761466 29.36599861 39.12864032 23.04858398 39.16479492 C20.90010149 39.17986915 18.7516497 39.20033189 16.60327148 39.22631836 C13.51278092 39.26276114 10.42269769 39.27974019 7.33203125 39.29296875 C5.89426079 39.31619453 5.89426079 39.31619453 4.42744446 39.33988953 C-0.54834836 39.34114151 -3.95760804 39.25667166 -8 36 C-10.102003 33.897997 -9.23109795 29.51701417 -9.25 26.625 C-9.270625 25.84382813 -9.29125 25.06265625 -9.3125 24.2578125 C-9.35163895 18.54352568 -9.35163895 18.54352568 -7.88061523 16.26977539 C-5.10638039 14.39663565 -2.9022101 14.66196095 0.41796875 14.70703125 C1.67158203 14.71669922 2.92519531 14.72636719 4.21679688 14.73632812 C5.52712891 14.76146484 6.83746094 14.78660156 8.1875 14.8125 C9.52277163 14.82755033 10.85805937 14.84123813 12.19335938 14.85351562 C15.46264576 14.88892306 18.73112093 14.9383111 22 15 C21.125 19.875 21.125 19.875 20 21 C18.65984779 21.15582303 17.31241097 21.25044142 15.96484375 21.31640625 C15.15595703 21.35830078 14.34707031 21.40019531 13.51367188 21.44335938 C12.66353516 21.48267578 11.81339844 21.52199219 10.9375 21.5625 C10.08349609 21.60568359 9.22949219 21.64886719 8.34960938 21.69335938 C6.23327963 21.79976702 4.11666187 21.90041731 2 22 C1.67 24.64 1.34 27.28 1 30 C10.9 30 20.8 30 31 30 C30.855625 27.07125 30.71125 24.1425 30.5625 21.125 C30.51939697 20.20348145 30.47629395 19.28196289 30.43188477 18.33251953 C30.3747229 17.24366455 30.3747229 17.24366455 30.31640625 16.1328125 C30.26141968 15.01737061 30.26141968 15.01737061 30.20532227 13.87939453 C30.10044135 11.91135688 30.10044135 11.91135688 29 10 C25.63448877 8.87816292 22.90939768 8.79199032 19.36328125 8.68359375 C17.41518555 8.62075195 17.41518555 8.62075195 15.42773438 8.55664062 C14.05599239 8.51683013 12.68424756 8.47711784 11.3125 8.4375 C9.92902355 8.39429165 8.54555973 8.35067661 7.16210938 8.30664062 C3.77484281 8.20041972 0.38750201 8.09837642 -3 8 C-2.45276317 4.62537285 -1.9451 2.91765 0 0 Z " fill="#E31936" transform="translate(89,35)"/>
<path d="M0 0 C4.73219762 -0.09927153 9.46378213 -0.17165633 14.19677734 -0.21972656 C15.80495774 -0.23977627 17.41306583 -0.26702364 19.02099609 -0.30175781 C21.3397002 -0.35057264 23.65743625 -0.37303428 25.9765625 -0.390625 C26.68930328 -0.41127014 27.40204407 -0.43191528 28.13638306 -0.45318604 C33.2404061 -0.45545291 36.08634051 0.7732158 40 4 C42.39629455 7.59444183 42.25781331 10.14861652 42.1953125 14.29296875 C42.1924826 14.99899734 42.18965271 15.70502594 42.18673706 16.43244934 C42.17555464 18.68430633 42.1504542 20.93576352 42.125 23.1875 C42.11496767 24.71548904 42.10584226 26.24348433 42.09765625 27.77148438 C42.07562172 31.51447663 42.04110567 35.25717056 42 39 C35.66458555 39.05070815 29.32922343 39.08573696 22.99365234 39.10986328 C20.83835901 39.1199211 18.68307932 39.13356899 16.52783203 39.15087891 C13.42997876 39.17513662 10.33230591 39.18648532 7.234375 39.1953125 C5.78886261 39.21079636 5.78886261 39.21079636 4.31414795 39.22659302 C3.41351624 39.22674408 2.51288452 39.22689514 1.58496094 39.22705078 C0.79442322 39.231492 0.0038855 39.23593323 -0.81060791 39.24050903 C-3.32438278 38.96436591 -4.87167554 38.3583163 -7 37 C-9.3948515 33.40772276 -9.36703237 30.7176193 -9.375 26.5625 C-9.40335937 25.24378906 -9.43171875 23.92507812 -9.4609375 22.56640625 C-9 19 -9 19 -7.37841797 16.80151367 C-4.24574607 14.42869639 -2.38507367 14.53845321 1.515625 14.609375 C2.76601563 14.62226562 4.01640625 14.63515625 5.3046875 14.6484375 C7.25761719 14.69871094 7.25761719 14.69871094 9.25 14.75 C10.56742187 14.76804687 11.88484375 14.78609375 13.2421875 14.8046875 C16.49552308 14.85183729 19.74739625 14.91763956 23 15 C22.34 16.98 21.68 18.96 21 21 C11.1 21.495 11.1 21.495 1 22 C1.33 24.31 1.66 26.62 2 29 C16.85 29.495 16.85 29.495 32 30 C31.731875 26.90625 31.46375 23.8125 31.1875 20.625 C31.07184692 19.16441162 31.07184692 19.16441162 30.95385742 17.67431641 C30.88013916 16.90780762 30.8064209 16.14129883 30.73046875 15.3515625 C30.66239014 14.56604004 30.59431152 13.78051758 30.52416992 12.97119141 C30.12842605 10.6078263 30.12842605 10.6078263 27 9 C23.80009946 8.63000663 23.80009946 8.63000663 20.14453125 8.5859375 C19.48289474 8.56657135 18.82125824 8.5472052 18.13957214 8.5272522 C16.03067836 8.46757313 13.92172963 8.42111913 11.8125 8.375 C10.38083585 8.33680934 8.94919441 8.29775697 7.51757812 8.2578125 C4.01192688 8.16188227 0.50610555 8.07780803 -3 8 C-1.125 2.25 -1.125 2.25 0 0 Z " fill="#E41936" transform="translate(377,35)"/>
<path d="M0 0 C5.58804841 -0.11503302 11.17196309 -0.21449142 16.76025391 -0.2746582 C18.65948431 -0.29974604 20.5586187 -0.33382468 22.45751953 -0.37719727 C25.19327521 -0.4381033 27.9277507 -0.46626653 30.6640625 -0.48828125 C31.50804596 -0.51408768 32.35202942 -0.5398941 33.22158813 -0.56648254 C37.32628082 -0.56841933 40.1460348 -0.33885925 43.45849609 2.21801758 C47.80073866 6.97112556 48.25116684 10.49256347 48.1953125 16.83203125 C48.18886719 18.12431641 48.18242187 19.41660156 48.17578125 20.74804688 C48.15907327 22.1028673 48.14214342 23.45768501 48.125 24.8125 C48.11496003 26.18684251 48.10583596 27.56119203 48.09765625 28.93554688 C48.07411242 32.29054317 48.04122567 35.64518199 48 39 C44.37 39 40.74 39 37 39 C36.67 29.43 36.34 19.86 36 10 C32.71269981 9.17817495 30.13438179 8.81942251 26.796875 8.68359375 C25.47187988 8.62643188 25.47187988 8.62643188 24.12011719 8.56811523 C23.00797852 8.52501221 21.89583984 8.48190918 20.75 8.4375 C17.2025 8.293125 13.655 8.14875 10 8 C10 18.23 10 28.46 10 39 C6.7 39 3.4 39 0 39 C0 26.13 0 13.26 0 0 Z " fill="#E41936" transform="translate(219,35)"/>
<path d="M0 0 C2.44262695 -0.38818359 2.44262695 -0.38818359 5.48828125 -0.3984375 C6.58720703 -0.40230469 7.68613281 -0.40617187 8.81835938 -0.41015625 C10.54795898 -0.39275391 10.54795898 -0.39275391 12.3125 -0.375 C13.45396484 -0.38660156 14.59542969 -0.39820313 15.77148438 -0.41015625 C16.87427734 -0.40628906 17.97707031 -0.40242188 19.11328125 -0.3984375 C20.12173096 -0.39505371 21.13018066 -0.39166992 22.16918945 -0.38818359 C25.56403266 0.07734471 27.31969953 0.86219167 30 3 C32.90587665 7.43888573 33.36021261 10.9034166 33.29296875 16.1484375 C33.28872391 16.80582916 33.28447906 17.46322083 33.28010559 18.14053345 C33.26344977 20.21912391 33.2258262 22.29670774 33.1875 24.375 C33.17243605 25.79295464 33.15875065 27.21092464 33.14648438 28.62890625 C33.11359038 32.0862589 33.06190165 35.54303103 33 39 C29.37 39 25.74 39 22 39 C21.505 25.14 21.505 25.14 21 11 C17.3732621 9.18663105 16.04897933 8.73265305 12.234375 8.5859375 C10.90019531 8.52792969 10.90019531 8.52792969 9.5390625 8.46875 C8.61867187 8.4378125 7.69828125 8.406875 6.75 8.375 C5.34621094 8.31699219 5.34621094 8.31699219 3.9140625 8.2578125 C1.60956946 8.16375156 -0.69492013 8.07810601 -3 8 C-2.45276317 4.62537285 -1.9451 2.91765 0 0 Z " fill="#E31935" transform="translate(155,35)"/>
<path d="M0 0 C1.20849609 0.00322266 2.41699219 0.00644531 3.66210938 0.00976562 C4.92474609 0.01814453 6.18738281 0.02652344 7.48828125 0.03515625 C9.39963867 0.04192383 9.39963867 0.04192383 11.34960938 0.04882812 C14.50004689 0.06062752 17.65039074 0.07709028 20.80078125 0.09765625 C20.25354442 3.4722834 19.74588125 5.18000625 17.80078125 8.09765625 C14.92930778 8.45695857 12.24229499 8.65608946 9.36328125 8.72265625 C3.49841439 8.83736839 3.49841439 8.83736839 -2.19921875 10.09765625 C-3.56761238 12.8344435 -3.41556693 15.14030049 -3.515625 18.19921875 C-3.55751953 19.4109375 -3.59941406 20.62265625 -3.64257812 21.87109375 C-3.68189453 23.14210938 -3.72121094 24.413125 -3.76171875 25.72265625 C-3.80490234 27.00140625 -3.84808594 28.28015625 -3.89257812 29.59765625 C-3.99891761 32.76420973 -4.10094708 35.93084378 -4.19921875 39.09765625 C-7.82921875 39.09765625 -11.45921875 39.09765625 -15.19921875 39.09765625 C-15.25364742 35.30579229 -15.29309977 31.51472586 -15.32421875 27.72265625 C-15.34097656 26.66175781 -15.35773438 25.60085937 -15.375 24.5078125 C-15.47561009 8.10836738 -15.47561009 8.10836738 -11.26171875 2.53515625 C-7.53629777 -0.06134928 -4.41452027 -0.02072545 0 0 Z " fill="#E41936" transform="translate(351.19921875,34.90234375)"/>
<path d="M0 0 C3.3 0 6.6 0 10 0 C10 17.49 10 34.98 10 53 C6.7 53 3.4 53 0 53 C0 35.51 0 18.02 0 0 Z " fill="#E31936" transform="translate(139,21)"/>
<path d="M0 0 C3.27053517 -0.11608726 6.5405418 -0.18720711 9.8125 -0.25 C10.74126953 -0.28351562 11.67003906 -0.31703125 12.62695312 -0.3515625 C13.9659668 -0.37089844 13.9659668 -0.37089844 15.33203125 -0.390625 C16.56530151 -0.4220459 16.56530151 -0.4220459 17.82348633 -0.45410156 C20 -0 20 -0 21.77832031 1.88354492 C23.62259641 5.07859479 23.11008029 7.3966243 22.5859375 10.9375 C22 13 22 13 20.0625 15.0625 C18 16 18 16 16 16 C16.433125 16.77085938 16.86625 17.54171875 17.3125 18.3359375 C17.869375 19.33882812 18.42625 20.34171875 19 21.375 C19.556875 22.37273438 20.11375 23.37046875 20.6875 24.3984375 C22 27 22 27 22 29 C19.36 29 16.72 29 14 29 C13.16180842 27.37750059 12.3295884 25.75191503 11.5 24.125 C11.0359375 23.22007813 10.571875 22.31515625 10.09375 21.3828125 C9 19 9 19 9 17 C7.35 17 5.7 17 4 17 C3.67 20.96 3.34 24.92 3 29 C0.69 29 -1.62 29 -4 29 C-3.37514309 19.21775739 -1.68656475 9.64205883 0 0 Z M6 4 C5.67 6.64 5.34 9.28 5 12 C6.45792884 12.05399736 7.91642712 12.09279177 9.375 12.125 C10.59316406 12.15980469 10.59316406 12.15980469 11.8359375 12.1953125 C14.21342243 12.21370051 14.21342243 12.21370051 16 10 C16 8.35 16 6.7 16 5 C12.7 4.67 9.4 4.34 6 4 Z " fill="#E41835" transform="translate(420,0)"/>
<path d="M0 0 C0 13.86 0 27.72 0 42 C-3.3 42 -6.6 42 -10 42 C-10.19815605 36.82241114 -10.34309889 31.64703814 -10.43945312 26.46655273 C-10.47962241 24.70574497 -10.53417284 22.94520306 -10.60351562 21.18530273 C-11.16635897 6.53068306 -11.16635897 6.53068306 -8.25390625 2.70849609 C-5.49561373 0.9409194 -3.28691949 0 0 0 Z " fill="#E31936" transform="translate(208,32)"/>
<path d="M0 0 C0.74958984 0.01353516 1.49917969 0.02707031 2.27148438 0.04101562 C4.11879767 0.07631461 5.96574066 0.13012083 7.8125 0.1875 C7.4825 1.5075 7.1525 2.8275 6.8125 4.1875 C3.5125 4.8475 0.2125 5.5075 -3.1875 6.1875 C-1.0528125 6.8371875 -1.0528125 6.8371875 1.125 7.5 C4.43098126 8.50616821 6.71153387 9.3634741 8.8125 12.1875 C8.75 15.75 8.75 15.75 7.8125 19.1875 C4.16718872 22.09809738 -0.52022484 21.40773147 -4.9375 21.3125 C-5.73027344 21.30347656 -6.52304687 21.29445313 -7.33984375 21.28515625 C-9.28919281 21.26167012 -11.23838575 21.22580137 -13.1875 21.1875 C-12.5275 19.5375 -11.8675 17.8875 -11.1875 16.1875 C-5.2475 15.6925 -5.2475 15.6925 0.8125 15.1875 C-1.68998865 13.51917423 -3.59899187 12.56368326 -6.375 11.5625 C-7.09042969 11.30210938 -7.80585938 11.04171875 -8.54296875 10.7734375 C-9.08566406 10.58007812 -9.62835938 10.38671875 -10.1875 10.1875 C-11.51846085 3.77468861 -11.51846085 3.77468861 -10.21875 1.46875 C-7.01495754 -0.5521037 -3.65848677 -0.12461221 0 0 Z " fill="#E31835" transform="translate(469.1875,7.8125)"/>
<path d="M0 0 C1.74796875 -0.02126953 1.74796875 -0.02126953 3.53125 -0.04296875 C6.5 0.1875 6.5 0.1875 8.5 2.1875 C8.765625 4.0625 8.765625 4.0625 8.75 6.1875 C8.75515625 6.88875 8.7603125 7.59 8.765625 8.3125 C8.5 10.1875 8.5 10.1875 6.5 12.1875 C3.6796875 12.3828125 3.6796875 12.3828125 0.375 12.3125 C-0.72070312 12.29445313 -1.81640625 12.27640625 -2.9453125 12.2578125 C-3.78835938 12.23460937 -4.63140625 12.21140625 -5.5 12.1875 C-5.17 13.1775 -4.84 14.1675 -4.5 15.1875 C-0.87 15.5175 2.76 15.8475 6.5 16.1875 C6.17 17.5075 5.84 18.8275 5.5 20.1875 C2.61079306 21.15056898 0.57752119 21.3830936 -2.4375 21.4375 C-3.29214844 21.46328125 -4.14679688 21.4890625 -5.02734375 21.515625 C-8.06734535 21.11221246 -9.37922368 20.39543151 -11.5 18.1875 C-12.8462341 12.12414641 -11.44263585 6.50688019 -8.5 1.1875 C-5.65161879 -0.2366906 -3.17212092 0.01754492 0 0 Z M-2.5 4.1875 C-3.16 5.5075 -3.82 6.8275 -4.5 8.1875 C-2.52 8.1875 -0.54 8.1875 1.5 8.1875 C1.83 7.1975 2.16 6.2075 2.5 5.1875 C0.85 4.8575 -0.8 4.5275 -2.5 4.1875 Z " fill="#E41835" transform="translate(491.5,7.8125)"/>
<path d="M0 0 C1.98 0 3.96 0 6 0 C6.17159443 6.17739955 5.53731344 11.91629688 4.5 18 C4.28537109 19.30517578 4.28537109 19.30517578 4.06640625 20.63671875 C3.71661973 22.75875695 3.3591135 24.87952028 3 27 C0.69 26.67 -1.62 26.34 -4 26 C-3.52451163 22.41616855 -3.04396997 18.83303236 -2.5625 15.25 C-2.42779297 14.23421875 -2.29308594 13.2184375 -2.15429688 12.171875 C-2.02216797 11.1921875 -1.89003906 10.2125 -1.75390625 9.203125 C-1.63345947 8.30239258 -1.5130127 7.40166016 -1.38891602 6.47363281 C-1.04205758 4.26749992 -0.58252295 2.15423582 0 0 Z " fill="#E51835" transform="translate(449,2)"/>
<path d="M0 0 C3.3 0 6.6 0 10 0 C10.5 3.1875 10.5 3.1875 10 7 C7.23158994 9.55351065 3.86112137 12 0 12 C0 8.04 0 4.08 0 0 Z " fill="#E41835" transform="translate(198,21)"/>
</svg>
