<?xml version="1.0" encoding="UTF-8"?>
<svg version="1.1" xmlns="http://www.w3.org/2000/svg" width="500" height="66">
<path d="M0 0 C8.91 0 17.82 0 27 0 C28.07378906 2.82304688 29.14757812 5.64609375 30.25390625 8.5546875 C31.31958623 11.35504011 32.38549109 14.15530702 33.45141602 16.95556641 C34.17983996 18.86953993 34.90803811 20.7835994 35.63598633 22.69775391 C36.69549954 25.4836375 37.75571756 28.26925125 38.81640625 31.0546875 C39.16474518 31.96957947 39.51308411 32.88447144 39.87197876 33.8270874 C42.52343606 40.77885269 45.21307186 47.71527061 47.94032288 54.63766479 C50 59.89262028 50 59.89262028 50 61 C41.75 61 33.5 61 25 61 C21 50.33333333 17 39.66666667 13 29 C7.555 44.84 7.555 44.84 2 61 C-6.25 61 -14.5 61 -23 61 C-19.6245256 49.74841867 -19.6245256 49.74841867 -18.03881836 45.61376953 C-17.6851268 44.68646027 -17.33143524 43.759151 -16.96702576 42.80374146 C-16.59505569 41.8398349 -16.22308563 40.87592834 -15.83984375 39.8828125 C-15.44930313 38.86323456 -15.05876251 37.84365662 -14.65638733 36.79318237 C-13.83702416 34.65638023 -13.01591002 32.52024874 -12.19311523 30.38476562 C-10.93362461 27.11493891 -9.68026561 23.84281054 -8.42773438 20.5703125 C-7.6279624 18.48684162 -6.82784442 16.40350352 -6.02734375 14.3203125 C-5.65334946 13.34426056 -5.27935516 12.36820862 -4.89402771 11.36257935 C-4.54348831 10.45418304 -4.19294891 9.54578674 -3.83178711 8.60986328 C-3.52550888 7.81395782 -3.21923065 7.01805237 -2.90367126 6.19802856 C-2.03614224 4.08790994 -1.02031438 2.04062877 0 0 Z " fill="#3B77BB" transform="translate(77,2)"/>
<path d="M0 0 C8.91 0 17.82 0 27 0 C32.72632858 13.9390893 38.40829707 27.88960662 43.88024902 41.9303894 C44.41782334 43.30860948 44.95712701 44.68615629 45.49816895 46.0630188 C46.25787103 47.99837362 47.01077275 49.93623374 47.76171875 51.875 C48.410802 53.54175781 48.410802 53.54175781 49.07299805 55.2421875 C50 58 50 58 50 61 C41.75 61 33.5 61 25 61 C21.37 50.44 17.74 39.88 14 29 C10.79625577 38.03367088 10.79625577 38.03367088 7.59814453 47.06933594 C7.19708496 48.19629883 6.79602539 49.32326172 6.3828125 50.484375 C5.97434082 51.63647461 5.56586914 52.78857422 5.14501953 53.97558594 C4 57 4 57 2 61 C-5.92 61 -13.84 61 -22 61 C-21.31769676 57.5884838 -20.68619138 54.87017191 -19.49707031 51.69140625 C-19.19295227 50.87285156 -18.88883423 50.05429687 -18.57550049 49.2109375 C-18.24636658 48.33695313 -17.91723267 47.46296875 -17.578125 46.5625 C-17.2362616 45.64597656 -16.89439819 44.72945312 -16.54217529 43.78515625 C-15.44831905 40.85543518 -14.34916528 37.92773278 -13.25 35 C-12.52570871 33.06132228 -11.80174705 31.12252137 -11.078125 29.18359375 C-7.43611178 19.43581583 -3.75733221 9.7039761 0 0 Z " fill="#3B77BB" transform="translate(195,2)"/>
<path d="M0 0 C19.8 0 39.6 0 60 0 C60 6.27 60 12.54 60 19 C54.39 19 48.78 19 43 19 C43 32.86 43 46.72 43 61 C34.75 61 26.5 61 18 61 C18 47.14 18 33.28 18 19 C12.06 19 6.12 19 0 19 C0 12.73 0 6.46 0 0 Z " fill="#3C77BA" transform="translate(120,2)"/>
<path d="M0 0 C19.47 0 38.94 0 59 0 C59 6.27 59 12.54 59 19 C53.39 19 47.78 19 42 19 C42 32.86 42 46.72 42 61 C33.75 61 25.5 61 17 61 C17 47.14 17 33.28 17 19 C11.39 19 5.78 19 0 19 C0 12.73 0 6.46 0 0 Z " fill="#3B77BA" transform="translate(2,2)"/>
<path d="M0 0 C12.21 0 24.42 0 37 0 C37 3.3 37 6.6 37 10 C28.75 10 20.5 10 12 10 C12 14.95 12 19.9 12 25 C19.59 25 27.18 25 35 25 C35 28.3 35 31.6 35 35 C27.41 35 19.82 35 12 35 C12 40.28 12 45.56 12 51 C20.58 51 29.16 51 38 51 C38 54.3 38 57.6 38 61 C25.46 61 12.92 61 0 61 C0 40.87 0 20.74 0 0 Z " fill="#3B77BA" transform="translate(364,2)"/>
<path d="M0 0 C11.88 0 23.76 0 36 0 C36 3.3 36 6.6 36 10 C28.08 10 20.16 10 12 10 C12 14.95 12 19.9 12 25 C19.59 25 27.18 25 35 25 C35 28.3 35 31.6 35 35 C27.41 35 19.82 35 12 35 C12 40.28 12 45.56 12 51 C20.58 51 29.16 51 38 51 C38 54.3 38 57.6 38 61 C25.46 61 12.92 61 0 61 C0 40.87 0 20.74 0 0 Z " fill="#3B77BB" transform="translate(412,2)"/>
<path d="M0 0 C-0.875 7.75 -0.875 7.75 -2 10 C-2.6290625 9.84402344 -3.258125 9.68804687 -3.90625 9.52734375 C-10.03226823 8.13422816 -16.3305876 6.70661725 -22 10.25 C-23.51398463 12.8994731 -23.7856369 14.00029547 -23 17 C-18.17534235 21.30233004 -11.54670137 23.7248201 -5.734375 26.375 C-1.16414507 29.09102236 1.54756324 32.91647133 3 38 C3.62434624 44.74293934 2.03556945 49.51208178 -2.25 54.75 C-7.99597159 59.45124948 -13.22924149 60.51053301 -20.4375 60.375 C-21.55692993 60.36629883 -21.55692993 60.36629883 -22.69897461 60.35742188 C-28.02152668 60.23159598 -32.21072733 59.44558605 -37 57 C-36.25 49.375 -36.25 49.375 -34 46 C-32.906875 46.495 -31.81375 46.99 -30.6875 47.5 C-25.59582346 49.40597518 -20.37418991 49.85119157 -15 49 C-12.63694445 47.53580035 -11.30760837 46.61521674 -10.0625 44.125 C-9.96758693 40.89795557 -11.0462458 39.5654972 -13 37 C-15.49903545 35.36642345 -18.15576695 34.15992999 -20.875 32.9375 C-32.10033344 27.77466449 -32.10033344 27.77466449 -35.2890625 23.1171875 C-37.21370798 17.38555097 -36.89120478 10.91951798 -34.375 5.5 C-25.29050163 -4.06262986 -11.87741412 -5.28848366 0 0 Z " fill="#3B77BA" transform="translate(309,4)"/>
<path d="M0 0 C15.18 0 30.36 0 46 0 C46 3.3 46 6.6 46 10 C40.39 10 34.78 10 29 10 C29 26.83 29 43.66 29 61 C25.04 61 21.08 61 17 61 C17 44.5 17 28 17 11 C11.39 10.67 5.78 10.34 0 10 C0 6.7 0 3.4 0 0 Z " fill="#3B77BA" transform="translate(312,2)"/>
<path d="M0 0 C3.96 0 7.92 0 12 0 C12 16.83 12 33.66 12 51 C20.25 51 28.5 51 37 51 C37 54.3 37 57.6 37 61 C24.79 61 12.58 61 0 61 C0 40.87 0 20.74 0 0 Z " fill="#3C78BA" transform="translate(460,2)"/>
</svg>
