<?xml version="1.0" standalone="no"?>
<!DOCTYPE svg PUBLIC "-//W3C//DTD SVG 20010904//EN"
 "http://www.w3.org/TR/2001/REC-SVG-20010904/DTD/svg10.dtd">
<svg version="1.0" xmlns="http://www.w3.org/2000/svg"
 width="474.000000pt" height="266.000000pt" viewBox="0 0 474.000000 266.000000"
 preserveAspectRatio="xMidYMid meet">

<g transform="translate(0.000000,266.000000) scale(0.100000,-0.100000)"
fill="#000000" stroke="none">
<path d="M420 2000 c-203 -37 -357 -193 -392 -397 -10 -60 -9 -83 5 -153 21
-111 59 -183 131 -256 145 -145 359 -182 545 -94 65 31 158 111 192 166 17 28
27 33 62 36 l42 3 5 137 c6 157 14 175 89 185 l41 6 0 48 0 49 -35 0 c-24 0
-45 -9 -70 -31 l-35 -31 0 31 c0 28 -3 31 -30 31 -25 0 -35 9 -63 53 -63 98
-158 170 -265 202 -60 19 -166 26 -222 15z m242 -79 c63 -25 143 -91 188 -157
l30 -43 0 -182 c0 -100 -3 -179 -7 -175 -5 4 -71 116 -149 249 l-141 242 -71
3 -70 3 -158 -263 -158 -262 -14 34 c-60 144 -28 322 78 443 46 52 87 80 169
114 48 20 69 23 151 20 69 -2 111 -9 152 -26z m-94 -409 c-31 -2 -86 -2 -121
0 l-64 3 60 108 60 108 61 -108 62 -108 -58 -3z m148 -154 l30 -53 59 -5 59
-5 -55 -56 c-99 -102 -231 -149 -362 -130 -97 14 -168 50 -240 123 l-62 63 60
5 59 5 30 53 30 52 181 0 181 0 30 -52z"/>
<path d="M2440 1775 c0 -43 -1 -45 -30 -45 -29 0 -30 -1 -30 -50 0 -49 1 -50
30 -50 l30 0 0 -110 c0 -180 23 -209 169 -218 l89 -5 4 47 c2 26 1 49 -1 52
-2 2 -23 4 -45 4 -23 0 -52 7 -64 16 -20 14 -22 23 -22 115 l0 99 60 0 60 0 0
50 0 50 -59 0 -60 0 -3 43 -3 42 -62 3 -63 3 0 -46z"/>
<path d="M1735 1745 c-5 -2 -27 -6 -47 -10 -21 -3 -51 -17 -68 -32 l-31 -26
-20 22 c-45 48 -146 56 -222 17 -44 -22 -47 -22 -47 -5 0 16 -8 19 -60 19
l-60 0 0 -215 0 -216 63 3 62 3 5 153 c5 147 6 155 29 173 32 26 92 25 117 -2
17 -18 19 -40 22 -175 l3 -155 62 3 62 3 5 152 c6 171 9 181 76 190 30 4 45 0
64 -15 24 -20 25 -24 28 -177 l3 -156 62 3 62 3 0 170 c0 159 -1 172 -23 206
-12 20 -35 41 -50 47 -32 12 -83 21 -97 17z"/>
<path d="M3809 1740 c-20 -4 -52 -17 -72 -29 -37 -23 -37 -23 -37 -2 0 19 -6
21 -60 21 l-60 0 0 -215 0 -215 60 0 60 0 0 129 c0 70 5 142 11 160 20 56 103
80 150 42 23 -18 24 -25 27 -175 l4 -156 59 0 59 0 0 180 0 180 -33 37 c-27
29 -43 37 -83 42 -27 4 -65 4 -85 1z"/>
<path d="M4233 1739 c-120 -22 -179 -103 -171 -239 3 -51 10 -76 28 -104 55
-81 207 -116 298 -68 l42 22 0 -36 c0 -42 -23 -89 -49 -104 -51 -27 -161 -2
-161 36 0 11 -15 14 -65 14 -72 0 -78 -7 -50 -59 36 -71 128 -109 236 -97 105
10 176 64 201 149 8 27 12 120 12 259 l1 218 -62 0 c-49 0 -63 -3 -63 -15 0
-12 -6 -12 -37 4 -46 23 -104 30 -160 20z m137 -104 c95 -49 73 -218 -32 -239
-108 -22 -180 79 -134 187 24 58 106 83 166 52z"/>
<path d="M2033 1715 c-100 -50 -112 -160 -23 -205 20 -10 73 -26 119 -34 45
-9 91 -20 101 -26 25 -14 26 -36 1 -50 -30 -15 -117 -12 -135 5 -17 18 -146
22 -146 5 0 -6 7 -25 16 -41 46 -89 284 -105 371 -25 65 59 53 170 -21 201
-17 8 -72 21 -122 30 -102 19 -125 33 -98 59 14 14 28 16 73 12 169 -19 191
-19 191 1 0 26 -35 62 -76 79 -19 8 -68 14 -117 14 -69 0 -92 -4 -134 -25z"/>
<path d="M3169 1726 c-154 -55 -198 -247 -83 -362 50 -50 99 -67 199 -68 112
0 196 48 232 134 17 38 19 134 4 173 -18 46 -79 105 -128 121 -56 19 -174 20
-224 2z m154 -87 c49 -13 77 -57 77 -119 0 -93 -72 -148 -159 -121 -58 17 -81
51 -81 120 0 65 17 96 64 117 38 16 51 17 99 3z"/>
<path d="M4600 1721 c-16 -30 -12 -59 11 -82 27 -27 67 -21 93 14 19 26 19 30
6 54 -8 15 -21 28 -29 31 -7 2 -4 -5 8 -17 11 -11 21 -27 21 -34 0 -24 -31
-57 -55 -57 -49 0 -72 55 -38 92 9 10 11 18 5 18 -6 0 -16 -9 -22 -19z"/>
<path d="M2742 1518 l3 -213 63 -3 62 -3 0 118 c0 163 27 212 118 213 32 0 32
0 32 51 l0 52 -46 -6 c-32 -3 -54 -13 -75 -33 l-29 -28 0 32 0 32 -65 0 -65 0
2 -212z"/>
<path d="M4632 1685 c0 -22 2 -32 5 -22 6 21 12 22 27 2 9 -12 11 -8 12 22 1
21 0 30 -3 21 -2 -10 -11 -18 -18 -18 -7 0 -16 8 -18 18 -3 9 -5 -1 -5 -23z"/>
<path d="M431 887 c-89 -46 -87 -181 3 -225 45 -22 140 7 122 37 -5 8 -13 7
-29 -4 -31 -22 -72 -18 -104 9 -23 20 -28 32 -28 69 0 79 72 124 131 82 20
-14 34 -11 34 6 0 13 -56 39 -82 39 -13 0 -34 -6 -47 -13z"/>
<path d="M599 891 c-1 -3 -2 -57 -3 -118 l-1 -113 63 0 c72 0 84 17 15 22 -47
3 -48 3 -51 40 l-3 37 47 3 c68 4 71 28 4 28 l-51 0 3 38 c3 37 3 37 51 40 26
2 47 7 47 13 0 11 -2 12 -67 14 -29 1 -54 -1 -54 -4z"/>
<path d="M773 893 c-9 -3 -13 -37 -13 -119 0 -95 3 -114 15 -114 13 0 15 20
15 120 0 66 -1 120 -2 119 -2 0 -9 -3 -15 -6z"/>
<path d="M850 781 l0 -121 55 0 c30 0 55 5 55 10 0 6 -18 10 -40 10 -45 0 -40
-16 -43 139 -1 49 -6 76 -14 78 -10 4 -13 -24 -13 -116z"/>
<path d="M996 884 c-3 -9 -6 -55 -6 -104 0 -98 5 -120 27 -120 13 0 15 10 9
61 -3 34 -6 88 -6 120 0 57 -11 77 -24 43z"/>
<path d="M1368 884 c-54 -29 -74 -113 -42 -175 19 -37 75 -63 119 -55 40 8 83
52 91 94 l7 32 -57 0 c-31 0 -56 -4 -56 -10 0 -5 18 -10 40 -10 44 0 45 -1 28
-33 -17 -33 -39 -46 -76 -47 -76 0 -112 104 -57 164 28 30 78 35 111 11 21
-14 34 -11 34 7 0 12 -64 38 -92 38 -13 -1 -35 -7 -50 -16z"/>
<path d="M1974 874 c19 -87 64 -209 77 -212 11 -2 21 22 39 88 27 100 26 101
60 -17 12 -43 26 -73 34 -73 10 0 48 105 80 220 0 3 -3 7 -8 10 -12 7 -22 -14
-47 -99 -24 -83 -28 -81 -55 26 -18 72 -39 98 -51 66 -3 -9 -16 -50 -29 -92
-12 -43 -24 -70 -28 -61 -3 8 -16 48 -28 89 -13 41 -29 76 -37 79 -10 3 -12
-3 -7 -24z"/>
<path d="M2335 858 c-59 -147 -74 -198 -60 -198 9 0 20 11 25 25 9 23 15 25
65 25 50 0 56 -2 65 -25 5 -14 16 -25 25 -25 14 0 -4 61 -64 213 -15 39 -36
33 -56 -15z m58 -70 l16 -48 -45 0 -44 0 20 53 c11 28 20 54 20 57 0 15 20
-22 33 -62z"/>
<path d="M2506 893 c-3 -3 -6 -57 -6 -120 l0 -113 55 0 c30 0 55 5 55 10 0 6
-18 10 -40 10 l-40 0 0 104 c0 96 -7 126 -24 109z"/>
<path d="M2650 780 l0 -120 55 0 c30 0 55 5 55 10 0 6 -18 10 -40 10 l-40 0 0
104 c0 83 -3 105 -15 110 -13 5 -15 -12 -15 -114z"/>
<path d="M2918 889 c-58 -33 -42 -95 32 -126 35 -15 50 -27 50 -40 0 -43 -60
-59 -82 -23 -15 23 -38 27 -38 6 0 -21 48 -56 77 -56 28 0 73 41 73 67 0 29
-28 61 -59 68 -40 9 -68 41 -55 63 17 26 60 27 74 3 14 -26 30 -27 30 -2 0 39
-63 63 -102 40z"/>
<path d="M3110 878 c-92 -62 -63 -203 45 -224 55 -10 120 36 131 92 20 108
-90 190 -176 132z m119 -32 c12 -13 25 -42 28 -65 5 -35 2 -44 -25 -71 -50
-49 -112 -37 -138 27 -39 92 69 179 135 109z"/>
<path d="M3471 891 c-10 -7 -13 -30 -9 -100 5 -110 20 -133 88 -135 34 -1 46
4 66 27 21 25 24 38 24 116 0 70 -3 90 -15 95 -13 4 -15 -9 -15 -88 0 -102
-12 -126 -62 -126 -41 0 -53 25 -58 126 -4 76 -8 92 -19 85z"/>
<path d="M3663 887 c-5 -8 9 -14 42 -19 18 -3 20 -12 23 -106 3 -125 22 -137
23 -14 2 123 0 117 37 120 18 2 32 8 30 14 -5 13 -147 17 -155 5z"/>
<path d="M3847 893 c-2 -5 -2 -14 -1 -20 1 -7 2 -58 3 -113 0 -59 5 -100 11
-100 6 0 10 47 10 120 0 68 -4 120 -9 120 -6 0 -12 -3 -14 -7z"/>
<path d="M3978 885 c-87 -49 -73 -198 21 -226 47 -14 85 -2 123 38 18 19 23
36 23 79 0 47 -4 58 -31 85 -37 37 -95 47 -136 24z m116 -46 c36 -43 35 -91
-3 -130 -50 -49 -122 -32 -139 34 -27 101 78 172 142 96z"/>
<path d="M4348 808 l-3 -93 -60 87 c-84 123 -95 120 -95 -27 0 -94 3 -115 15
-115 11 0 15 19 17 87 l3 87 60 -84 c34 -47 69 -86 78 -88 16 -3 17 7 15 114
-2 81 -7 119 -15 121 -9 3 -13 -21 -15 -89z"/>
<path d="M4442 884 c-15 -10 -22 -25 -22 -48 0 -36 15 -53 73 -79 38 -17 48
-42 25 -65 -19 -19 -56 -14 -70 8 -13 21 -38 27 -38 10 0 -20 49 -60 73 -60
37 0 77 36 77 69 0 31 -17 49 -73 74 -33 15 -38 21 -35 45 4 37 49 44 72 10
12 -16 19 -19 27 -11 9 9 5 18 -14 37 -30 30 -62 33 -95 10z"/>
<path d="M1080 776 c0 -95 3 -116 15 -116 11 0 15 19 17 87 l3 86 60 -86 c84
-120 93 -117 94 28 0 102 -2 115 -17 115 -15 0 -17 -10 -14 -87 4 -101 6 -101
-72 9 -77 109 -86 105 -86 -36z"/>
<path d="M3330 775 l0 -115 55 0 c30 0 55 5 55 10 0 6 -18 10 -40 10 l-40 0 0
105 c0 87 -3 105 -15 105 -12 0 -15 -19 -15 -115z"/>
<path d="M1709 864 c-10 -12 -10 -22 -2 -44 9 -25 8 -32 -13 -51 -30 -28 -31
-72 -4 -99 25 -25 46 -25 87 -1 26 16 32 17 37 5 3 -8 13 -14 21 -14 15 0 15
2 1 22 -14 20 -14 24 0 39 23 25 8 45 -17 23 -11 -9 -21 -15 -22 -13 -34 43
-36 51 -15 79 16 23 18 32 9 49 -14 25 -62 29 -82 5z m59 -26 c-2 -13 -10 -23
-18 -23 -8 0 -16 10 -18 23 -3 17 2 22 18 22 16 0 21 -5 18 -22z m-8 -93 c29
-31 19 -58 -23 -63 -37 -5 -54 30 -32 64 20 30 26 30 55 -1z"/>
</g>
</svg>
