<?xml version="1.0" encoding="UTF-8"?>
<svg version="1.1" xmlns="http://www.w3.org/2000/svg" width="500" height="209">
<path d="M0 0 C1.80619814 3.61239627 0.93223355 7.23356216 0 11 C-8.7080381 32.2224199 -29.1485568 50.45684404 -47.1796875 63.8359375 C-49.67419265 65.75000378 -51.84389686 67.71890537 -54 70 C-53.44650879 69.93941406 -52.89301758 69.87882812 -52.32275391 69.81640625 C-49.75739678 69.53878175 -47.19123714 69.2693639 -44.625 69 C-43.75488281 68.90460938 -42.88476562 68.80921875 -41.98828125 68.7109375 C-35.96970497 68.08678885 -30.04920988 67.88276094 -24 68 C-25.84833074 72.04443665 -28.56021624 74.66694837 -31.75 77.6875 C-41.43688818 87.09057204 -41.43688818 87.09057204 -45.125 99.625 C-45.38929654 102.83752049 -45.38929654 102.83752049 -44 104 C-38.16410951 104 -35.19802199 102.14438385 -31.00390625 98.171875 C-27.57741793 94.45817616 -24.24689554 90.54710725 -22 86 C-22.19134546 83.91689884 -22.19134546 83.91689884 -23 82 C-24.2270138 75.864931 -24.21894586 71.50147111 -21 66 C-19.09559464 63.57202701 -17.76197175 62.64656008 -15 61 C-10.95217543 61.06746374 -8.89653503 61.10346497 -6 64 C-5.67568739 68.94576735 -5.74508212 72.49016424 -8 77 C-1.07122945 76.21657073 3.38924952 72.90879569 9 69 C9.71285156 68.54625 10.42570312 68.0925 11.16015625 67.625 C16.2873839 63.9673599 16.97975787 60.05830937 18.19921875 54.05078125 C19.41787278 49.40800661 21.64684952 45.44586432 25 42 C28.76910936 40.1241836 30.95034802 39.68659936 35 41 C37 43 37 43 37.1875 46.375 C36.56285755 50.844844 34.28503561 53.47059558 31.5 56.9375 C27.29711416 62.17945112 25.88858558 65.31513489 26 72 C34.46594287 68.90892174 42.82790606 65.78961612 50.9609375 61.8828125 C53 61 53 61 55 61 C55.01417969 60.39414063 55.02835937 59.78828125 55.04296875 59.1640625 C55.46397965 51.76792503 57.26839979 44.39372896 62.94140625 39.234375 C66.00477771 37.3975147 68.51096107 37.67694084 72 38 C74 40 74 40 74.375 43.125 C73.89161998 48.11992684 72.43666765 52.86578443 68.53466797 56.28344727 C64.33726387 60.19724298 63.56498273 63.24472074 63.3359375 68.96484375 C63.32003581 71.62705191 63.32895624 74.27687424 63.375 76.9375 C63.59257903 94.99438388 63.59257903 94.99438388 57.17578125 101.98828125 C50.40460563 106.8005004 43.48380234 109.96043045 35 109 C31.01933905 107.42275698 29.39332726 106.58999089 27 103 C26.14660515 96.81288734 27.29082112 93.26726257 30.96484375 88.23828125 C36.71945852 81.90930953 44.21175274 77.39850789 52 74 C52.66 74 53.32 74 54 74 C54 72.02 54 70.04 54 68 C53.39526855 68.26216309 52.79053711 68.52432617 52.16748047 68.79443359 C49.40443023 69.99053863 46.63973674 71.18279871 43.875 72.375 C42.92367188 72.7875 41.97234375 73.2 40.9921875 73.625 C36.37727096 75.61197796 31.81102914 77.52591363 27 79 C26.84144531 79.97839844 26.68289063 80.95679687 26.51953125 81.96484375 C24.84646829 91.63650586 23.10608333 100.02105376 15.0625 106.4375 C8.67683748 110.73028244 2.61928413 111.86351887 -5 111 C-7.48050929 109.83567931 -9.09425952 108.90574048 -11 107 C-11.58150827 101.06190598 -11.54834959 95.98986662 -8 91 C-2.03159256 84.29533232 5.88222224 80.50491979 14 77 C14.66 77 15.32 77 16 77 C16 75.35 16 73.7 16 72 C15.47792969 72.44730469 14.95585937 72.89460938 14.41796875 73.35546875 C5.99590076 80.27306926 -2.94872528 85.20851462 -14 85 C-14.185625 85.804375 -14.37125 86.60875 -14.5625 87.4375 C-18.88213917 98.14269272 -29.02819628 108.44049694 -39.51953125 113.125 C-45.02735928 115.06791886 -49.17869173 115.53743523 -54.8125 113.875 C-58.24747141 111.85442858 -60.0320374 110.46361418 -62 107 C-63.35243704 98.20915921 -58.18668813 90.93414317 -53.46484375 83.9453125 C-52 82 -52 82 -49 79 C-52.63 79.33 -56.26 79.66 -60 80 C-60.66 81.65 -61.32 83.3 -62 85 C-63.23442575 87.43004626 -64.48786684 89.83965838 -65.7734375 92.2421875 C-66.13845367 92.92878448 -66.50346985 93.61538147 -66.87954712 94.32278442 C-67.64993594 95.77068298 -68.42155693 97.21792652 -69.19433594 98.66455078 C-70.3667333 100.85952301 -71.53525664 103.05652156 -72.703125 105.25390625 C-73.45550117 106.6667881 -74.20809824 108.07955235 -74.9609375 109.4921875 C-75.3058725 110.14033417 -75.6508075 110.78848083 -76.00619507 111.45626831 C-78.26489963 115.68122206 -80.60687432 119.84964206 -83 124 C-82.40057587 123.94402145 -81.80115173 123.88804291 -81.18356323 123.83036804 C-47.81634407 120.72099556 -14.46098483 117.87891807 19 116 C20.26134766 115.92797363 21.52269531 115.85594727 22.82226562 115.78173828 C41.53636056 114.75328146 60.26468874 114.89442607 79 115 C78.36771484 115.70576172 78.36771484 115.70576172 77.72265625 116.42578125 C76.90087891 117.35970703 76.90087891 117.35970703 76.0625 118.3125 C75.51722656 118.92738281 74.97195313 119.54226562 74.41015625 120.17578125 C72.79918441 122.05241958 72.79918441 122.05241958 72 125 C73.19109375 125.74056641 73.19109375 125.74056641 74.40625 126.49609375 C75.4271875 127.13675781 76.448125 127.77742187 77.5 128.4375 C78.5209375 129.07558594 79.541875 129.71367187 80.59375 130.37109375 C81.78484375 131.17740234 81.78484375 131.17740234 83 132 C83 132.33 83 132.66 83 133 C82.16174683 132.99777939 81.32349365 132.99555878 80.45983887 132.99327087 C29.14731731 132.86364352 -21.88803955 133.24536765 -73.12890625 136.28125 C-74.12488831 136.33854782 -75.12087036 136.39584564 -76.14703369 136.45487976 C-77.96641393 136.56558939 -79.78517628 136.68728825 -81.60289001 136.82263184 C-83.10869865 136.93405038 -84.61670912 137.02114234 -86.12574768 137.07287598 C-88.2128351 137.15342357 -88.2128351 137.15342357 -91 138 C-92.85303247 140.39100275 -92.85303247 140.39100275 -93.89453125 143.53125 C-94.36673096 144.65281494 -94.83893066 145.77437988 -95.32543945 146.92993164 C-95.81616943 148.1080542 -96.30689941 149.28617676 -96.8125 150.5 C-102.02766436 161.92823871 -102.02766436 161.92823871 -106.3515625 164.27783203 C-111.65879217 165.55784765 -116.68770258 165.00760748 -122 164 C-120.36036204 158.05384306 -117.37624538 152.96477922 -114.375 147.625 C-113.859375 146.69816406 -113.34375 145.77132812 -112.8125 144.81640625 C-111.54617189 142.54170575 -110.27524075 140.26971208 -109 138 C-109.99 138.33 -110.98 138.66 -112 139 C-115.03008466 139.28265854 -118.05050069 139.52031212 -121.0859375 139.7265625 C-123.039688 139.86853701 -124.99337992 140.01131944 -126.94702148 140.15478516 C-127.99155487 140.23077942 -129.03608826 140.30677368 -130.11227417 140.3850708 C-157.87485991 142.42663215 -185.46054602 145.5386233 -213.09545898 148.83609009 C-222.72141118 149.98064347 -232.35556453 151.02442625 -242 152 C-241.375 149.625 -241.375 149.625 -240 147 C-235.03827153 144.62511821 -229.26197857 144.0237801 -223.8671875 143.08203125 C-222.86262009 142.90396439 -221.85805267 142.72589752 -220.82304382 142.54243469 C-217.50821632 141.95874089 -214.1918835 141.38438973 -210.875 140.8125 C-209.73296112 140.61468933 -208.59092224 140.41687866 -207.41427612 140.21307373 C-189.84027988 137.18347938 -172.23554575 134.50593776 -154.5625 132.125 C-152.92584885 131.90028015 -152.92584885 131.90028015 -151.25613403 131.67102051 C-141.05254733 130.27398689 -130.90419215 128.91543261 -120.609375 128.46484375 C-109.11597394 128.60246388 -109.11597394 128.60246388 -98.97167969 124.31835938 C-95.38275019 119.98027438 -93.50461072 115.38068606 -92 110 C-95.20834839 111.47569342 -97.86496917 113.32401073 -100.6875 115.4375 C-106.3036808 119.3994302 -111.44633505 122.19383627 -118.4375 121.8125 C-121 121 -121 121 -123 119 C-124.16162555 111.15902752 -120.7648922 105.71252732 -117 99 C-116.57460938 98.23300781 -116.14921875 97.46601562 -115.7109375 96.67578125 C-114.82601715 95.10648005 -113.91653064 93.55105185 -113 92 C-122.81620591 100.38839414 -133.18281095 109.4802263 -139.125 121.125 C-140.20703125 122.76171875 -140.20703125 122.76171875 -142 124 C-147.02673342 124.89088186 -151.90433224 125.04486751 -157 125 C-156.690625 124.236875 -156.38125 123.47375 -156.0625 122.6875 C-155.32106407 120.81210323 -154.63771783 118.91315348 -154 117 C-154.95261719 117.62648438 -155.90523437 118.25296875 -156.88671875 118.8984375 C-158.15349584 119.72418849 -159.42043132 120.54969652 -160.6875 121.375 C-161.31333984 121.7875 -161.93917969 122.2 -162.58398438 122.625 C-168.33054743 126.35575298 -172.92148935 128.77220116 -180 128 C-182.21484375 125.9765625 -182.21484375 125.9765625 -184 124 C-184.65226563 124.48210937 -185.30453125 124.96421875 -185.9765625 125.4609375 C-193.74856552 131.07787184 -200.18962641 134.48543094 -210 133 C-213.125 131.25 -213.125 131.25 -215 128 C-215.39364552 123.96382131 -215.28998711 120.04048708 -215 116 C-218.96711241 115.52363414 -222.18890114 115.75755385 -226 117 C-229.94519638 120.40745008 -233.16009969 124.28486052 -236.50146484 128.27197266 C-260.24457408 155.65120484 -300.95072013 178.05377706 -337 182 C-340.6259229 182.2284541 -344.24238727 182.33216259 -347.875 182.375 C-349.17727539 182.39614868 -349.17727539 182.39614868 -350.50585938 182.41772461 C-357.08382765 182.3679488 -364.0261536 181.77329799 -369.02734375 177.109375 C-370.88256771 173.08599773 -370.7815562 169.31158503 -370 165 C-368.4800637 161.83346603 -366.43710156 159.50833209 -364 157 C-363.08927734 156.03126953 -363.08927734 156.03126953 -362.16015625 155.04296875 C-355.42406962 148.48789021 -347.28613428 144.26442014 -339 140 C-338.32936523 139.65437012 -337.65873047 139.30874023 -336.96777344 138.95263672 C-307.52103797 124 -307.52103797 124 -297 124 C-296.74202637 123.31349365 -296.48405273 122.6269873 -296.21826172 121.91967773 C-294.83349758 118.60096144 -293.20269395 115.45190773 -291.5078125 112.28515625 C-291.16571243 111.64134003 -290.82361237 110.9975238 -290.47114563 110.334198 C-289.35843588 108.24219641 -288.24185986 106.15228849 -287.125 104.0625 C-286.3528497 102.61341392 -285.58079636 101.16427617 -284.80883789 99.71508789 C-279.46823041 89.70000555 -274.06035974 79.72283657 -268.60546875 69.76953125 C-265.01345118 63.21002187 -261.50005308 56.60892376 -258 50 C-297.94875306 42.3436702 -340.32498949 62.64656929 -375 80 C-376.01642578 80.50740723 -377.03285156 81.01481445 -378.08007812 81.53759766 C-380.38753614 82.69011051 -382.69421914 83.8441365 -385 85 C-383.71119471 80.85382561 -382.15090494 77.10563237 -380.13671875 73.26171875 C-379.57919922 72.19373047 -379.02167969 71.12574219 -378.44726562 70.02539062 C-377.86654297 68.92388672 -377.28582031 67.82238281 -376.6875 66.6875 C-376.11837891 65.59759766 -375.54925781 64.50769531 -374.96289062 63.38476562 C-373.84013579 61.24109021 -372.70517729 59.10375675 -371.55737305 56.97338867 C-370.59148665 55.12928609 -369.67567668 53.25684175 -368.84301758 51.34887695 C-366.72152463 46.72916849 -364.93959653 44.5402953 -360.17578125 42.58203125 C-358.2331595 41.95439951 -356.27737196 41.36655692 -354.3125 40.8125 C-353.25957764 40.49063721 -352.20665527 40.16877441 -351.12182617 39.8371582 C-316.31628941 29.47124512 -282.18801567 25.65448047 -246 28 C-245.484375 26.87464844 -244.96875 25.74929687 -244.4375 24.58984375 C-242.67090328 21.51457077 -242.29049844 21.100208 -238.75 19.87890625 C-237.5125 19.77449219 -236.275 19.67007813 -235 19.5625 C-234.34443115 19.5001416 -233.6888623 19.4377832 -233.01342773 19.37353516 C-227.02050677 18.85569108 -221.00972195 18.79855681 -215 19 C-215.45890625 19.71285156 -215.9178125 20.42570312 -216.390625 21.16015625 C-219.72992305 26.37254796 -222.99357541 31.58843574 -226 37 C-224.9790625 37.309375 -224.9790625 37.309375 -223.9375 37.625 C-215.8264108 41.42168005 -210.59901928 48.32941248 -206.92578125 56.34375 C-202.93724541 67.46111687 -205.71213988 79.35930464 -210 90 C-212.93507641 96.20323282 -216.19273884 102.28910825 -220 108 C-218.20739868 107.94004678 -216.41574205 107.8512759 -214.625 107.75 C-213.62726563 107.70359375 -212.62953125 107.6571875 -211.6015625 107.609375 C-208.88040095 107.28707157 -208.88040095 107.28707157 -207.76953125 105.125 C-207.51558594 104.42375 -207.26164063 103.7225 -207 103 C-200.89781655 94.33883639 -191.25415905 87.69576893 -181 85 C-175.98360903 84.30253388 -171.6963812 85.12144752 -167 87 C-166.34 86.34 -165.68 85.68 -165 85 C-162.86328125 84.3671875 -162.86328125 84.3671875 -160.3125 83.875 C-159.48363281 83.70742187 -158.65476563 83.53984375 -157.80078125 83.3671875 C-154.51194474 82.93601507 -151.31321993 82.94280508 -148 83 C-152.15380436 91.94556503 -156.87250319 100.2025753 -162.35473633 108.40014648 C-163.04152466 109.42990601 -163.04152466 109.42990601 -163.7421875 110.48046875 C-164.1532373 111.08785889 -164.56428711 111.69524902 -164.98779297 112.32104492 C-166.16879203 114.14138616 -166.16879203 114.14138616 -167 117 C-154.49653539 108.63153943 -138.0754969 95.55918434 -133.234375 80.640625 C-132 79 -132 79 -128.3046875 78.390625 C-126.82887763 78.32414708 -125.35203983 78.27806121 -123.875 78.25 C-123.12089844 78.22035156 -122.36679687 78.19070312 -121.58984375 78.16015625 C-119.72714047 78.08942068 -117.86356245 78.04245017 -116 78 C-116.70554068 81.66881155 -118.27735506 84.70450534 -120 88 C-118.80503906 86.96939453 -118.80503906 86.96939453 -117.5859375 85.91796875 C-116.51589554 85.00749445 -115.44556773 84.09735602 -114.375 83.1875 C-113.85292969 82.73568359 -113.33085937 82.28386719 -112.79296875 81.81835938 C-108.56941988 78.24659274 -104.50753137 75.30090376 -98.875 74.625 C-96 75 -96 75 -93.5625 75.9375 C-91.74049191 78.34255068 -91.73289681 79.05793765 -91.875 82 C-92.84198273 88.02654893 -95.87129507 92.8502236 -99 98 C-99.85658203 99.44632813 -99.85658203 99.44632813 -100.73046875 100.921875 C-102.13898333 103.29058835 -103.56194835 105.64914252 -105 108 C-99.67246506 106.22415502 -95.44216001 102.36754465 -91 99 C-90.34128906 98.50113281 -89.68257813 98.00226563 -89.00390625 97.48828125 C-83.84520933 93.3303477 -80.03185919 88.23434351 -76 83 C-80.29 83.33 -84.58 83.66 -89 84 C-86.69432773 77.08298319 -86.69432773 77.08298319 -84 74 C-80.90234375 73.48828125 -80.90234375 73.48828125 -77.3125 73.4375 C-72.47301688 73.14975046 -72.47301688 73.14975046 -68.57080078 70.5546875 C-65.67945653 66.42576446 -63.52911001 61.8641849 -61.26708984 57.37109375 C-59.20625852 53.51467876 -56.73280029 49.98649361 -54.1875 46.4375 C-53.68935791 45.73995605 -53.19121582 45.04241211 -52.67797852 44.32373047 C-44.48729084 33.00973028 -35.57058388 22.17345531 -26 12 C-25.38640625 11.34515625 -24.7728125 10.6903125 -24.140625 10.015625 C-18.08653786 3.74723389 -9.16851144 -5.39324202 0 0 Z M-23.47265625 18.3515625 C-30.64008646 25.86240899 -36.04870774 34.77943847 -41.1875 43.75 C-41.58646484 44.44158203 -41.98542969 45.13316406 -42.39648438 45.84570312 C-43.33126916 47.52831573 -44.17499972 49.26092487 -45 51 C-44.67 51.66 -44.34 52.32 -44 53 C-39.64817281 49.01967025 -35.3159057 45.01924411 -31 41 C-30.22011719 40.27683594 -29.44023437 39.55367187 -28.63671875 38.80859375 C-21.87536067 32.31823198 -14.42577905 24.5730879 -13 15 C-13.33 14.34 -13.66 13.68 -14 13 C-18.48393944 13 -20.2661477 15.38930987 -23.47265625 18.3515625 Z M-238 54 C-243.10449788 61.15261106 -247.91876226 68.45552247 -252.625 75.875 C-258.27194317 84.74660156 -263.95506488 93.59118618 -269.75048828 102.36669922 C-273.08307712 107.45189333 -276.11837871 112.6464966 -279 118 C-271.94328564 117.20591497 -265.04165548 115.91560802 -258.0871582 114.49169922 C-253.97617182 113.67057953 -249.99774336 112.90947263 -245.80078125 112.78515625 C-242.14874833 112.62328236 -239.38968303 112.37877648 -236 111 C-232.18860216 106.79411035 -230.08836891 102.23180586 -228 97 C-227.7333252 96.36739258 -227.46665039 95.73478516 -227.19189453 95.08300781 C-223.41825262 85.97064078 -220.87074647 76.33938228 -223.69921875 66.58984375 C-226.17282002 61.0059759 -230.02433624 57.25245644 -235.69140625 54.8671875 C-236.45324219 54.58101562 -237.21507812 54.29484375 -238 54 Z M39 89.5 C36.76429774 91.8379547 36.76429774 91.8379547 36.6875 94.8125 C36.790625 95.534375 36.89375 96.25625 37 97 C42.29347089 96.67918358 45.51581083 93.72507138 49 90 C51.33060622 86.2368817 51.33060622 86.2368817 52 82 C47.22773142 82 42.49305947 86.5891171 39 89.5 Z M7.0625 87.25 C6.18722656 87.85328125 5.31195313 88.4565625 4.41015625 89.078125 C2.10149624 90.91906621 0.52594117 92.48194527 -1 95 C-1 95.99 -1 96.98 -1 98 C2.39690706 97.93206186 5.02993742 97.79269222 7.73046875 95.5859375 C10.92332605 92.00678389 12.84767556 88.72453021 14 84 C11.01435207 84 9.48543403 85.55643671 7.0625 87.25 Z M-190.75 102.875 C-195.77234897 108.90871443 -198.66202117 114.05574591 -198 122 C-196.21961279 122.74637845 -196.21961279 122.74637845 -194 123 C-184.02204172 118.5008479 -178.8473984 110.21427762 -174.00390625 100.8671875 C-172.8983977 97.70982067 -173.02412924 96.15281323 -174 93 C-181.45061685 92.48438638 -185.96373272 97.67789433 -190.75 102.875 Z M-254.78125 121.13671875 C-256.40546875 121.50289307 -256.40546875 121.50289307 -258.0625 121.87646484 C-262.69140122 122.96859623 -267.31225294 124.08925595 -271.92578125 125.24462891 C-274.43401817 125.86093172 -276.94208345 126.41681401 -279.46875 126.94921875 C-287.25233375 128.98982644 -290.53971171 132.23838141 -294.5625 138.9375 C-295.6886512 140.97853036 -296.78605953 143.03243822 -297.87548828 145.09326172 C-299.02447356 147.04149772 -300.29972669 148.66997392 -301.77734375 150.37890625 C-304.21558571 152.68146258 -304.21558571 152.68146258 -304 155 C-306.90600261 156.25664978 -308.79604584 157 -312 157 C-311.83112554 149.56952384 -307.86815652 144.15067185 -304 138 C-308.1202862 136.62657127 -310.6029466 138.18673402 -314.375 139.875 C-315.08382324 140.19017578 -315.79264648 140.50535156 -316.52294922 140.83007812 C-326.2440103 145.31504696 -335.81538345 151.06666498 -342 160 C-342.94240924 162.75764351 -342.94240924 162.75764351 -343 165 C-340.04987524 167.95012476 -337.04001859 168.7388409 -332.93359375 169.0625 C-303.16536652 168.4282901 -273.59076099 151.50988075 -253 131 C-251.99164274 130.0161503 -250.98254201 129.03306194 -249.97265625 128.05078125 C-246.43244097 124.57780839 -246.43244097 124.57780839 -243 121 C-243 120.67 -243 120.34 -243 120 C-247.12459033 119.88894747 -250.76055036 120.2255073 -254.78125 121.13671875 Z " fill="#D92725" transform="translate(401,14)"/>
</svg>
